<svg width="23" height="24" viewBox="0 0 23 24" fill="none" xmlns="http://www.w3.org/2000/svg">
<mask id="path-1-inside-1_1165_6872" fill="white">
<path fill-rule="evenodd" clip-rule="evenodd" d="M7.79088 11.8331C5.18003 12.9356 0.537306 11.6064 0.537306 11.6064C0.537306 11.6064 -0.170434 14.3711 0.0386238 16.1399C0.41716 19.3426 4.26856 23.2325 4.26856 23.2325C4.26856 23.2325 4.58274 20.4158 6.11373 19.4948C7.69999 18.5405 10.4659 19.8574 10.4659 19.8574C10.4659 19.8574 11.2125 17.228 13.05 16.6839C14.4728 16.2627 16.6767 16.6839 16.6767 16.6839C16.6767 16.6839 15.6671 13.4377 17.1754 12.1505C18.2116 11.2663 19.5779 11.0624 19.5779 11.0624C19.5779 11.0624 18.3287 7.69837 19.5779 6.03032C20.6159 4.64441 22.9327 4.57953 22.9327 4.57953L19.5779 1.58744C19.5779 1.58744 16.8054 -0.0390453 14.8631 0.000717355C13.3898 0.0308791 11.2365 1.04348 11.2365 1.04348C11.2365 1.04348 13.1281 5.67122 11.9163 8.20632C11.8686 8.30624 11.82 8.40329 11.7706 8.49761C11.4319 7.50139 10.5395 6.77523 9.47583 6.71497L8.54088 5.71301L7.74539 6.45531L8.22434 6.96858C7.63409 7.25899 7.16708 7.77422 6.92658 8.40733L6.27419 7.70819L5.47869 8.45049L6.71586 9.77631L6.76907 9.72666C6.87412 10.5812 7.36876 11.3099 8.06287 11.7159C7.97381 11.7551 7.88317 11.7941 7.79088 11.8331Z"/>
</mask>
<path d="M0.537306 11.6064L0.812539 10.6451L-0.176359 10.3619L-0.431455 11.3584L0.537306 11.6064ZM7.79088 11.8331L7.40187 10.9119L7.40186 10.9119L7.79088 11.8331ZM0.0386238 16.1399L-0.954464 16.2573L0.0386238 16.1399ZM4.26856 23.2325L3.55795 23.9361L5.0304 25.4232L5.2624 23.3434L4.26856 23.2325ZM6.11373 19.4948L6.62922 20.3516H6.62922L6.11373 19.4948ZM10.4659 19.8574L10.036 20.7603L11.1046 21.2691L11.4278 20.1306L10.4659 19.8574ZM13.05 16.6839L13.3338 17.6428H13.3338L13.05 16.6839ZM16.6767 16.6839L16.489 17.6661L18.1268 17.9792L17.6316 16.3869L16.6767 16.6839ZM17.1754 12.1505L16.5263 11.3898V11.3898L17.1754 12.1505ZM19.5779 11.0624L19.7255 12.0515L20.9444 11.8696L20.5154 10.7143L19.5779 11.0624ZM19.5779 6.03032L20.3783 6.62977V6.62977L19.5779 6.03032ZM22.9327 4.57953L22.9607 5.57914L25.4768 5.50868L23.5983 3.83324L22.9327 4.57953ZM19.5779 1.58744L20.2435 0.84114L20.1695 0.775104L20.0839 0.724903L19.5779 1.58744ZM14.8631 0.000717355L14.8426 -0.999073L14.8631 0.000717355ZM11.2365 1.04348L10.811 0.138548L9.95154 0.542716L10.3109 1.42184L11.2365 1.04348ZM11.9163 8.20632L12.8186 8.63759L12.8186 8.63759L11.9163 8.20632ZM11.7706 8.49761L10.8238 8.81946L11.5742 11.027L12.6564 8.96173L11.7706 8.49761ZM9.47583 6.71497L8.74471 7.39721L9.01854 7.69067L9.41928 7.71337L9.47583 6.71497ZM8.54088 5.71301L9.27201 5.03077L8.58977 4.29965L7.85864 4.98188L8.54088 5.71301ZM7.74539 6.45531L7.06315 5.72418L6.33202 6.40642L7.01426 7.13755L7.74539 6.45531ZM8.22434 6.96858L8.66581 7.86586L9.87445 7.27119L8.95547 6.28635L8.22434 6.96858ZM6.92658 8.40733L6.19545 9.08957L7.29112 10.2638L7.86141 8.76244L6.92658 8.40733ZM6.27419 7.70819L7.00532 7.02595L6.32308 6.29482L5.59195 6.97706L6.27419 7.70819ZM5.47869 8.45049L4.79646 7.71936L4.06533 8.4016L4.74757 9.13273L5.47869 8.45049ZM6.71586 9.77631L5.98473 10.4586L6.66697 11.1897L7.3981 10.5074L6.71586 9.77631ZM6.76907 9.72666L7.7616 9.60465L7.52208 7.65626L6.08683 8.99553L6.76907 9.72666ZM8.06287 11.7159L8.46555 12.6313L10.2593 11.8422L8.56777 10.8528L8.06287 11.7159ZM0.537306 11.6064C0.262073 12.5678 0.262264 12.5679 0.262472 12.5679C0.262566 12.5679 0.262792 12.568 0.262979 12.5681C0.263352 12.5682 0.263796 12.5683 0.264312 12.5684C0.265342 12.5687 0.266655 12.5691 0.268249 12.5696C0.271436 12.5705 0.275743 12.5717 0.281144 12.5732C0.291947 12.5762 0.307132 12.5804 0.326494 12.5857C0.365212 12.5963 0.420674 12.6112 0.491236 12.6295C0.632287 12.666 0.834104 12.7161 1.08348 12.7724C1.58104 12.8846 2.27403 13.0226 3.05535 13.1248C4.56232 13.3218 6.60981 13.4173 8.17989 12.7543L7.40186 10.9119C6.3611 11.3514 4.78181 11.3335 3.3147 11.1416C2.60898 11.0493 1.97811 10.9239 1.52357 10.8214C1.2969 10.7703 1.11561 10.7252 0.992559 10.6933C0.931071 10.6774 0.884238 10.6648 0.853672 10.6565C0.838393 10.6523 0.827189 10.6492 0.820263 10.6472C0.816801 10.6463 0.814409 10.6456 0.813113 10.6452C0.812465 10.645 0.812091 10.6449 0.811994 10.6449C0.811946 10.6449 0.811967 10.6449 0.812057 10.6449C0.812102 10.6449 0.812223 10.645 0.812246 10.645C0.812383 10.645 0.812539 10.6451 0.537306 11.6064ZM1.03171 16.0225C0.944671 15.2861 1.04793 14.2698 1.19618 13.373C1.26807 12.938 1.34638 12.5549 1.40665 12.2809C1.43671 12.1441 1.46213 12.0353 1.47977 11.9617C1.48859 11.9249 1.49545 11.897 1.49997 11.8788C1.50222 11.8697 1.50389 11.863 1.50493 11.8589C1.50544 11.8569 1.5058 11.8555 1.50599 11.8547C1.50609 11.8543 1.50614 11.8541 1.50616 11.8541C1.50616 11.8541 1.50616 11.8541 1.50614 11.8541C1.50614 11.8542 1.50612 11.8542 1.50611 11.8542C1.50609 11.8543 1.50607 11.8544 0.537306 11.6064C-0.431455 11.3584 -0.431485 11.3585 -0.431518 11.3587C-0.431532 11.3587 -0.431567 11.3589 -0.431596 11.359C-0.431654 11.3592 -0.431723 11.3595 -0.431802 11.3598C-0.431961 11.3604 -0.432162 11.3612 -0.432406 11.3622C-0.432893 11.3641 -0.433547 11.3667 -0.434363 11.3699C-0.435995 11.3764 -0.438273 11.3855 -0.441148 11.397C-0.446897 11.4202 -0.455036 11.4534 -0.465163 11.4956C-0.485409 11.5801 -0.513654 11.7011 -0.546669 11.8512C-0.612572 12.1509 -0.698136 12.5694 -0.777043 13.0468C-0.930397 13.9745 -1.07648 15.2249 -0.954464 16.2573L1.03171 16.0225ZM4.26856 23.2325C4.97917 22.5289 4.97928 22.529 4.97938 22.5291C4.97939 22.5291 4.97947 22.5292 4.9795 22.5292C4.97955 22.5293 4.97954 22.5293 4.97947 22.5292C4.97934 22.5291 4.97898 22.5287 4.97839 22.5281C4.97722 22.5269 4.97514 22.5248 4.97219 22.5218C4.96627 22.5158 4.95685 22.5061 4.94415 22.493C4.91874 22.4667 4.88022 22.4265 4.83035 22.3735C4.73057 22.2676 4.58567 22.1108 4.40976 21.912C4.05714 21.5135 3.58394 20.9509 3.10098 20.2945C2.10281 18.938 1.18813 17.346 1.03171 16.0225L-0.954464 16.2573C-0.732349 18.1366 0.46794 20.0908 1.4901 21.4799C2.01732 22.1964 2.53063 22.8064 2.91198 23.2374C3.10304 23.4533 3.262 23.6254 3.37432 23.7447C3.4305 23.8043 3.47509 23.8508 3.50628 23.8831C3.52188 23.8992 3.53414 23.9118 3.54282 23.9207C3.54716 23.9251 3.55061 23.9286 3.55314 23.9312C3.55441 23.9325 3.55544 23.9335 3.55625 23.9344C3.55665 23.9348 3.55699 23.9351 3.55728 23.9354C3.55742 23.9355 3.55759 23.9357 3.55766 23.9358C3.55781 23.9359 3.55795 23.9361 4.26856 23.2325ZM5.59823 18.6379C4.50735 19.2941 3.95172 20.5326 3.66724 21.3961C3.51542 21.8569 3.41856 22.2814 3.35945 22.5897C3.32973 22.7448 3.30911 22.8729 3.29568 22.9643C3.28895 23.0101 3.284 23.0468 3.28059 23.0734C3.27888 23.0867 3.27756 23.0975 3.2766 23.1056C3.27611 23.1096 3.27572 23.113 3.27541 23.1157C3.27525 23.117 3.27512 23.1182 3.275 23.1192C3.27495 23.1197 3.2749 23.1201 3.27485 23.1205C3.27483 23.1207 3.2748 23.121 3.27478 23.1211C3.27475 23.1214 3.27473 23.1216 4.26856 23.2325C5.2624 23.3434 5.26237 23.3436 5.26235 23.3438C5.26234 23.3439 5.26232 23.3441 5.2623 23.3442C5.26228 23.3444 5.26225 23.3446 5.26224 23.3448C5.2622 23.3451 5.26218 23.3453 5.26219 23.3452C5.26219 23.3452 5.26227 23.3445 5.26242 23.3432C5.26274 23.3406 5.26337 23.3354 5.26434 23.3279C5.26628 23.3127 5.26957 23.2881 5.27443 23.255C5.28416 23.1888 5.30005 23.0896 5.32369 22.9663C5.37134 22.7177 5.44871 22.3804 5.56681 22.0219C5.82216 21.2468 6.18912 20.6164 6.62922 20.3516L5.59823 18.6379ZM10.4659 19.8574C10.8958 18.9546 10.8955 18.9544 10.8953 18.9543C10.8952 18.9543 10.8949 18.9542 10.8948 18.9541C10.8944 18.9539 10.8939 18.9537 10.8935 18.9535C10.8925 18.953 10.8914 18.9525 10.8902 18.9519C10.8876 18.9507 10.8844 18.9492 10.8805 18.9474C10.8727 18.9437 10.8622 18.9389 10.8493 18.933C10.8233 18.9212 10.7872 18.905 10.7418 18.8853C10.6513 18.846 10.5233 18.7926 10.3659 18.7324C10.0529 18.6129 9.61387 18.4629 9.11431 18.345C8.18611 18.1259 6.75161 17.944 5.59823 18.6379L6.62922 20.3516C7.06211 20.0912 7.80367 20.0906 8.65498 20.2915C9.04517 20.3836 9.39674 20.5032 9.65197 20.6007C9.77862 20.6491 9.87913 20.6911 9.94601 20.7201C9.97939 20.7346 10.0042 20.7458 10.0196 20.7528C10.0272 20.7563 10.0325 20.7587 10.0353 20.76C10.0367 20.7607 10.0374 20.761 10.0376 20.7611C10.0376 20.7611 10.0375 20.761 10.0373 20.7609C10.0371 20.7609 10.0369 20.7608 10.0367 20.7607C10.0366 20.7606 10.0364 20.7605 10.0364 20.7605C10.0362 20.7604 10.036 20.7603 10.4659 19.8574ZM12.7661 15.7251C11.472 16.1082 10.6581 17.1815 10.2016 17.9769C9.9619 18.3945 9.79041 18.7884 9.67865 19.0771C9.62241 19.2224 9.58035 19.3436 9.55162 19.4309C9.53724 19.4746 9.52615 19.51 9.51824 19.5359C9.51428 19.5489 9.51111 19.5595 9.50873 19.5676C9.50754 19.5717 9.50654 19.5751 9.50573 19.5779C9.50533 19.5793 9.50498 19.5805 9.50467 19.5816C9.50452 19.5821 9.50438 19.5826 9.50425 19.5831C9.50418 19.5833 9.50409 19.5836 9.50406 19.5837C9.50398 19.584 9.50389 19.5843 10.4659 19.8574C11.4278 20.1306 11.4278 20.1308 11.4277 20.1311C11.4277 20.1312 11.4276 20.1314 11.4276 20.1316C11.4275 20.1319 11.4274 20.1321 11.4273 20.1323C11.4272 20.1328 11.4271 20.133 11.4271 20.1332C11.427 20.1334 11.4271 20.1331 11.4274 20.1321C11.428 20.1303 11.4292 20.126 11.4312 20.1196C11.4351 20.1068 11.4418 20.0851 11.4515 20.0559C11.4707 19.9973 11.5014 19.9087 11.5438 19.799C11.6295 19.5777 11.7595 19.2803 11.9362 18.9725C12.3123 18.3171 12.7904 17.8037 13.3338 17.6428L12.7661 15.7251ZM16.6767 16.6839C16.8645 15.7017 16.8643 15.7017 16.8642 15.7016C16.8641 15.7016 16.8639 15.7016 16.8638 15.7016C16.8635 15.7015 16.8632 15.7015 16.8629 15.7014C16.8622 15.7013 16.8615 15.7011 16.8605 15.701C16.8587 15.7006 16.8563 15.7002 16.8533 15.6996C16.8475 15.6985 16.8396 15.6971 16.8296 15.6953C16.8097 15.6917 16.7818 15.6867 16.7465 15.6807C16.6761 15.6688 16.5761 15.6526 16.4525 15.6349C16.2061 15.5994 15.8621 15.557 15.469 15.5285C14.7134 15.474 13.6573 15.4612 12.7661 15.7251L13.3338 17.6428C13.8654 17.4854 14.6228 17.4726 15.3248 17.5233C15.6606 17.5476 15.9565 17.5841 16.1678 17.6145C16.2731 17.6296 16.3564 17.6431 16.412 17.6526C16.4398 17.6573 16.4606 17.661 16.4736 17.6633C16.4802 17.6645 16.4848 17.6654 16.4874 17.6658C16.4887 17.6661 16.4895 17.6662 16.4897 17.6663C16.4899 17.6663 16.4899 17.6663 16.4898 17.6663C16.4897 17.6663 16.4896 17.6663 16.4895 17.6662C16.4894 17.6662 16.4893 17.6662 16.4893 17.6662C16.4891 17.6662 16.489 17.6661 16.6767 16.6839ZM16.5263 11.3898C15.3786 12.3692 15.2964 13.9568 15.3626 14.9654C15.3988 15.5159 15.4875 16.0135 15.5657 16.3706C15.6051 16.5505 15.6426 16.698 15.6709 16.8027C15.6851 16.8552 15.697 16.8971 15.7058 16.9272C15.7102 16.9422 15.7138 16.9543 15.7165 16.9633C15.7178 16.9678 15.719 16.9716 15.7199 16.9745C15.7203 16.976 15.7207 16.9772 15.721 16.9783C15.7212 16.9788 15.7214 16.9793 15.7215 16.9798C15.7216 16.98 15.7217 16.9803 15.7217 16.9804C15.7218 16.9806 15.7219 16.9809 16.6767 16.6839C17.6316 16.3869 17.6317 16.3872 17.6318 16.3874C17.6318 16.3875 17.6318 16.3877 17.6319 16.3878C17.632 16.388 17.632 16.3882 17.6321 16.3884C17.6321 16.3886 17.6322 16.3887 17.6321 16.3886C17.6321 16.3884 17.6318 16.3875 17.6313 16.3858C17.6303 16.3825 17.6284 16.3762 17.6258 16.3671C17.6205 16.349 17.6122 16.3199 17.6017 16.2811C17.5807 16.2032 17.5511 16.0871 17.5194 15.9426C17.4554 15.6508 17.386 15.2564 17.3583 14.8344C17.2968 13.8981 17.4639 13.219 17.8246 12.9112L16.5263 11.3898ZM19.5779 11.0624C19.4304 10.0734 19.4301 10.0734 19.4298 10.0734C19.4297 10.0734 19.4295 10.0735 19.4293 10.0735C19.4289 10.0736 19.4285 10.0736 19.4281 10.0737C19.4272 10.0738 19.4263 10.074 19.4253 10.0741C19.4233 10.0744 19.4209 10.0748 19.4182 10.0752C19.4128 10.0761 19.406 10.0772 19.398 10.0785C19.382 10.0812 19.3608 10.0848 19.3349 10.0896C19.2832 10.0992 19.2123 10.1134 19.1257 10.1331C18.9533 10.1725 18.7154 10.2348 18.441 10.3289C17.9011 10.514 17.1735 10.8376 16.5263 11.3898L17.8246 12.9112C18.2136 12.5792 18.6872 12.3587 19.0895 12.2208C19.2862 12.1534 19.4547 12.1095 19.5707 12.083C19.6285 12.0698 19.6725 12.0611 19.6995 12.0561C19.7129 12.0536 19.7221 12.0521 19.7266 12.0513C19.7289 12.0509 19.7299 12.0508 19.7298 12.0508C19.7297 12.0508 19.7293 12.0509 19.7286 12.051C19.7282 12.051 19.7278 12.0511 19.7273 12.0512C19.727 12.0512 19.7267 12.0513 19.7264 12.0513C19.7263 12.0513 19.726 12.0514 19.726 12.0514C19.7257 12.0514 19.7255 12.0515 19.5779 11.0624ZM18.7775 5.43086C17.8915 6.61395 17.96 8.24116 18.1203 9.31905C18.2066 9.89854 18.3349 10.4153 18.4408 10.7855C18.494 10.9717 18.5422 11.1234 18.5779 11.2306C18.5958 11.2842 18.6105 11.3268 18.6213 11.3572C18.6266 11.3724 18.631 11.3845 18.6342 11.3935C18.6359 11.3979 18.6372 11.4016 18.6382 11.4045C18.6388 11.4059 18.6392 11.4071 18.6396 11.4081C18.6398 11.4086 18.6399 11.4091 18.6401 11.4095C18.6402 11.4097 18.6403 11.4099 18.6403 11.41C18.6404 11.4103 18.6405 11.4105 19.5779 11.0624C20.5154 10.7143 20.5154 10.7145 20.5155 10.7147C20.5155 10.7147 20.5156 10.7149 20.5156 10.715C20.5157 10.7152 20.5158 10.7154 20.5158 10.7155C20.5159 10.7157 20.5159 10.7157 20.5158 10.7155C20.5157 10.7151 20.5152 10.7139 20.5145 10.7119C20.5131 10.708 20.5106 10.7011 20.5071 10.6912C20.5002 10.6715 20.4893 10.6402 20.4755 10.5986C20.4477 10.5153 20.4081 10.3912 20.3637 10.2359C20.2744 9.92328 20.1685 9.49474 20.0986 9.02471C19.9466 8.00357 20.0151 7.11473 20.3783 6.62977L18.7775 5.43086ZM22.9327 4.57953C22.9047 3.57992 22.9044 3.57993 22.9041 3.57994C22.904 3.57994 22.9037 3.57995 22.9035 3.57996C22.903 3.57997 22.9025 3.57999 22.902 3.58C22.9009 3.58003 22.8997 3.58007 22.8984 3.58012C22.8957 3.5802 22.8925 3.58032 22.8887 3.58046C22.8811 3.58074 22.8712 3.58115 22.8592 3.58171C22.8353 3.58284 22.8028 3.58462 22.7627 3.58737C22.6826 3.59286 22.5714 3.60227 22.4365 3.61831C22.1682 3.65019 21.7976 3.70923 21.3864 3.81911C20.5976 4.0299 19.4966 4.47076 18.7775 5.43086L20.3783 6.62977C20.6972 6.20397 21.2736 5.91943 21.9027 5.75131C22.2005 5.67173 22.4739 5.62793 22.6725 5.60434C22.7709 5.59264 22.8488 5.58616 22.8995 5.58269C22.9248 5.58095 22.9431 5.57998 22.9536 5.57948C22.9589 5.57924 22.9622 5.57911 22.9634 5.57906C22.964 5.57904 22.9641 5.57904 22.9636 5.57905C22.9634 5.57906 22.9631 5.57907 22.9626 5.57909C22.9623 5.57909 22.962 5.5791 22.9617 5.57911C22.9616 5.57911 22.9613 5.57912 22.9612 5.57912C22.961 5.57913 22.9607 5.57914 22.9327 4.57953ZM18.9123 2.33373L22.2671 5.32583L23.5983 3.83324L20.2435 0.84114L18.9123 2.33373ZM14.8836 1.00051C15.6265 0.985298 16.6369 1.30432 17.5545 1.69812C17.9935 1.8865 18.3771 2.07681 18.6508 2.21998C18.7872 2.29135 18.8952 2.35045 18.9679 2.39098C19.0042 2.41123 19.0316 2.42681 19.0493 2.43691C19.0581 2.44196 19.0645 2.44564 19.0683 2.44785C19.0702 2.44896 19.0715 2.4497 19.0721 2.45005C19.0724 2.45023 19.0725 2.45031 19.0725 2.4503C19.0725 2.45029 19.0724 2.45026 19.0723 2.45021C19.0723 2.45018 19.0722 2.45012 19.0722 2.45011C19.072 2.45004 19.0719 2.44997 19.5779 1.58744C20.0839 0.724903 20.0838 0.724818 20.0836 0.724728C20.0836 0.724689 20.0834 0.724592 20.0833 0.724515C20.083 0.724361 20.0827 0.724182 20.0823 0.723978C20.0817 0.723571 20.0808 0.723065 20.0798 0.722461C20.0777 0.721255 20.0749 0.71966 20.0715 0.717688C20.0647 0.713746 20.0553 0.708298 20.0433 0.701446C20.0194 0.687745 19.9854 0.668414 19.9421 0.644269C19.8556 0.596009 19.7318 0.528347 19.5779 0.447855C19.2711 0.28731 18.8402 0.0734832 18.3433 -0.139786C17.389 -0.549287 16.042 -1.02363 14.8426 -0.999073L14.8836 1.00051ZM11.2365 1.04348C11.6621 1.94841 11.662 1.94846 11.6619 1.9485C11.6619 1.94851 11.6618 1.94855 11.6618 1.94857C11.6617 1.94861 11.6616 1.94863 11.6616 1.94864C11.6616 1.94866 11.6617 1.94862 11.6619 1.94852C11.6623 1.94832 11.6632 1.94788 11.6647 1.94721C11.6676 1.94587 11.6724 1.94362 11.6792 1.94051C11.6927 1.93428 11.7138 1.92464 11.7418 1.91206C11.7978 1.88689 11.8812 1.85006 11.9865 1.80537C12.1978 1.71574 12.4941 1.59591 12.8324 1.47561C13.5387 1.22445 14.3174 1.0121 14.8836 1.00051L14.8426 -0.999073C13.9355 -0.980502 12.9009 -0.67147 12.1623 -0.40879C11.7781 -0.27217 11.444 -0.136971 11.2055 -0.0357999C11.0859 0.0149189 10.9896 0.0574305 10.9221 0.0877516C10.8883 0.102921 10.8617 0.115065 10.843 0.12369C10.8336 0.128003 10.8262 0.131439 10.8209 0.133935C10.8182 0.135183 10.816 0.136197 10.8144 0.136968C10.8135 0.137354 10.8128 0.137679 10.8123 0.137942C10.812 0.138074 10.8117 0.13819 10.8115 0.138291C10.8114 0.138342 10.8113 0.138406 10.8112 0.138431C10.8111 0.138491 10.811 0.138548 11.2365 1.04348ZM12.8186 8.63759C13.2117 7.81511 13.329 6.88182 13.3213 6.00887C13.3136 5.12741 13.1776 4.23906 13.0079 3.46116C12.8375 2.67987 12.6279 1.98633 12.4615 1.4889C12.378 1.2394 12.3048 1.03728 12.2517 0.895858C12.2251 0.8251 12.2036 0.769402 12.1882 0.730422C12.1806 0.710927 12.1745 0.695602 12.1701 0.684651C12.1679 0.679176 12.1661 0.674793 12.1648 0.671528C12.1641 0.669896 12.1636 0.668543 12.1632 0.667473C12.1629 0.666938 12.1628 0.666473 12.1626 0.66608C12.1625 0.665883 12.1624 0.665642 12.1624 0.665543C12.1623 0.66532 12.1622 0.665114 11.2365 1.04348C10.3109 1.42184 10.3108 1.42167 10.3108 1.42152C10.3107 1.42149 10.3107 1.42135 10.3107 1.4213C10.3106 1.42119 10.3106 1.42114 10.3106 1.42117C10.3106 1.42122 10.3108 1.42155 10.311 1.42215C10.3115 1.42336 10.3124 1.42565 10.3138 1.42901C10.3165 1.43573 10.3208 1.44669 10.3267 1.46171C10.3385 1.49176 10.3564 1.53796 10.3792 1.5987C10.4249 1.72025 10.4899 1.89948 10.5648 2.12345C10.7152 2.57294 10.9028 3.19478 11.0538 3.88732C11.2056 4.58323 11.3153 5.32715 11.3214 6.0264C11.3276 6.73413 11.2269 7.32998 11.0141 7.77505L12.8186 8.63759ZM12.6564 8.96173C12.7117 8.85616 12.7657 8.74815 12.8186 8.63759L11.0141 7.77505C10.9714 7.86434 10.9284 7.95042 10.8848 8.03349L12.6564 8.96173ZM9.41928 7.71337C10.0491 7.74905 10.6074 8.18286 10.8238 8.81946L12.7174 8.17576C12.2565 6.81992 11.03 5.8014 9.53239 5.71657L9.41928 7.71337ZM7.80975 6.39525L8.74471 7.39721L10.207 6.03273L9.27201 5.03077L7.80975 6.39525ZM8.42763 7.18644L9.22312 6.44414L7.85864 4.98188L7.06315 5.72418L8.42763 7.18644ZM8.95547 6.28635L8.47652 5.77307L7.01426 7.13755L7.49321 7.65082L8.95547 6.28635ZM7.86141 8.76244C8.01391 8.36096 8.30749 8.04216 8.66581 7.86586L7.78286 6.07131C6.9607 6.47583 6.32024 7.18747 5.99176 8.05223L7.86141 8.76244ZM5.54306 8.39043L6.19545 9.08957L7.65771 7.7251L7.00532 7.02595L5.54306 8.39043ZM6.16093 9.18162L6.95643 8.43932L5.59195 6.97706L4.79646 7.71936L6.16093 9.18162ZM7.44699 9.09408L6.20982 7.76825L4.74757 9.13273L5.98473 10.4586L7.44699 9.09408ZM6.08683 8.99553L6.03362 9.04518L7.3981 10.5074L7.45131 10.4578L6.08683 8.99553ZM8.56777 10.8528C8.14282 10.6042 7.82858 10.1496 7.7616 9.60465L5.77654 9.84868C5.91966 11.0129 6.5947 12.0157 7.55797 12.5791L8.56777 10.8528ZM8.17989 12.7543C8.27635 12.7136 8.37158 12.6726 8.46555 12.6313L7.66019 10.8006C7.57605 10.8376 7.48998 10.8747 7.40187 10.9119L8.17989 12.7543Z" fill="black" mask="url(#path-1-inside-1_1165_6872)"/>
</svg>
