<svg width="24" height="24" viewBox="0 0 24 24" fill="none" xmlns="http://www.w3.org/2000/svg">
<g clip-path="url(#clip0_1165_6608)">
<path d="M22.9782 13.165C22.7714 11.4712 21.2404 10.2041 20.4924 9.68935C21.126 8.61586 22.6086 5.54499 20.5232 3.12525C20.0585 2.48644 19.3321 2.08933 18.5434 2.04297C15.9301 2.04297 13.9767 7.3532 13.2376 9.70255L12.7977 8.93263C12.6667 8.69604 12.4734 8.49977 12.2389 8.36509L12.1773 5.98934C12.1773 5.74638 11.9803 5.54939 11.7374 5.54939C11.4944 5.54939 11.2974 5.74638 11.2974 5.98934L11.3546 8.15831C11.1516 8.17371 10.954 8.23063 10.7739 8.32549C10.6036 8.42124 10.454 8.54981 10.3339 8.70385L8.54332 7.51598C8.33435 7.37751 8.05267 7.43459 7.91419 7.64357C7.77572 7.85254 7.8328 8.13422 8.04178 8.2727L10.004 9.59256C9.98813 9.86967 10.0507 10.1456 10.1843 10.3889L10.6243 11.1632C8.74493 10.649 6.8125 10.3537 4.86532 10.2833C3.13631 10.2833 1.97043 10.6748 1.39849 11.4492C0.95854 12.0519 0.879348 12.8526 1.17852 13.8249C2.12881 16.9046 5.51205 17.2653 6.75712 17.2917C6.79671 18.1188 7.01669 19.8611 8.07697 20.9697C8.71645 21.6265 9.60251 21.9841 10.5187 21.9552C10.9642 21.95 11.4073 21.8909 11.8386 21.7792C13.5984 21.3393 14.3507 19.6103 14.6455 18.396C15.1821 19.0177 16.1211 19.0867 16.7428 18.5501C17.1893 18.1648 17.3658 17.552 17.1928 16.9882C17.8093 17.1991 18.4551 17.3119 19.1066 17.3225C20.0231 17.3617 20.9166 17.0285 21.5835 16.3986C22.6438 15.3823 23.1102 14.2957 22.9782 13.165ZM11.6582 20.9257C11.2931 21.0207 10.9179 21.0709 10.5407 21.0753C9.86346 21.1042 9.20589 20.8434 8.7325 20.3582C7.57543 19.1659 7.63262 16.8826 7.63262 16.8386C7.63262 16.5956 7.43563 16.3986 7.19267 16.3986H6.9155C5.974 16.3986 2.84154 16.1918 2.02762 13.5521C1.81645 12.8614 1.84284 12.3247 2.11562 11.9551C2.50717 11.4228 3.46187 11.1456 4.87852 11.1456C7.35105 11.1456 10.4747 11.9947 11.2314 12.2103L13.9987 17.2125C13.9327 17.8241 13.5544 20.4462 11.6582 20.9257ZM16.4009 17.5909C16.3106 17.9138 15.9756 18.1024 15.6526 18.012C15.495 17.9679 15.3619 17.8621 15.2834 17.7185L14.8434 16.9178L11.9266 11.6383L10.9895 9.94892C10.8284 9.6547 10.9344 9.28575 11.227 9.12181C11.3172 9.07193 11.4187 9.04614 11.5218 9.04702C11.7429 9.04647 11.9468 9.16608 12.0541 9.35938L16.3525 17.1289C16.4297 17.2703 16.4471 17.4366 16.4009 17.5909ZM20.972 15.7695H20.9852C20.4885 16.2278 19.8302 16.4699 19.155 16.4426C18.2702 16.4052 17.4034 16.1803 16.6121 15.7827L13.8316 10.7804C14.7115 7.66996 16.6956 2.92287 18.5434 2.92287C19.0757 2.97803 19.5576 3.26235 19.8633 3.70159C21.9663 6.13893 19.6389 9.42098 19.5377 9.56616C19.3957 9.76326 19.4403 10.0382 19.6374 10.1803C19.6492 10.1889 19.6615 10.1968 19.6741 10.2041C19.6741 10.2041 21.9003 11.5239 22.1071 13.2838C22.1995 14.1197 21.8211 14.9556 20.972 15.7695Z" fill="black"/>
</g>
<defs>
<clipPath id="clip0_1165_6608">
<rect width="22" height="22" fill="white" transform="translate(1 1)"/>
</clipPath>
</defs>
</svg>
