<svg width="24" height="24" viewBox="0 0 24 24" fill="none" xmlns="http://www.w3.org/2000/svg">
<circle cx="12" cy="12" r="10.5" stroke="black"/>
<path d="M5.12891 20.1108L19 4" stroke="black"/>
<path d="M17.5 15C17.5 18.0006 14.8521 20.5 11.5 20.5C8.14786 20.5 5.5 18.0006 5.5 15C5.5 14.2528 5.7121 13.2836 6.09552 12.1944C6.47643 11.1122 7.01548 9.94195 7.64331 8.80217C8.81172 6.681 10.2539 4.72579 11.5016 3.64466C11.9681 4.05463 12.5167 4.67018 13.0967 5.43446C13.7995 6.36074 14.5272 7.47713 15.1848 8.64547C15.8427 9.81422 16.4254 11.0262 16.8424 12.143C17.2629 13.2693 17.5 14.2603 17.5 15Z" stroke="black"/>
</svg>
