<svg width="24" height="24" viewBox="0 0 24 24" fill="none" xmlns="http://www.w3.org/2000/svg">
<path d="M20.6825 10.1117H23V9.40453H20.3497L18.5755 11.5262H17.1253C16.1112 10.5262 15.2801 9.59229 15.2028 8.814L15.382 8.42716C15.4895 8.19448 15.5466 7.9367 15.5477 7.68069L18.0078 6.83628L18.3704 3.21888L20.3884 1.54349L19.9338 1.00035L17.6937 2.86103L17.3467 6.31577L15.4089 6.9809C15.3376 6.81047 15.2354 6.65806 15.118 6.51874C15.3706 6.40983 15.5484 6.15948 15.5484 5.86846C15.5484 4.89356 14.7525 4.10042 13.7742 4.10042H13.4194C13.4027 4.10042 13.3871 4.10431 13.3704 4.10537C13.3214 3.91407 13.2331 3.74045 13.1149 3.58911L13.4087 2.41832L12.7203 2.24646L12.4975 3.13402C12.3424 3.07567 12.1756 3.0396 12 3.0396C11.8244 3.0396 11.6576 3.07567 11.5022 3.13402L11.2793 2.24646L10.5913 2.41832L10.8851 3.58911C10.7666 3.74045 10.6786 3.91407 10.6296 4.10537C10.6129 4.10431 10.5973 4.10042 10.5806 4.10042H10.2258C9.24752 4.10042 8.45161 4.89356 8.45161 5.86846C8.45161 6.15948 8.62939 6.40983 8.88203 6.51839C8.76458 6.65771 8.66239 6.81011 8.59106 6.98055L6.65329 6.31542L6.30626 2.86068L4.06616 1L3.61126 1.54314L5.62923 3.21853L5.99187 6.83593L8.45197 7.68034C8.45339 7.93635 8.51016 8.19378 8.61768 8.4268L8.79687 8.81365C8.71952 9.59158 7.88848 10.5255 6.87435 11.5258H5.42413L3.64994 9.40417H1V10.1114H3.31745L5.09165 12.233H6.14516C4.39865 13.9127 2.41935 15.8161 2.41935 17.8911C2.41935 20.8136 3.77023 21.4272 4.90323 21.4272C5.37445 21.4272 6.08129 21.1605 6.83745 20.6941L7.01097 21.3861L6.35984 22.6835L6.99464 23L7.76287 21.4685L7.46232 20.2698C8.06697 19.8211 8.6709 19.2595 9.18435 18.6149C9.41642 19.2263 9.70135 19.745 10.0356 20.1616C10.5008 20.7412 11.2162 21.0735 12.0021 21.0735C12.7838 21.0735 13.4992 20.7412 13.9644 20.1616C14.2983 19.7454 14.5825 19.2256 14.8146 18.6139C15.328 19.2588 15.9323 19.8207 16.5377 20.2698L16.2371 21.4685L17.0054 23L17.6402 22.6835L16.989 21.3861L17.1625 20.6941C17.9187 21.1605 18.6255 21.4272 19.0968 21.4272C20.2298 21.4272 21.5806 20.8136 21.5806 17.8911C21.5806 15.8161 19.6014 13.9127 17.8548 12.2334H18.9084L20.6825 10.1117ZM10.2613 6.57567V6.57213C10.7126 6.55693 11.0902 6.26167 11.2296 5.85431V5.86846H12.7711V5.85431C12.9102 6.26131 13.2877 6.55693 13.7394 6.57213V6.57567C14.3458 6.57567 14.8394 7.06754 14.8394 7.67185C14.8394 7.82921 14.8043 7.98798 14.7383 8.13119L13.1891 11.476C12.9755 11.936 12.5088 12.2334 12 12.2334C11.4912 12.2334 11.0245 11.936 10.8116 11.4756L9.26242 8.13119C9.19642 7.98798 9.16129 7.82885 9.16129 7.67185C9.16129 7.06754 9.65487 6.57567 10.2613 6.57567ZM13.4261 14.355H10.5735C10.5512 13.2281 10.4756 12.6354 10.4007 12.1478C10.7779 12.6376 11.3655 12.9406 12 12.9406C12.6345 12.9406 13.2221 12.6376 13.5993 12.1478C13.524 12.6354 13.4485 13.2281 13.4261 14.355ZM10.5806 15.0622H13.4194C13.4194 15.5474 13.502 16.0205 13.6447 16.4767H10.3553C10.498 16.0205 10.5806 15.5474 10.5806 15.0622ZM13.7742 4.80764C14.3611 4.80764 14.8387 5.28359 14.8391 5.86846H13.7742C13.5783 5.86846 13.4194 5.70969 13.4194 5.51485V5.16124V4.80764H13.7742ZM12.7097 4.45403V4.80764V5.16124H11.2903V4.80764V4.45403C11.2903 4.064 11.6086 3.74682 12 3.74682C12.3914 3.74682 12.7097 4.064 12.7097 4.45403ZM10.2258 4.80764H10.5806V5.16124V5.51485C10.5806 5.70969 10.4217 5.86846 10.2258 5.86846H9.16129C9.16129 5.28359 9.6389 4.80764 10.2258 4.80764ZM4.90323 20.7199C4.14174 20.7199 3.12903 20.4268 3.12903 17.8911C3.12903 16.116 4.99371 14.3232 6.6391 12.7415C7.70255 11.7189 8.66629 10.7921 9.16271 9.89675C9.00658 10.9738 7.95732 12.1453 6.93787 13.2815C5.71261 14.6478 4.44548 16.0605 4.44548 17.5537C4.44548 18.7507 5.1069 19.6952 5.13494 19.7348L5.71474 19.3267C5.70906 19.319 5.15516 18.5198 5.15516 17.5537C5.15516 16.331 6.33074 15.0202 7.46729 13.7528C7.60568 13.5987 7.74442 13.4434 7.8821 13.2878C7.82994 13.3699 7.77777 13.4519 7.72561 13.5332C7.01416 14.6414 6.34245 15.6881 6.32294 16.8243C6.313 17.4144 6.50497 18.0806 6.8779 18.7504L7.49816 18.407C7.18555 17.8458 7.02445 17.3023 7.03226 16.8363C7.04823 15.9006 7.66742 14.9356 8.32316 13.9144C8.80787 13.1591 9.3011 12.3868 9.59703 11.5665C9.61974 11.7443 9.64494 11.9081 9.67119 12.0732C9.76452 12.6662 9.87097 13.338 9.87097 15.0622C9.87097 18.1103 6.08413 20.7199 4.90323 20.7199ZM11.9979 20.3663C11.4415 20.3663 10.9149 20.1245 10.5899 19.7199C10.4887 19.5937 10.3929 19.4547 10.3014 19.3055H13.6983C13.6071 19.4547 13.5109 19.5937 13.4094 19.7196C13.0851 20.1245 12.5585 20.3663 11.9979 20.3663ZM14.0517 18.5983H9.94797C9.85535 18.3794 9.76913 18.1471 9.69213 17.8967C9.83619 17.6662 9.96713 17.4286 10.0814 17.1839H13.919C14.0329 17.4282 14.1638 17.6658 14.3075 17.8957C14.2302 18.1464 14.1443 18.3794 14.0517 18.5983ZM20.871 17.8911C20.871 20.4268 19.8583 20.7199 19.0968 20.7199C17.9159 20.7199 14.129 18.1103 14.129 15.0622C14.129 13.338 14.2355 12.6662 14.3288 12.0732C14.3551 11.9077 14.3803 11.7443 14.403 11.5665C14.6985 12.3868 15.1918 13.1591 15.6768 13.9144C16.3326 14.936 16.9518 15.9006 16.9677 16.8363C16.9755 17.3023 16.8145 17.8455 16.5018 18.407L17.1221 18.7504C17.4954 18.0806 17.6874 17.4148 17.6771 16.8243C17.6575 15.6885 16.9858 14.6414 16.2744 13.5332C16.2222 13.4519 16.1701 13.3699 16.1179 13.2878C16.2556 13.4434 16.3943 13.5983 16.5327 13.7528C17.6693 15.0202 18.8448 16.3306 18.8448 17.5537C18.8448 18.5198 18.2906 19.319 18.2856 19.326L18.8651 19.7348C18.8931 19.6952 19.5545 18.7507 19.5545 17.5537C19.5545 16.0608 18.2874 14.6478 17.0621 13.2815C16.043 12.1453 14.9934 10.9738 14.8373 9.89675C15.3341 10.7921 16.2975 11.7189 17.3609 12.7415C19.0063 14.3232 20.871 16.116 20.871 17.8911Z" fill="black"/>
</svg>
