<svg width="24" height="24" viewBox="0 0 24 24" fill="none" xmlns="http://www.w3.org/2000/svg">
<g clip-path="url(#clip0_1282_5250)">
<path d="M11.0625 19.3125C10.8038 19.3125 10.5938 19.5225 10.5938 19.7812C10.5938 20.04 10.8038 20.25 11.0625 20.25C11.3213 20.25 11.5312 20.04 11.5312 19.7812C11.5312 19.5225 11.3213 19.3125 11.0625 19.3125Z" fill="black"/>
<path d="M22.1248 10.5938H19.4L22.0191 7.49836C22.529 7.72673 23.1592 7.63842 23.5878 7.20862C24.1374 6.65901 24.1374 5.76965 23.5878 5.22009L20.9357 2.56795C20.3911 2.02476 19.5043 2.01314 18.9476 2.56842C18.5243 2.9917 18.4282 3.61983 18.6585 4.13653L11.0272 10.5938H1.875C0.841125 10.5938 0 11.4349 0 12.4688C0 13.2538 0.488625 13.9533 1.21945 14.2214C1.24758 17.7107 3.53437 20.7608 6.8437 21.7746V22.5937C6.8437 23.3691 7.47455 24 8.24995 24H15.7499C16.5253 24 17.1561 23.3691 17.1561 22.5937V21.7746C20.4654 20.7607 22.7522 17.7107 22.7804 14.2213C23.5112 13.9533 23.9998 13.2538 23.9998 12.4688C23.9998 11.4349 23.1586 10.5938 22.1248 10.5938ZM19.6101 3.23175C19.7956 3.04673 20.0906 3.04922 20.2732 3.23128L22.9248 5.883C23.1056 6.06375 23.1106 6.35986 22.9244 6.54614C22.7422 6.7289 22.4448 6.72886 22.2626 6.54614C22.2625 6.54605 22.2625 6.546 22.2624 6.54591C22.2623 6.54581 22.2622 6.54576 22.2622 6.54567L19.6105 3.894C19.6104 3.89395 19.6104 3.89395 19.6104 3.89391C19.4278 3.71119 19.4279 3.41395 19.6101 3.23175ZM19.2526 4.86187L21.2944 6.90365L18.1719 10.5938H12.4784L19.2526 4.86187ZM16.2186 22.5937C16.2186 22.8522 16.0083 23.0625 15.7499 23.0625H8.24991C7.99144 23.0625 7.78116 22.8522 7.78116 22.5937V22.0002C8.24372 22.0825 8.71448 22.125 9.18741 22.125H14.8124C15.2853 22.125 15.756 22.0825 16.2186 22.0002V22.5937ZM16.5706 20.966C15.9993 21.113 15.4077 21.1875 14.8124 21.1875H9.18741C8.59205 21.1875 8.00048 21.113 7.42913 20.966C4.3852 20.1832 2.24128 17.4712 2.15873 14.3391H21.8411C21.7585 17.4712 19.6146 20.1832 16.5706 20.966ZM22.4407 13.3476C22.4368 13.3489 22.4328 13.3503 22.4289 13.3518C22.3283 13.3895 22.2345 13.4063 22.1248 13.4063H1.875C1.38211 13.4063 0.9375 13.0068 0.9375 12.4688C0.9375 11.9519 1.35806 11.5313 1.875 11.5313H22.1248C22.6418 11.5313 23.0623 11.9519 23.0623 12.4688C23.0623 12.8662 22.8125 13.2194 22.4407 13.3476Z" fill="black"/>
<path d="M9.18631 19.3125C7.00714 19.3125 5.05348 17.931 4.32476 15.8748C4.23823 15.6307 3.9702 15.5031 3.72636 15.5895C3.48232 15.6759 3.35464 15.9439 3.44112 16.1879C4.30217 18.6176 6.61095 20.25 9.18631 20.25C9.44515 20.25 9.65506 20.0402 9.65506 19.7813C9.65506 19.5224 9.44515 19.3125 9.18631 19.3125Z" fill="black"/>
<path d="M11.3939 7.6372L10.5937 6.83705V5.15625C10.5937 2.31309 8.28061 0 5.4375 0H3.5625C3.30366 0 3.09375 0.209859 3.09375 0.46875V2.34375C3.09375 5.18686 5.40684 7.49995 8.24995 7.49995H9.93075L10.731 8.30016C10.914 8.4832 11.2108 8.4832 11.3939 8.30016C11.577 8.11711 11.577 7.8203 11.3939 7.6372ZM9.6562 5.8995L5.76895 2.01225C5.58586 1.8292 5.28914 1.8292 5.106 2.01225C4.92295 2.1953 4.92295 2.49211 5.106 2.6752L8.99325 6.56245H8.24995C5.92373 6.56245 4.03125 4.66992 4.03125 2.34375V0.9375H5.4375C7.76372 0.9375 9.6562 2.83003 9.6562 5.1562V5.8995Z" fill="black"/>
<path d="M12.9375 0C12.1621 0 11.5312 0.630844 11.5312 1.40625C11.5312 2.18166 12.1621 2.8125 12.9375 2.8125C13.7129 2.8125 14.3438 2.18166 14.3438 1.40625C14.3438 0.630844 13.7129 0 12.9375 0ZM12.9375 1.875C12.679 1.875 12.4688 1.66472 12.4688 1.40625C12.4688 1.14778 12.679 0.9375 12.9375 0.9375C13.196 0.9375 13.4063 1.14778 13.4063 1.40625C13.4063 1.66472 13.196 1.875 12.9375 1.875Z" fill="black"/>
</g>
<defs>
<clipPath id="clip0_1282_5250">
<rect width="24" height="24" fill="white"/>
</clipPath>
</defs>
</svg>
