<svg width="24" height="24" viewBox="0 0 24 24" fill="none" xmlns="http://www.w3.org/2000/svg">
<g clip-path="url(#clip0_1165_6672)">
<path d="M8.69922 14.2005C8.69922 15.2129 10.5432 16.0338 12.3659 16.0338C14.1886 16.0338 15.6659 13.7462 15.6659 12.7339C15.6659 12.3672 14.1886 12.3672 12.3659 12.3672C10.5432 12.3672 8.69922 13.1882 8.69922 14.2005Z" fill="#F5F5F5"/>
<path d="M22.6346 14.2005C22.6346 15.4839 19.8168 16.2377 18.561 15.9935C17.5193 15.8238 16.5326 14.8316 16.0346 13.8852C15.8253 13.5348 15.6998 13.1408 15.668 12.7339C15.668 12.4999 16.2946 12.4405 16.5333 12.4222C17.1368 12.365 18.3047 12.3672 18.968 12.3672C20.7903 12.3672 22.6346 13.1885 22.6346 14.2005Z" fill="#CFD8DC"/>
<path d="M21.5346 14.2001C21.5346 15.0838 20.1303 15.8208 18.561 15.9931C17.0943 15.7544 15.668 13.8045 15.668 12.7335C15.668 12.3444 17.5321 12.3705 17.9706 12.3705C19.76 12.3961 21.5346 13.2065 21.5346 14.2001Z" fill="#F5F5F5"/>
<path d="M1.17233 20.7443C4.36087 22.7389 4.1504 22.6333 4.3 22.6333C4.4496 22.6333 4.26333 22.721 7.23333 20.8656C10.2096 22.7257 10.02 22.6333 10.1667 22.6333C10.3133 22.6333 10.1667 22.6982 12.5647 21.1989C12.7368 21.0915 12.7892 20.8649 12.6818 20.6928C12.5744 20.5206 12.3478 20.4682 12.1756 20.5756L10.1667 21.8344L7.6 20.2302V17.7031L8.9387 16.8649C9.11083 16.7574 9.1632 16.5307 9.05567 16.3586C8.94814 16.1864 8.72143 16.1341 8.5493 16.2416L7.23333 17.0673L4.66667 15.4635V12.9365L7.23333 11.3327C8.66333 12.2284 8.5691 12.1819 8.6714 12.2028C8.84334 12.2348 9.01398 12.141 9.07898 11.9786C9.14399 11.8162 9.08526 11.6305 8.9387 11.5351L7.6 10.6969V8.1698L10.1667 6.56563L12.7333 8.1698V8.7C12.7333 8.90251 12.8975 9.06667 13.1 9.06667C13.3025 9.06667 13.4667 8.90251 13.4667 8.7V8.1698L16.0333 6.56563L18.6 8.1698V10.9C18.6 11.1025 18.7642 11.2667 18.9667 11.2667C19.1692 11.2667 19.3333 11.1025 19.3333 10.9V7.96667C19.3333 7.84024 19.2682 7.72274 19.161 7.65574L16.4 5.9302V3.2C16.4 3.07358 16.3349 2.95607 16.2277 2.88907L13.2943 1.05573C13.1754 0.981422 13.0246 0.981422 12.9057 1.05573L10.1667 2.7677L7.42767 1.05573C7.30877 0.981422 7.1579 0.981422 7.039 1.05573L4.10567 2.88907C3.99846 2.95607 3.93333 3.07358 3.93333 3.2V5.9302L1.17233 7.65574C1.06513 7.72274 1 7.84024 1 7.96667V10.9C1 11.0264 1.06513 11.1439 1.17233 11.2109L3.93333 12.9365V15.4635L1.17233 17.1891C1.06513 17.2561 1 17.3736 1 17.5V20.4333C1 20.5598 1.06513 20.6773 1.17233 20.7443ZM10.5333 3.40313L13.1 1.79897L15.6667 3.40313V5.9302L13.1 7.53437L10.5333 5.9302V3.40313ZM4.66667 3.40313L7.23333 1.79897L9.8 3.40313V5.9302L7.23333 7.53437L4.66667 5.9302V3.40313ZM1.73333 10.6969V8.1698L4.3 6.56563L6.86667 8.1698V10.6969L4.3 12.301L1.73333 10.6969ZM1.73333 17.7031L4.3 16.099L6.86667 17.7031V20.2302L4.3 21.8344L1.73333 20.2302V17.7031Z" fill="black"/>
<path d="M17.8653 12.0042V11.6331C17.8653 10.9908 17.5839 10.3807 17.0954 9.96369L17.462 9.23036C17.5505 9.04941 17.4764 8.831 17.2961 8.74117C17.1159 8.65134 16.8969 8.72372 16.8057 8.90329L16.4658 9.58566C15.9527 9.38285 15.3817 9.38285 14.8686 9.58566L14.5287 8.90292C14.4709 8.78463 14.3541 8.70642 14.2227 8.69802C14.0913 8.68961 13.9654 8.75231 13.893 8.86228C13.8206 8.97225 13.8127 9.1126 13.8724 9.22999L14.239 9.96332C13.749 10.3797 13.4662 10.9901 13.4654 11.6331V12.0031C13.1317 11.9998 12.7687 11.9998 12.3654 11.9998C10.4176 11.9998 8.33203 12.8838 8.33203 14.1998C8.33203 15.7794 11.3112 16.6121 12.7933 16.3598C12.7793 16.4812 12.7705 16.6022 12.7588 16.7239C12.7552 16.7379 12.7524 16.7521 12.7504 16.7665C12.7504 16.776 12.7551 16.7841 12.7559 16.7936C12.7449 16.9678 12.732 17.1419 12.732 17.3165C12.732 19.8831 13.832 21.9295 15.2987 22.2258V22.6331C15.2987 22.8356 15.4628 22.9998 15.6654 22.9998C15.8679 22.9998 16.032 22.8356 16.032 22.6331V22.2258C17.4987 21.9295 18.5987 19.8817 18.5987 17.3165C18.5987 17.1419 18.5858 16.9678 18.5748 16.7936C18.5748 16.7841 18.5803 16.776 18.5803 16.7665C18.5803 16.7511 18.573 16.7382 18.5719 16.7236C18.5602 16.6026 18.5517 16.4823 18.5378 16.3617C20.0393 16.6114 22.9987 15.7765 22.9987 14.1998C22.9987 12.8838 20.9131 11.9998 18.9653 11.9998C18.5803 11.9998 18.2096 11.9998 17.8653 12.0042ZM14.1987 11.6331C14.1987 10.8231 14.8553 10.1665 15.6654 10.1665C16.4754 10.1665 17.132 10.8231 17.132 11.6331V12.0189C16.6358 12.0106 16.1415 12.0819 15.6679 12.2301C15.1938 12.0764 14.6969 12.0046 14.1987 12.0178V11.6331ZM16.2986 14.9331H15.031C15.278 14.6375 15.4915 14.3155 15.6676 13.9728C15.8394 14.3166 16.0512 14.639 16.2986 14.9331ZM12.3654 15.6665C10.5881 15.6665 9.06536 14.8598 9.06536 14.1998C9.06536 13.5398 10.5881 12.7331 12.3654 12.7331C13.0987 12.7331 14.8334 12.7199 15.2888 12.8644C15.1634 13.7462 13.8856 15.6665 12.3654 15.6665ZM17.5871 19.3331H17.132C16.9295 19.3331 16.7654 19.4973 16.7654 19.6998C16.7654 19.9023 16.9295 20.0665 17.132 20.0665H17.3154C16.4233 22.0208 14.9078 22.0201 14.0154 20.0665H15.6654C15.8679 20.0665 16.032 19.9023 16.032 19.6998C16.032 19.4973 15.8679 19.3331 15.6654 19.3331H13.7437C13.6738 19.092 13.6175 18.8472 13.575 18.5998H17.7554C17.7129 18.8472 17.6567 19.092 17.5871 19.3331ZM17.8437 17.8665H13.4874C13.4633 17.6228 13.4588 17.3775 13.4738 17.1331H13.832C14.0345 17.1331 14.1987 16.969 14.1987 16.7665C14.1987 16.564 14.0345 16.3998 13.832 16.3998H13.527C13.5387 16.3026 13.5515 16.2055 13.5669 16.109C13.8191 15.9878 14.0572 15.8394 14.2772 15.6665H17.0473C17.2694 15.8419 17.51 15.9925 17.7649 16.1156C17.7795 16.2099 17.7924 16.3048 17.8038 16.3998H15.2987C15.0962 16.3998 14.932 16.564 14.932 16.7665C14.932 16.969 15.0962 17.1331 15.2987 17.1331H17.8569C17.8729 17.3775 17.8684 17.6228 17.8433 17.8665H17.8437ZM22.2653 14.1998C22.2653 15.1117 19.5392 16.0295 18.2349 15.5235C17.1454 15.0097 16.3418 14.0368 16.043 12.8699C16.5699 12.7111 18.1587 12.7383 18.9653 12.7331C20.7426 12.7331 22.2653 13.5398 22.2653 14.1998Z" fill="black"/>
</g>
<defs>
<clipPath id="clip0_1165_6672">
<rect width="22" height="22" fill="white" transform="translate(1 1)"/>
</clipPath>
</defs>
</svg>
