<svg width="24" height="24" viewBox="0 0 24 24" fill="none" xmlns="http://www.w3.org/2000/svg">
<mask id="path-1-inside-1_1165_6836" fill="white">
<path fill-rule="evenodd" clip-rule="evenodd" d="M10.8089 4.89205C10.4179 5.92373 9.52724 6.1471 8.7267 5.99673C8.5747 5.96818 8.44641 5.8703 8.33922 5.71985C7.55732 7.14504 7.16891 7.17196 5.98711 7.17247C5.79752 8.7163 4.58689 8.79723 3.65807 8.68423C2.71819 8.56988 2.03794 7.42669 2.20498 5.82899C2.37201 4.2313 3.75617 2.41158 4.69606 2.52593C4.73747 2.53097 4.77807 2.54137 4.81785 2.5568C5.54926 0.983824 7.44651 -0.073371 8.46091 0.230348C8.56352 0.261069 8.65149 0.31402 8.72628 0.386317C9.39433 -0.0457723 10.3545 -0.0509505 10.9583 0.0624654C11.2742 0.121807 11.4042 0.45492 11.4284 0.928702C11.9172 0.586823 12.5763 0.549739 13.0517 0.679151C13.4357 0.783701 13.4983 1.22286 13.4312 1.78348C13.677 1.48613 13.9963 1.29771 14.3022 1.34724C14.9257 1.44819 15.3347 2.22409 15.2156 3.08026C15.0965 3.93642 14.1909 4.56602 13.5673 4.46506C13.1978 4.40523 13.025 4.17367 12.9704 3.81675C12.6291 4.80757 11.8186 5.34492 11.1311 5.15774C10.9953 5.12078 10.8895 5.0273 10.8089 4.89205Z"/>
</mask>
<path d="M8.7267 5.99673L8.9113 5.01392L8.9113 5.01392L8.7267 5.99673ZM10.8089 4.89205L11.6679 4.38017L10.6077 2.60091L9.87377 4.53769L10.8089 4.89205ZM8.33922 5.71985L9.15363 5.13957L8.22896 3.84181L7.46249 5.23885L8.33922 5.71985ZM5.98711 7.17247L5.98668 6.17247L5.10235 6.17285L4.99456 7.05058L5.98711 7.17247ZM3.65807 8.68423L3.77885 7.69155H3.77885L3.65807 8.68423ZM2.20498 5.82899L3.19956 5.93297L2.20498 5.82899ZM4.69606 2.52593L4.57528 3.51861L4.57528 3.51861L4.69606 2.52593ZM4.81785 2.5568L4.45628 3.48914L5.32965 3.82784L5.72462 2.97843L4.81785 2.5568ZM8.46091 0.230348L8.17408 1.18833L8.46091 0.230348ZM8.72628 0.386317L8.03128 1.10533L8.60241 1.65738L9.26938 1.22599L8.72628 0.386317ZM10.9583 0.0624654L10.7737 1.04528L10.7737 1.04528L10.9583 0.0624654ZM11.4284 0.928702L10.4297 0.979717L10.5218 2.78315L12.0015 1.74815L11.4284 0.928702ZM13.0517 0.679151L12.789 1.64404L13.0517 0.679151ZM13.4312 1.78348L12.4383 1.66462L12.0339 5.04256L14.2018 2.42073L13.4312 1.78348ZM14.3022 1.34724L14.1423 2.33438H14.1423L14.3022 1.34724ZM15.2156 3.08026L16.2061 3.21805V3.21805L15.2156 3.08026ZM13.5673 4.46506L13.7271 3.47792L13.7271 3.47792L13.5673 4.46506ZM12.9704 3.81675L13.9589 3.66543L12.0249 3.4911L12.9704 3.81675ZM11.1311 5.15774L11.3937 4.19286L11.1311 5.15774ZM8.54209 6.97955C9.08599 7.08171 9.72559 7.07037 10.3293 6.8007C10.9587 6.5195 11.46 5.99572 11.744 5.24642L9.87377 4.53769C9.76676 4.82006 9.62725 4.92381 9.5135 4.97462C9.37395 5.03696 9.16795 5.06213 8.9113 5.01392L8.54209 6.97955ZM7.5248 6.30013C7.72858 6.58613 8.05801 6.88862 8.54209 6.97955L8.9113 5.01392C8.99416 5.02948 9.05997 5.06304 9.10398 5.09502C9.14449 5.12445 9.15855 5.14647 9.15363 5.13957L7.5248 6.30013ZM5.98754 8.17247C6.51473 8.17224 7.18195 8.18766 7.78819 7.86036C8.40694 7.52632 8.81637 6.92915 9.21594 6.20085L7.46249 5.23885C7.08016 5.93574 6.90444 6.06462 6.83806 6.10046C6.75918 6.14305 6.64129 6.17218 5.98668 6.17247L5.98754 8.17247ZM4.99456 7.05058C4.96276 7.30955 4.89664 7.4418 4.85222 7.50582C4.81106 7.56515 4.76187 7.60515 4.68947 7.63773C4.50588 7.72034 4.20009 7.7428 3.77885 7.69155L3.5373 9.67691C4.04488 9.73866 4.80881 9.77716 5.51014 9.4616C6.31021 9.1016 6.84769 8.36889 6.97965 7.29435L4.99456 7.05058ZM3.77885 7.69155C3.70794 7.68292 3.55139 7.6283 3.39871 7.34213C3.24452 7.05315 3.13228 6.5765 3.19956 5.93297L1.2104 5.72501C1.11064 6.67919 1.25501 7.57298 1.63415 8.2836C2.01481 8.99704 2.66832 9.57118 3.5373 9.67691L3.77885 7.69155ZM3.19956 5.93297C3.26036 5.35139 3.55969 4.66556 3.95821 4.13874C4.15422 3.87963 4.34468 3.69878 4.49523 3.59664C4.66229 3.48329 4.67975 3.53132 4.57528 3.51861L4.81683 1.53325C4.24242 1.46336 3.7344 1.69597 3.37237 1.94159C2.99382 2.19841 2.65158 2.55091 2.36318 2.93215C1.7929 3.68602 1.31663 4.7089 1.2104 5.72501L3.19956 5.93297ZM4.57528 3.51861C4.5298 3.51307 4.48968 3.50209 4.45628 3.48914L5.17942 1.62445C5.06647 1.58065 4.94513 1.54886 4.81683 1.53325L4.57528 3.51861ZM8.74774 -0.727634C7.83335 -1.00141 6.79229 -0.640131 6.01205 -0.163613C5.18281 0.342826 4.37427 1.13904 3.91108 2.13516L5.72462 2.97843C5.99284 2.40158 6.49863 1.88271 7.05447 1.54324C7.65931 1.17385 8.07408 1.15839 8.17408 1.18833L8.74774 -0.727634ZM9.42129 -0.332692C9.23578 -0.512004 9.00915 -0.649364 8.74774 -0.727634L8.17408 1.18833C8.14855 1.18068 8.12151 1.16917 8.09508 1.15354C8.06878 1.13799 8.04748 1.12098 8.03128 1.10533L9.42129 -0.332692ZM11.1429 -0.920347C10.4309 -1.05409 9.16402 -1.08775 8.18319 -0.453355L9.26938 1.22599C9.42858 1.12302 9.66775 1.0456 9.96891 1.01456C10.2649 0.984045 10.559 1.00496 10.7737 1.04528L11.1429 -0.920347ZM12.4271 0.877687C12.4121 0.583406 12.3619 0.222186 12.1971 -0.107267C12.0121 -0.476908 11.6684 -0.821637 11.1429 -0.920347L10.7737 1.04528C10.6906 1.02966 10.6018 0.990665 10.5256 0.927854C10.4541 0.868918 10.4202 0.811093 10.4084 0.787604C10.3976 0.766061 10.4022 0.76719 10.4101 0.805241C10.4177 0.841989 10.4256 0.89885 10.4297 0.979717L12.4271 0.877687ZM13.3143 -0.285735C12.6232 -0.473877 11.6415 -0.440668 10.8552 0.109258L12.0015 1.74815C12.0881 1.68763 12.213 1.63907 12.3697 1.6194C12.5276 1.59956 12.6796 1.61426 12.789 1.64404L13.3143 -0.285735ZM14.4241 1.90234C14.4623 1.58276 14.483 1.17256 14.372 0.784951C14.2441 0.338366 13.9191 -0.121088 13.3143 -0.285735L12.789 1.64404C12.7105 1.62267 12.6181 1.57277 12.5429 1.49006C12.4742 1.41463 12.453 1.34855 12.4493 1.33563C12.4462 1.32487 12.4531 1.34456 12.4544 1.40908C12.4556 1.47138 12.4513 1.55556 12.4383 1.66462L14.4241 1.90234ZM14.462 0.360091C13.639 0.226849 12.9987 0.737236 12.6605 1.14624L14.2018 2.42073C14.2291 2.3878 14.254 2.36314 14.2744 2.34586C14.2951 2.32838 14.3073 2.32158 14.3089 2.32074C14.313 2.31859 14.2502 2.35184 14.1423 2.33438L14.462 0.360091ZM16.2061 3.21805C16.2917 2.60215 16.1939 1.98001 15.922 1.46427C15.6517 0.951384 15.162 0.473424 14.462 0.360091L14.1423 2.33438C14.0659 2.32201 14.0925 2.28248 14.1527 2.39682C14.2115 2.50832 14.2586 2.7022 14.2251 2.94247L16.2061 3.21805ZM13.4075 5.45221C14.0864 5.56212 14.7449 5.27562 15.1999 4.91674C15.6757 4.54149 16.1036 3.95451 16.2061 3.21805L14.2251 2.94247C14.2085 3.06217 14.1241 3.21807 13.9613 3.34642C13.8846 3.40697 13.8104 3.44449 13.7547 3.46308C13.6953 3.48288 13.6879 3.47157 13.7271 3.47792L13.4075 5.45221ZM11.9819 3.96806C12.0269 4.26216 12.1359 4.61096 12.3981 4.91071C12.6735 5.22559 13.0349 5.3919 13.4075 5.45221L13.7271 3.47792C13.7231 3.47726 13.7468 3.4806 13.7853 3.50051C13.8259 3.52152 13.8678 3.55324 13.9034 3.59392C13.9732 3.6737 13.9685 3.72825 13.9589 3.66543L11.9819 3.96806ZM10.8684 6.12263C12.2767 6.50602 13.4855 5.39181 13.9159 4.14239L12.0249 3.4911C11.9139 3.81336 11.7428 4.01358 11.6023 4.11317C11.5329 4.16232 11.4777 4.18274 11.4437 4.1903C11.4116 4.19743 11.3972 4.19381 11.3937 4.19286L10.8684 6.12263ZM9.94982 5.40394C10.1251 5.69811 10.4193 6.00037 10.8684 6.12263L11.3937 4.19286C11.4734 4.21456 11.5413 4.2531 11.5921 4.29576C11.6399 4.33587 11.6623 4.37065 11.6679 4.38017L9.94982 5.40394Z" fill="black" mask="url(#path-1-inside-1_1165_6836)"/>
<path d="M4.85156 2.6385L5.31864 3.98214L5.63002 5.04585L5.83761 6.05359L5.9414 7.1173M8.74385 0.455078L8.53626 1.29485C8.53626 1.29485 8.53626 2.25191 8.53626 2.47054C8.53626 2.71104 8.64006 3.06982 8.64006 3.31032C8.64006 3.55082 8.64704 3.5738 8.64006 3.81418C8.63115 4.1209 8.58266 4.29116 8.58816 4.59797C8.59249 4.83942 8.58851 5.04823 8.53626 5.21381C8.47605 5.40463 8.32868 5.6057 8.32868 5.6057M11.3906 1.01493C11.3906 1.01493 11.0477 1.68594 10.9235 2.30259C10.8577 2.62941 10.8958 3.08886 10.8716 3.42229C10.8559 3.64026 10.8835 3.76388 10.8716 3.98214C10.8548 4.2908 10.8197 4.82191 10.8197 4.82191M13.3627 1.91069L13.2589 2.58251M13.2589 2.58251L12.9475 3.64623M13.2589 2.58251L13.4146 1.74273" stroke="black" stroke-width="0.75"/>
<mask id="path-4-inside-2_1165_6836" fill="white">
<path fill-rule="evenodd" clip-rule="evenodd" d="M16.5694 13.9841C15.8281 13.2074 15.9688 12.2325 16.3973 11.4876C16.4786 11.3462 16.6106 11.2544 16.7799 11.2034C15.8464 9.88808 15.9685 9.48947 16.4098 8.30627C15.154 7.53967 15.5367 6.29833 15.9809 5.41131C16.4304 4.51356 17.6675 4.26005 18.9789 5.02417C20.2902 5.7883 21.3377 7.85328 20.8882 8.75103C20.8683 8.79081 20.844 8.82774 20.8157 8.86194C21.8945 10.1816 22.0945 12.4747 21.4544 13.3761C21.3897 13.4672 21.3114 13.5354 21.2215 13.5832C21.3435 14.4132 20.9891 15.3761 20.666 15.938C20.497 16.2318 20.1622 16.2375 19.746 16.0849C19.8574 16.7017 19.643 17.3751 19.3541 17.8024C19.1207 18.1477 18.7197 18.0462 18.2627 17.7695C18.4264 18.1266 18.4691 18.5164 18.3123 18.804C17.9925 19.3902 17.1725 19.5095 16.4809 19.0704C15.7892 18.6313 15.5862 17.4899 15.906 16.9036C16.0956 16.5563 16.3592 16.4699 16.6865 16.5486C15.9622 15.8369 15.803 14.8252 16.2208 14.2072C16.3033 14.0852 16.4231 14.0143 16.5694 13.9841Z"/>
</mask>
<path d="M16.3973 11.4876L17.2453 12.0332L16.3973 11.4876ZM16.5694 13.9841L16.7955 14.983L18.5353 14.6245L17.254 13.2819L16.5694 13.9841ZM16.7799 11.2034L17.0866 12.1818L18.3917 11.7882L17.5627 10.6202L16.7799 11.2034ZM16.4098 8.30627L17.3271 8.70448L17.6309 7.89005L16.8836 7.43388L16.4098 8.30627ZM15.9809 5.41131L16.8557 5.90709L16.8557 5.90709L15.9809 5.41131ZM18.9789 5.02417L18.523 5.90727L18.9789 5.02417ZM20.8882 8.75103L20.0134 8.25525L20.0134 8.25525L20.8882 8.75103ZM20.8157 8.86194L20.0609 8.18187L19.5255 8.82827L20.0771 9.50304L20.8157 8.86194ZM21.4544 13.3761L20.6563 12.7525L20.6563 12.7525L21.4544 13.3761ZM21.2215 13.5832L20.748 12.6734L20.1473 12.9927L20.2512 13.6993L21.2215 13.5832ZM20.666 15.938L19.8179 15.3923L19.8179 15.3923L20.666 15.938ZM19.746 16.0849L20.0418 15.1264L18.4777 14.5529L18.7814 16.2354L19.746 16.0849ZM19.3541 17.8024L18.5433 17.1971L19.3541 17.8024ZM18.2627 17.7695L18.7332 16.8952L16.0444 15.2674L17.3791 18.1781L18.2627 17.7695ZM18.3123 18.804L19.1711 19.3304L18.3123 18.804ZM16.4809 19.0704L16.9699 18.2076L16.9699 18.2076L16.4809 19.0704ZM15.906 16.9036L16.7648 17.43L15.906 16.9036ZM16.6865 16.5486L16.4995 17.54L19.9362 18.366L17.3472 15.8221L16.6865 16.5486ZM16.2208 14.2072L17.0316 14.8125L17.0316 14.8125L16.2208 14.2072ZM15.5493 10.9419C15.0076 11.8837 14.6827 13.4267 15.8848 14.6863L17.254 13.2819C17.0789 13.0984 17.0278 12.9272 17.0262 12.7529C17.0244 12.5499 17.0938 12.2967 17.2453 12.0332L15.5493 10.9419ZM16.4733 10.2249C16.1343 10.3272 15.7791 10.5424 15.5493 10.9419L17.2453 12.0332C17.2156 12.0849 17.1773 12.1247 17.1409 12.1513C17.1069 12.1761 17.0842 12.1826 17.0866 12.1818L16.4733 10.2249ZM15.4925 7.90806C15.2928 8.44355 15.0492 9.06165 15.1007 9.74621C15.1549 10.4667 15.5099 11.1 15.9972 11.7866L17.5627 10.6202C17.1164 9.99145 17.0657 9.76778 17.0579 9.66436C17.0474 9.525 17.0855 9.35219 17.3271 8.70448L15.4925 7.90806ZM16.8836 7.43388C16.6975 7.32026 16.6249 7.22297 16.5939 7.16777C16.5628 7.11239 16.5406 7.04087 16.5394 6.93068C16.5365 6.67036 16.6498 6.31829 16.8557 5.90709L15.1061 4.91553C14.8678 5.39135 14.5677 6.10346 14.5764 6.87721C14.5809 7.28406 14.6708 7.72205 14.9072 8.14275C15.1437 8.56363 15.4942 8.90897 15.936 9.17866L16.8836 7.43388ZM16.8557 5.90709C16.9571 5.70453 17.4744 5.29623 18.523 5.90727L19.4347 4.14107C17.8607 3.22387 15.9037 3.32258 15.1061 4.91553L16.8557 5.90709ZM18.523 5.90727C18.9629 6.16356 19.4274 6.6939 19.7301 7.28693C19.8774 7.57537 19.9637 7.83555 19.9969 8.03431C20.0326 8.24785 19.9931 8.29585 20.0134 8.25525L21.763 9.24682C22.0081 8.75734 22.0062 8.21056 21.9309 7.76055C21.8532 7.29575 21.68 6.8236 21.4576 6.38806C21.0212 5.53313 20.3063 4.64891 19.4347 4.14107L18.523 5.90727ZM20.0134 8.25525C20.0279 8.22621 20.0445 8.20169 20.0609 8.18187L21.5704 9.54201C21.6435 9.4538 21.7086 9.35541 21.763 9.24681L20.0134 8.25525ZM22.2525 13.9997C22.7842 13.2509 22.871 12.1401 22.7533 11.1846C22.6304 10.1871 22.2531 9.07564 21.5543 8.22085L20.0771 9.50304C20.4571 9.96794 20.7192 10.6628 20.806 11.3671C20.898 12.1134 20.7647 12.5998 20.6563 12.7525L22.2525 13.9997ZM21.6949 14.4929C21.9152 14.3759 22.1037 14.2092 22.2525 13.9997L20.6563 12.7525C20.6648 12.7405 20.6773 12.7258 20.6943 12.7108C20.7113 12.6957 20.7297 12.6832 20.748 12.6734L21.6949 14.4929ZM21.514 16.4836C21.8827 15.8426 22.3637 14.6368 22.1917 13.4671L20.2512 13.6993C20.3233 14.1896 20.0956 14.9096 19.8179 15.3923L21.514 16.4836ZM19.4503 17.0434C19.7228 17.1433 20.0779 17.2352 20.4492 17.1901C20.8717 17.1387 21.2675 16.9122 21.514 16.4836L19.8179 15.3923C19.8469 15.342 19.8971 15.2819 19.9713 15.2344C20.0434 15.1882 20.1094 15.1723 20.1481 15.1676C20.1834 15.1633 20.1941 15.1683 20.1705 15.1641C20.1475 15.1601 20.1055 15.1498 20.0418 15.1264L19.4503 17.0434ZM20.1648 18.4078C20.5597 17.8237 20.8821 16.8842 20.7107 15.9344L18.7814 16.2354C18.8326 16.5193 18.7263 16.9265 18.5433 17.1971L20.1648 18.4078ZM17.7921 18.6439C18.0599 18.806 18.4327 18.9964 18.8441 19.0334C19.3376 19.0779 19.8371 18.8925 20.1648 18.4078L18.5433 17.1971C18.5727 17.1537 18.6338 17.0886 18.732 17.0446C18.8265 17.0024 18.9056 17.0018 18.9403 17.005C18.9698 17.0076 18.9668 17.0125 18.9221 16.9943C18.8791 16.9768 18.8169 16.9458 18.7332 16.8952L17.7921 18.6439ZM19.1711 19.3304C19.5437 18.6473 19.3827 17.8767 19.1462 17.361L17.3791 18.1781C17.4159 18.2582 17.4266 18.3164 17.4283 18.3428C17.4299 18.3672 17.4227 18.3341 17.4535 18.2776L19.1711 19.3304ZM15.9918 19.9333C16.9974 20.5717 18.5037 20.5538 19.1711 19.3304L17.4535 18.2776C17.4527 18.2789 17.4515 18.2819 17.4427 18.2877C17.4322 18.2945 17.4075 18.307 17.3638 18.3134C17.2736 18.3265 17.1286 18.3082 16.9699 18.2076L15.9918 19.9333ZM15.0472 16.3772C14.7342 16.9511 14.7236 17.6634 14.861 18.2478C15.0009 18.8431 15.3462 19.5235 15.9918 19.9333L16.9699 18.2076C16.9238 18.1783 16.8218 18.0684 16.7673 17.8367C16.7426 17.7313 16.7358 17.6297 16.7422 17.547C16.7488 17.4607 16.7671 17.426 16.7648 17.43L15.0472 16.3772ZM16.8735 15.5572C16.5752 15.4855 16.2106 15.4668 15.8449 15.6215C15.4746 15.778 15.2185 16.0634 15.0472 16.3772L16.7648 17.43C16.7831 17.3965 16.7536 17.465 16.6443 17.5112C16.5396 17.5555 16.4704 17.533 16.4995 17.54L16.8735 15.5572ZM15.4101 13.6018C14.6459 14.7322 15.0403 16.3068 16.0257 17.275L17.3472 15.8221C16.884 15.367 16.9601 14.9182 17.0316 14.8125L15.4101 13.6018ZM16.3433 12.9853C16.002 13.0556 15.6536 13.2416 15.4101 13.6018L17.0316 14.8125C16.9977 14.8626 16.9527 14.906 16.9024 14.9376C16.8541 14.9678 16.8143 14.9791 16.7955 14.983L16.3433 12.9853Z" fill="black" mask="url(#path-4-inside-2_1165_6836)"/>
<path d="M20.732 8.86482L19.4021 8.83013L18.3712 8.74424L17.4271 8.57542L16.4737 8.28181M21.155 13.5754L20.5105 13.0539C20.5105 13.0539 19.6876 12.6963 19.4996 12.6146C19.2928 12.5247 18.9455 12.4945 18.7387 12.4047C18.5319 12.3148 18.5096 12.3132 18.3055 12.2164C18.0451 12.0929 17.9168 11.9807 17.6509 11.8716C17.4417 11.7857 17.2637 11.7037 17.1408 11.5896C16.9992 11.458 16.8814 11.2354 16.8814 11.2354M19.6846 16.0146C19.6846 16.0146 19.2358 15.4208 18.752 15.0661C18.4956 14.8782 18.0863 14.7446 17.8086 14.5958C17.6271 14.4986 17.5105 14.4801 17.3272 14.3866C17.0681 14.2545 16.6246 14.0209 16.6246 14.0209M18.1775 17.6533L17.6387 17.2984M17.6387 17.2984L16.8404 16.5893M17.6387 17.2984L18.3026 17.768" stroke="black" stroke-width="0.75"/>
<mask id="path-7-inside-3_1165_6836" fill="white">
<path fill-rule="evenodd" clip-rule="evenodd" d="M6.28465 13.6201C7.28478 13.3366 7.9858 13.9708 8.35542 14.7519C8.42549 14.8999 8.43008 15.0691 8.38316 15.2517C9.90833 15.0702 10.1616 15.3891 10.8718 16.4079C12.1301 15.6435 12.9174 16.6391 13.3916 17.5082C13.8715 18.3874 13.4329 19.6608 12.1485 20.4765C10.8642 21.2922 8.6841 21.1916 8.20424 20.3123C8.18311 20.2736 8.16643 20.2323 8.15397 20.1888C6.5488 20.5032 4.62529 19.5019 4.24097 18.4445C4.20213 18.3376 4.18852 18.23 4.19713 18.1221C3.47593 17.8053 2.89561 16.9807 2.61704 16.392C2.47126 16.084 2.63997 15.7718 2.97642 15.4664C2.42898 15.2505 2.00519 14.704 1.81543 14.216C1.66222 13.822 1.95002 13.5042 2.40574 13.2254C2.0379 13.1918 1.70676 13.0297 1.55978 12.7363C1.26001 12.1379 1.58936 11.3191 2.2954 10.9075C3.00145 10.4959 4.01205 10.8987 4.31182 11.4972C4.48938 11.8517 4.4217 12.1396 4.19027 12.4011C5.12927 12.1006 6.01397 12.4768 6.28821 13.1821C6.34245 13.3215 6.33665 13.4691 6.28465 13.6201Z"/>
</mask>
<path d="M8.35542 14.7519L9.21728 14.269L9.21727 14.269L8.35542 14.7519ZM6.28465 13.6201L5.38077 13.279L4.74636 15.1206L6.51338 14.6197L6.28465 13.6201ZM8.38316 15.2517L7.45374 14.9957L7.08123 16.4451L8.47036 16.2797L8.38316 15.2517ZM10.8718 16.4079L10.0952 17.0379L10.5948 17.7545L11.3342 17.3054L10.8718 16.4079ZM13.3916 17.5082L14.2265 16.9723L14.2265 16.9723L13.3916 17.5082ZM8.20424 20.3123L7.36935 20.8481L7.36935 20.8481L8.20424 20.3123ZM8.15397 20.1888L9.07649 19.8672L8.83081 19.0085L7.99934 19.1714L8.15397 20.1888ZM4.24097 18.4445L3.34143 18.8369L3.34143 18.8369L4.24097 18.4445ZM4.19713 18.1221L5.15805 18.1897L5.21752 17.4448L4.57806 17.1638L4.19713 18.1221ZM2.61704 16.392L1.75518 16.8748L1.75518 16.8748L2.61704 16.392ZM2.97642 15.4664L3.59078 16.2502L4.85844 15.0995L3.32535 14.4948L2.97642 15.4664ZM1.81543 14.216L0.92416 14.6304L0.924161 14.6304L1.81543 14.216ZM2.40574 13.2254L2.87084 14.1212L5.56345 12.4735L2.50671 12.1947L2.40574 13.2254ZM1.55978 12.7363L2.41147 12.2326L2.41147 12.2326L1.55978 12.7363ZM2.2954 10.9075L1.84815 10.001L1.84815 10.001L2.2954 10.9075ZM4.31182 11.4972L3.46013 12.0009L3.46013 12.0009L4.31182 11.4972ZM4.19027 12.4011L3.49723 11.6969L1.02803 14.4862L4.44873 13.3917L4.19027 12.4011ZM6.28821 13.1821L7.17947 12.7676L7.17947 12.7676L6.28821 13.1821ZM9.21727 14.269C8.97552 13.7582 8.59996 13.2379 8.06137 12.8947C7.49899 12.5364 6.81001 12.4067 6.05592 12.6204L6.51338 14.6197C6.75941 14.55 6.92101 14.5956 7.05159 14.6788C7.20594 14.7771 7.3657 14.9645 7.49357 15.2347L9.21727 14.269ZM9.31257 15.5077C9.40552 15.1461 9.42137 14.7004 9.21728 14.269L7.49357 15.2347C7.46497 15.1743 7.45242 15.1132 7.45001 15.0632C7.44776 15.0167 7.45473 14.9919 7.45374 14.9957L9.31257 15.5077ZM11.6484 15.7779C11.3281 15.3184 10.9579 14.7644 10.3794 14.4532C9.77461 14.1279 9.08784 14.1295 8.29595 14.2237L8.47036 16.2797C9.20365 16.1924 9.4061 16.2627 9.48685 16.3061C9.59378 16.3636 9.70528 16.4785 10.0952 17.0379L11.6484 15.7779ZM11.3342 17.3054C11.5277 17.1878 11.6488 17.1696 11.7121 17.1695C11.7741 17.1693 11.8398 17.1862 11.9227 17.2387C12.122 17.365 12.338 17.6431 12.5568 18.044L14.2265 16.9723C13.971 16.5042 13.5563 15.8499 12.9287 15.4523C12.5983 15.2428 12.2016 15.0998 11.7472 15.1008C11.2943 15.1018 10.8451 15.2458 10.4094 15.5104L11.3342 17.3054ZM12.5568 18.044C12.6493 18.2136 12.7293 18.9163 11.6696 19.5893L12.6274 21.3638C14.1365 20.4053 15.0937 18.5613 14.2265 16.9723L12.5568 18.044ZM11.6696 19.5893C11.2286 19.8694 10.5604 20.0237 9.93299 19.9965C9.6269 19.9833 9.37667 19.9283 9.20415 19.8572C9.01751 19.7802 9.01002 19.7231 9.03913 19.7765L7.36935 20.8481C7.63839 21.3411 8.08335 21.6263 8.48057 21.7901C8.8919 21.9596 9.35694 22.0437 9.81639 22.0635C10.7201 22.1026 11.7841 21.8994 12.6274 21.3638L11.6696 19.5893ZM9.03913 19.7765C9.05639 19.8081 9.06847 19.8391 9.07649 19.8672L7.23146 20.5104C7.2644 20.6255 7.30983 20.7391 7.36935 20.8481L9.03913 19.7765ZM3.34143 18.8369C3.66704 19.7328 4.51708 20.3938 5.33736 20.7796C6.1974 21.1842 7.27466 21.4087 8.3086 21.2062L7.99934 19.1714C7.4281 19.2833 6.74103 19.1643 6.14194 18.8825C5.50309 18.5819 5.19922 18.2135 5.14052 18.052L3.34143 18.8369ZM3.23621 18.0546C3.21504 18.3199 3.24977 18.5847 3.34143 18.8369L5.14052 18.052C5.14672 18.0691 5.15257 18.091 5.15601 18.1167C5.15944 18.1424 5.15984 18.1672 5.15805 18.1897L3.23621 18.0546ZM1.75518 16.8748C2.07549 17.5517 2.78954 18.6294 3.8162 19.0805L4.57806 17.1638C4.39098 17.0817 4.17558 16.909 3.96139 16.6557C3.75154 16.4076 3.58318 16.1296 3.47889 15.9092L1.75518 16.8748ZM2.36205 14.6826C2.14503 14.8796 1.89358 15.1544 1.74029 15.5137C1.56613 15.9219 1.53528 16.4101 1.75518 16.8748L3.47889 15.9092C3.50704 15.9687 3.5295 16.0517 3.52879 16.1477C3.52811 16.2402 3.50626 16.3082 3.4915 16.3428C3.47807 16.3742 3.47062 16.3783 3.48838 16.3559C3.50556 16.3341 3.53756 16.2986 3.59078 16.2502L2.36205 14.6826ZM0.924161 14.6304C1.18735 15.3073 1.77495 16.1018 2.62748 16.4381L3.32535 14.4948C3.21649 14.4518 3.09073 14.3628 2.96878 14.2245C2.84696 14.0864 2.75676 13.9303 2.70669 13.8015L0.924161 14.6304ZM1.94064 12.3295C1.6756 12.4917 1.3395 12.7327 1.10337 13.0845C0.822432 13.5031 0.702474 14.0604 0.92416 14.6304L2.70669 13.8015C2.72884 13.8585 2.74861 13.9536 2.7326 14.0677C2.71742 14.176 2.67793 14.2454 2.6611 14.2705C2.6468 14.2918 2.648 14.283 2.68824 14.2489C2.72693 14.2161 2.78595 14.1732 2.87084 14.1212L1.94064 12.3295ZM0.708094 13.24C1.06814 13.9588 1.77877 14.208 2.30476 14.256L2.50671 12.1947C2.4671 12.1911 2.43347 12.1845 2.40666 12.1767C2.37967 12.169 2.36318 12.1612 2.35567 12.157C2.33958 12.1481 2.37724 12.1643 2.41147 12.2326L0.708094 13.24ZM1.84815 10.001C0.855788 10.5795 0.0682541 11.9627 0.708094 13.24L2.41147 12.2326C2.42358 12.2568 2.39677 12.2397 2.43477 12.1452C2.47389 12.048 2.5705 11.9143 2.74266 11.814L1.84815 10.001ZM5.16351 10.9935C4.86237 10.3923 4.29128 10.0098 3.75491 9.8339C3.20462 9.65346 2.49299 9.62508 1.84815 10.001L2.74266 11.814C2.80386 11.7783 2.95055 11.7455 3.15701 11.8132C3.25187 11.8443 3.33307 11.8894 3.39173 11.9352C3.45322 11.9832 3.46614 12.0129 3.46013 12.0009L5.16351 10.9935ZM4.88331 13.1052C5.08863 12.8733 5.2892 12.5525 5.35509 12.1375C5.42245 11.7133 5.32829 11.3224 5.16351 10.9935L3.46013 12.0009C3.46788 12.0163 3.46043 12.0062 3.45421 11.9726C3.44751 11.9365 3.44481 11.8868 3.45374 11.8305C3.47232 11.7135 3.52334 11.6674 3.49723 11.6969L4.88331 13.1052ZM7.17947 12.7676C6.6636 11.441 5.18661 11.0089 3.93181 11.4104L4.44873 13.3917C4.73197 13.3011 4.97594 13.3226 5.14431 13.3879C5.31579 13.4544 5.37874 13.5497 5.39694 13.5965L7.17947 12.7676ZM7.18853 13.9612C7.3078 13.6149 7.3444 13.1917 7.17947 12.7676L5.39694 13.5965C5.37236 13.5333 5.36093 13.4648 5.36197 13.4C5.36295 13.3382 5.37489 13.2961 5.38077 13.279L7.18853 13.9612Z" fill="black" mask="url(#path-7-inside-3_1165_6836)"/>
<path d="M8.19233 20.1113L8.90752 18.9013L9.50878 17.9938L10.1309 17.2094L10.8569 16.4809M4.23608 18.066L4.98313 17.7406C4.98313 17.7406 5.6924 17.1656 5.85442 17.0343C6.03266 16.8898 6.23619 16.5848 6.41443 16.4403C6.59266 16.2959 6.6055 16.276 6.78784 16.1377C7.0205 15.9611 7.1758 15.9006 7.39987 15.7116C7.5762 15.5628 7.73334 15.4408 7.88744 15.3864C8.06503 15.3237 8.30257 15.33 8.30257 15.33M3.06105 15.447C3.06105 15.447 3.76433 15.3397 4.2959 15.0763C4.57763 14.9367 4.89526 14.6279 5.15687 14.4485C5.32789 14.3311 5.40288 14.233 5.57177 14.1122C5.81063 13.9413 6.2253 13.6525 6.2253 13.6525M2.54023 13.2081L3.10046 12.8941M3.10046 12.8941L4.07583 12.5236M3.10046 12.8941L2.38459 13.2642" stroke="black" stroke-width="0.75"/>
<g clip-path="url(#clip0_1165_6836)">
<path d="M7.46832 9.8124C7.46716 9.81394 7.46601 9.81549 7.46486 9.81704M7.46832 9.8124L11.6547 12.1472M7.46832 9.8124L7.7039 9.98569M7.46832 9.8124L11.6073 12.0608C11.6068 12.0625 11.6064 12.0643 11.606 12.066C11.5214 12.4029 11.3269 12.8641 10.8848 12.9759M7.46486 9.81704C7.31882 10.0171 7.29203 10.2826 7.39031 10.6049C7.39038 10.6052 7.39044 10.6054 7.39051 10.6056C7.39085 10.6067 7.39119 10.6078 7.39154 10.609C7.66515 11.4957 8.54383 11.7062 9.04562 11.7527C9.04174 11.6682 9.04291 11.6118 9.04291 11.6135C9.04291 11.6639 9.05344 11.7118 9.07242 11.7551C9.14056 11.7608 9.201 11.7635 9.25107 11.7646C9.25347 11.8146 9.25785 11.8748 9.26553 11.9419C9.27798 11.9469 9.29077 11.9511 9.30386 11.9547C9.33331 11.9626 9.36429 11.9669 9.39625 11.9669H9.30386C9.29286 11.9669 9.28105 11.9668 9.26848 11.9666C9.30576 12.2681 9.40958 12.6963 9.69102 12.9906M7.46486 9.81704L7.70017 9.99084C7.61275 10.1138 7.60516 10.291 7.67457 10.518C7.67491 10.5191 7.67525 10.5202 7.67559 10.5213L7.39167 10.6089L7.67566 10.5215C7.9364 11.3588 8.89847 11.4591 9.25739 11.4664C9.27426 11.4667 9.2898 11.4669 9.30386 11.4669H9.39625C9.47724 11.4669 9.54291 11.5325 9.54291 11.6135C9.54291 11.6138 9.5429 11.6145 9.54288 11.6156C9.54274 11.6264 9.54207 11.676 9.54613 11.7504C9.55917 11.9894 9.62095 12.4849 9.9051 12.7821L9.69102 12.9906M7.46486 9.81704L7.70113 9.9895C7.70205 9.98822 7.70297 9.98695 7.7039 9.98569M9.69102 12.9906C9.69239 12.992 9.69377 12.9934 9.69515 12.9948C9.69533 12.995 9.69552 12.9952 9.6957 12.9953C9.90849 13.2112 10.2018 13.3286 10.5049 13.3191C10.5085 13.319 10.5121 13.319 10.5157 13.3189L10.5123 13.0258M9.69102 12.9906L9.90696 12.7841C9.90781 12.7849 9.90867 12.7858 9.90953 12.7867C10.0635 12.9445 10.2758 13.0311 10.4957 13.0263C10.4976 13.0262 10.4996 13.0262 10.5015 13.0261C10.5051 13.026 10.5087 13.0259 10.5123 13.0258M10.5123 13.0258L10.5248 13.3187C10.6666 13.3155 10.8075 13.296 10.9449 13.2604C10.9486 13.2595 10.9523 13.2585 10.956 13.2576L10.8848 12.9759M10.5123 13.0258C10.6336 13.0243 10.7544 13.0087 10.872 12.9791C10.8728 12.9789 10.8736 12.9787 10.8744 12.9785C10.8779 12.9777 10.8813 12.9768 10.8848 12.9759M10.8848 12.9759L10.9579 13.2571C11.3159 13.1629 11.5472 12.9076 11.6945 12.6315C11.6247 12.5838 11.5599 12.5264 11.502 12.4594L11.7322 12.2607C11.7029 12.2257 11.6769 12.1877 11.6547 12.1472M11.6547 12.1472L11.655 12.1476L11.7429 12.0993L12.0116 11.9516L12.012 11.9523L12.0934 11.9073C12.0933 11.9071 12.0933 11.907 12.0932 11.9068L12.0924 11.9054L12.0107 11.95C11.9808 11.8953 11.969 11.8329 11.9762 11.7717C11.9778 11.7576 11.9805 11.7435 11.9842 11.7296C11.9846 11.7281 11.985 11.7266 11.9854 11.7251C11.9859 11.7236 11.9863 11.7222 11.9868 11.7207C11.9873 11.7191 11.9878 11.7175 11.9883 11.716L11.9465 11.6399L11.9222 11.5959L11.6456 11.0953L11.6239 11.0702L11.5934 11.1957M11.6547 12.1472C11.6546 12.147 11.6545 12.1468 11.6544 12.1466L11.7416 12.0989L12.0115 11.9514L11.908 11.7644L11.8643 11.6853L11.7517 11.7475L11.6574 11.7996C11.6574 11.7993 11.6575 11.799 11.6575 11.7987L11.7508 11.7474L11.8642 11.6851L11.84 11.6413L11.5934 11.1957M11.5934 11.1957L11.1583 10.4092M11.5934 11.1957L11.5237 11.4829L10.889 10.3355L11.1583 10.4092M7.7039 9.98569C7.83305 9.8101 8.146 9.71779 8.61007 9.71588L8.62047 9.42841M7.7039 9.98569L7.46861 9.81202C7.66057 9.55724 8.04788 9.42841 8.62047 9.42841M8.62047 9.42841V9.71585C8.62194 9.71585 8.6234 9.71585 8.62487 9.71585C9.09761 9.71585 9.64176 9.80897 10.0675 9.90194L9.95875 9.71061L9.95526 9.70447L9.9553 9.70444C9.93182 9.66172 9.91161 9.61748 9.89475 9.57213C9.47601 9.49227 9.05151 9.44423 8.62487 9.42857C8.6234 9.42852 8.62194 9.42847 8.62047 9.42841ZM11.1583 10.4092L11.2858 10.4441L11.0006 9.92794L10.9742 9.8801L10.8577 9.66644L10.8056 9.57089L10.8044 9.56882C10.7739 9.56038 10.7383 9.5507 10.6982 9.54006M11.1583 10.4092L10.6825 9.5491M10.6825 9.5491L10.6982 9.54006M10.6825 9.5491L10.5696 9.61385L10.6814 9.54724M10.6825 9.5491L10.6814 9.54724M10.6982 9.54006C10.6974 9.53985 10.6966 9.53963 10.6958 9.53942M10.6982 9.54006L10.7511 9.50971C10.7583 9.5108 10.7659 9.51179 10.7738 9.51267L10.7715 9.50842C10.7658 9.50817 10.7604 9.50783 10.7551 9.50741L10.759 9.50516C10.7589 9.50513 10.7589 9.50511 10.7588 9.50508L10.7546 9.50736C10.7323 9.50556 10.7142 9.50245 10.7014 9.49983C10.6945 9.49841 10.6884 9.49696 10.6858 9.49631L10.6859 9.49634C10.6882 9.49694 10.699 9.49971 10.7113 9.50239C10.7229 9.50492 10.736 9.50743 10.7504 9.50961L10.6958 9.53942M10.6814 9.54724L10.6958 9.53942M10.6814 9.54724L10.6739 9.53364M10.6958 9.53942C10.6886 9.53752 10.6814 9.53559 10.6739 9.53364M10.6739 9.53364L10.6188 9.43406L10.597 9.51368M10.179 9.92689L10.3708 9.81794L10.466 9.99257L10.4684 9.99695C10.4673 9.99667 10.4662 9.99638 10.4651 9.9961C10.3814 9.97474 10.2849 9.95111 10.179 9.92689Z" fill="black" stroke="black"/>
</g>
<defs>
<clipPath id="clip0_1165_6836">
<rect width="7.33333" height="7.33333" fill="white" transform="translate(7.33203 6.33398)"/>
</clipPath>
</defs>
</svg>
