<svg width="23" height="22" viewBox="0 0 23 22" fill="none" xmlns="http://www.w3.org/2000/svg">
<path fill-rule="evenodd" clip-rule="evenodd" d="M5.10397 10.8223C6.37513 10.8223 7.41754 11.9842 7.41754 13.1553C7.41754 13.793 7.11205 14.5445 6.62857 15.0969C7.41483 15.4675 8.23828 16.0501 8.73479 16.7209C9.53132 17.7972 9.39037 18.3889 9.39037 19.4109C9.39037 21.5315 1.0943 21.5291 1.0172 19.4109C0.980265 18.3964 0.938512 17.8492 1.63595 16.7857C2.0859 16.0996 2.8635 15.5003 3.62119 15.1164C3.12743 14.5633 2.81426 13.8009 2.81426 13.1553C2.81426 11.9842 3.83281 10.8223 5.10397 10.8223Z" stroke="black" stroke-linecap="round" stroke-linejoin="round"/>
<path d="M9.76289 1C7.26578 1.42713 5.39844 3.14455 5.39844 5.1982C5.39844 6.25365 5.89166 7.22029 6.71012 7.96861L6.51406 10.2703L8.95374 9.207C9.58088 9.39521 10.2631 9.49848 10.9766 9.49848C12.4631 9.49848 13.8138 9.0502 14.8137 8.31943" stroke="black" stroke-width="0.75" stroke-linecap="round" stroke-linejoin="round"/>
<path fill-rule="evenodd" clip-rule="evenodd" d="M13.5781 1.18652C15.6319 1.18652 17.2969 2.47006 17.2969 4.05337C17.2969 4.75701 16.9681 5.40144 16.4224 5.90032L16.5531 7.43479L14.9267 6.72591C14.5086 6.85138 14.0538 6.92023 13.5781 6.92023C11.5243 6.92023 9.85938 5.63669 9.85938 4.05337C9.85938 2.47006 11.5243 1.18652 13.5781 1.18652Z" stroke="black" stroke-width="0.75" stroke-linecap="round" stroke-linejoin="round"/>
<path fill-rule="evenodd" clip-rule="evenodd" d="M17.7055 8.78613C18.9767 8.78613 20.0191 9.94802 20.0191 11.1192C20.0191 11.7568 19.7136 12.5084 19.2301 13.0607C20.0164 13.4314 20.8398 14.0139 21.3363 14.6848C22.1329 15.7611 21.9919 16.3527 21.9919 17.3748C21.9919 19.4953 13.6959 19.4929 13.6188 17.3748C13.5818 16.3603 13.5401 15.813 14.2375 14.7495C14.6875 14.0634 15.4651 13.4641 16.2228 13.0802C15.729 12.5272 15.4158 11.7648 15.4158 11.1192C15.4158 9.94802 16.4344 8.78613 17.7055 8.78613Z" stroke="black" stroke-linecap="round" stroke-linejoin="round"/>
</svg>
