<svg width="24" height="24" viewBox="0 0 24 24" fill="none" xmlns="http://www.w3.org/2000/svg">
<path d="M19.3242 13.8906C19.5616 13.8906 19.7539 13.6981 19.7539 13.4609C19.7539 13.2238 19.5616 13.0312 19.3242 13.0312C19.0871 13.0312 18.8945 13.2238 18.8945 13.4609C18.8945 13.6981 19.0871 13.8906 19.3242 13.8906Z" fill="black"/>
<path d="M4.71484 13.8906C4.95218 13.8906 5.14453 13.6981 5.14453 13.4609C5.14453 13.2238 4.95218 13.0312 4.71484 13.0312C4.47768 13.0312 4.28516 13.2238 4.28516 13.4609C4.28516 13.6981 4.47768 13.8906 4.71484 13.8906Z" fill="black"/>
<path d="M2.09557 14.419C1.89465 15.489 2.16808 16.462 2.86498 17.1588C3.42474 17.7187 4.13071 17.9936 4.91287 17.9936C5.89427 17.9936 6.99551 17.5603 8.07645 16.7138C8.53064 18.5955 9.71077 21.6498 11.5903 22.0903V22.5703C11.5903 22.8076 11.7828 23 12.02 23C12.2573 23 12.4497 22.8076 12.4497 22.5703V22.0903C14.3331 21.649 15.5116 18.5866 15.9636 16.7138C17.0447 17.5603 18.1457 17.9936 19.1273 17.9936C19.9091 17.9935 20.6154 17.7187 21.1749 17.1589C21.8721 16.462 22.1454 15.4889 21.9444 14.419C21.74 13.3298 21.0537 12.1762 19.9598 11.0826C18.5135 9.63622 16.4218 8.33423 14.7653 7.81676C14.938 7.43289 15.0278 7.01596 15.0278 6.58594C15.0278 5.30191 14.219 4.20386 13.0842 3.77316C13.5276 2.62878 14.6285 1.85938 15.8872 1.85938C16.1245 1.85938 16.3169 1.66702 16.3169 1.42969C16.3169 1.19235 16.1245 1 15.8872 1C14.2235 1 12.7743 2.04602 12.2375 3.58685C12.1655 3.58165 12.0932 3.57812 12.02 3.57812C11.947 3.57812 11.8747 3.58165 11.8028 3.58685C11.2659 2.04602 9.81668 1 8.15282 1C7.91565 1 7.72313 1.19235 7.72313 1.42969C7.72313 1.66702 7.91565 1.85938 8.15282 1.85938C9.41167 1.85938 10.5126 2.62878 10.956 3.77316C9.82121 4.20386 9.01219 5.30191 9.01219 6.58594C9.01219 7.01579 9.10216 7.43289 9.2747 7.81693C6.79074 8.59271 2.66423 11.3902 2.09557 14.419ZM12.02 11.2893C12.2332 11.8392 12.5217 12.427 12.8772 13.0312H11.163C11.5185 12.427 11.807 11.8394 12.02 11.2893ZM10.6188 13.8906H13.4214C13.8455 14.5154 14.3073 15.1 14.7779 15.6094H9.26228C9.73293 15.1001 10.1947 14.5154 10.6188 13.8906ZM14.5046 18.4453H9.53554C9.28276 17.8302 9.06456 17.1487 8.90175 16.4682H15.1383C14.9756 17.1489 14.7574 17.8302 14.5046 18.4453ZM12.02 21.2812C11.3458 21.2812 10.5873 20.5533 9.93384 19.3042H14.1065C13.4529 20.5533 12.6944 21.2812 12.02 21.2812ZM21.1 14.5776C21.2491 15.3715 21.0649 16.054 20.5673 16.5513C20.1059 17.0129 19.4784 17.2061 18.7537 17.1094C16.8486 16.8558 15.0713 14.8383 14.0098 13.2249C13.0422 11.7533 12.4589 10.3188 12.4497 9.38797C12.4497 9.3873 12.4497 9.38663 12.4497 9.38596C12.4499 9.37253 12.4499 9.35893 12.4497 9.3455C12.4497 9.34483 12.4497 9.34416 12.4497 9.34349C12.4527 9.0266 12.5261 8.79396 12.6682 8.65179C12.8127 8.50711 13.0585 8.43359 13.3831 8.43359C13.5723 8.43359 13.7883 8.4586 14.0266 8.50896C14.0268 8.50896 14.0268 8.50896 14.0268 8.50912C15.5765 8.83626 17.8659 10.204 19.3522 11.6903C20.3232 12.661 20.9276 13.6595 21.1 14.5776ZM12.02 4.4375C13.2047 4.4375 14.1684 5.40128 14.1684 6.58594C14.1684 6.95016 14.0785 7.3013 13.9066 7.61517C13.087 7.49432 12.4665 7.63766 12.0605 8.04419C12.0465 8.05812 12.0333 8.07256 12.02 8.08699C12.0069 8.07256 11.9937 8.05829 11.9799 8.04436C11.5737 7.63766 10.953 7.49449 10.1336 7.61517C9.9617 7.3013 9.87157 6.95016 9.87157 6.58594C9.87157 5.40128 10.8355 4.4375 12.02 4.4375ZM10.0136 8.50896C10.2517 8.45844 10.4678 8.43343 10.6569 8.43343C10.9815 8.43343 11.2274 8.50711 11.3721 8.65196C11.5141 8.79396 11.5875 9.0266 11.5905 9.34332V9.3455C11.5903 9.35893 11.5903 9.37253 11.5905 9.38596V9.38797C11.5813 10.3188 10.998 11.7533 10.0304 13.2249C8.97308 14.8321 7.19576 16.8551 5.2865 17.1093C4.56157 17.2059 3.93433 17.0129 3.47275 16.5512C2.97542 16.0538 2.79129 15.3714 2.94034 14.5775C3.45831 11.8186 7.76845 8.98312 10.0136 8.50896Z" fill="black"/>
<path d="M6.23822 12.5851C7.21945 11.6935 8.51573 10.865 9.62117 10.4225C9.84155 10.3343 9.94864 10.0842 9.86052 9.86395C9.77223 9.64357 9.52214 9.53648 9.30193 9.6246C8.1077 10.1026 6.71239 10.9932 5.66033 11.9489C5.48459 12.1086 5.47167 12.3803 5.63112 12.5559C5.79091 12.7318 6.06282 12.7444 6.23822 12.5851Z" fill="black"/>
<path d="M14.3945 10.4239C15.5066 10.8581 16.812 11.6861 17.8013 12.5849C17.9765 12.7442 18.2483 12.7319 18.4082 12.5559C18.5678 12.3803 18.5547 12.1086 18.3792 11.9489C17.3174 10.9842 15.9103 10.0931 14.7072 9.62327C14.486 9.53699 14.2369 9.64626 14.1506 9.86732C14.0643 10.0884 14.1736 10.3375 14.3945 10.4239Z" fill="black"/>
</svg>
