<svg width="24" height="24" viewBox="0 0 24 24" fill="none" xmlns="http://www.w3.org/2000/svg">
<path d="M9.82031 13.5469V18H8.32031V6.625H12.5156C13.7604 6.625 14.7344 6.94271 15.4375 7.57812C16.1458 8.21354 16.5 9.05469 16.5 10.1016C16.5 11.2057 16.1536 12.0573 15.4609 12.6562C14.7734 13.25 13.7865 13.5469 12.5 13.5469H9.82031ZM9.82031 12.3203H12.5156C13.3177 12.3203 13.9323 12.1328 14.3594 11.7578C14.7865 11.3776 15 10.8307 15 10.1172C15 9.4401 14.7865 8.89844 14.3594 8.49219C13.9323 8.08594 13.3464 7.875 12.6016 7.85938H9.82031V12.3203Z" fill="black"/>
<path fill-rule="evenodd" clip-rule="evenodd" d="M3.09034 14.826C2.97499 14.9297 2.86675 15.032 2.76701 15.1317C0.993786 16.9049 0.472927 19.1623 1.58132 20.2708C1.95555 20.645 2.47746 20.8435 3.08623 20.8512C3.09384 21.4599 3.29243 21.9818 3.6666 22.356C4.05977 22.7491 4.59763 22.9374 5.20695 22.9374C6.31568 22.9374 7.66134 22.3147 8.80568 21.1704C8.90548 21.0706 9.00772 20.9623 9.1114 20.847C9.75889 22.127 10.836 22.9182 12.0003 22.9182C13.1641 22.9182 14.241 22.1273 14.8885 20.8475C14.992 20.9627 15.0941 21.0708 15.1937 21.1704C16.3379 22.3146 17.6837 22.9374 18.7924 22.9374C19.4018 22.9374 19.9395 22.7492 20.3327 22.356C20.7069 21.9818 20.9057 21.4599 20.9137 20.851C21.5222 20.8433 22.0441 20.6446 22.4185 20.2702C23.5269 19.1618 23.0061 16.9045 21.2329 15.1312C21.1332 15.0316 21.0252 14.9296 20.9101 14.826C22.1899 14.1791 22.981 13.102 22.981 11.9374C22.981 10.7731 22.1898 9.69601 20.9098 9.04852C21.0251 8.94495 21.1332 8.84277 21.2328 8.74314C23.0061 6.96992 23.5269 4.71256 22.4184 3.60417C22.044 3.22977 21.5222 3.03113 20.9138 3.02357C20.9062 2.41509 20.7076 1.89328 20.3332 1.51889C19.2247 0.410551 16.9674 0.931244 15.1942 2.70458C15.0946 2.80415 14.9926 2.91217 14.8891 3.0273C14.2421 1.74726 13.165 0.955971 12.0003 0.955971C10.8359 0.955971 9.75883 1.74721 9.11129 3.02724C9.00783 2.91211 8.90575 2.8041 8.80618 2.70452C7.0329 0.931245 4.77566 0.41044 3.6671 1.51884C3.29276 1.89328 3.09406 2.41509 3.08634 3.02368C2.47746 3.03169 1.95555 3.2305 1.58138 3.60467C0.472926 4.71312 0.993786 6.97042 2.76701 8.7437C2.86653 8.84327 2.97454 8.94528 3.08962 9.04875C1.8098 9.69629 1.01879 10.7733 1.01879 11.9375C1.01879 13.1016 1.81014 14.1786 3.09034 14.826ZM3.91036 14.1579C2.71989 13.6971 1.96338 12.8436 1.96338 11.9374C1.96338 11.0312 2.71939 10.1775 3.90936 9.71663C4.29515 10.0041 4.71719 10.2857 5.15236 10.54C5.22093 10.2168 5.31181 9.90184 5.42329 9.59683C4.68684 9.14949 3.9676 8.60853 3.43495 8.07587C1.94282 6.58375 1.61722 4.9047 2.24926 4.27266C2.51753 4.00445 2.96938 3.90899 3.52118 4.00362C3.67237 4.02962 3.82679 3.98045 3.93514 3.87193C4.0436 3.76341 4.09255 3.60894 4.06644 3.45781C3.97137 2.9065 4.06671 2.45515 4.33503 2.18683C4.96702 1.55484 6.64618 1.88045 8.13824 3.37252C8.67884 3.91311 9.22811 4.64587 9.67945 5.39377C9.9866 5.28589 10.3035 5.19882 10.6286 5.13426C10.3676 4.68348 10.0766 4.24589 9.77928 3.84704C10.2402 2.65674 11.0939 1.90056 12.0003 1.90056C12.907 1.90056 13.7607 2.65685 14.2209 3.84726C13.9237 4.24607 13.6327 4.68362 13.3718 5.13439C13.6969 5.19898 14.0138 5.28608 14.321 5.39401C14.7724 4.64588 15.3217 3.91299 15.8622 3.37252C16.5596 2.67507 17.3651 2.17916 18.1303 1.97624C18.5212 1.87256 19.2405 1.76204 19.6653 2.18683C19.9337 2.45515 20.0289 2.90661 19.9334 3.45803C19.9073 3.60933 19.9562 3.76397 20.0648 3.87254C20.1734 3.98117 20.3282 4.03018 20.4794 4.00395C21.0308 3.90849 21.4822 4.00373 21.7506 4.27205C22.1753 4.69689 22.0648 5.41617 21.9611 5.80712C21.7582 6.5723 21.2623 7.37781 20.5649 8.07526C20.0323 8.60782 19.313 9.1489 18.5763 9.59648C18.6878 9.9015 18.7787 10.2165 18.8473 10.5396C19.2823 10.2854 19.7042 10.0039 20.0899 9.71646C21.2803 10.1773 22.0364 11.0311 22.0364 11.9374C22.0364 12.8441 21.2803 13.6977 20.0901 14.1579C19.7111 13.8755 19.2972 13.5987 18.8702 13.3479C18.8066 13.674 18.7204 13.992 18.6132 14.3002C19.3368 14.7433 20.0411 15.2753 20.5649 15.7991C22.057 17.2912 22.3826 18.9703 21.7506 19.6023C21.4822 19.8705 21.0309 19.9658 20.4796 19.8708C20.3283 19.8448 20.174 19.8937 20.0655 20.0021C19.9569 20.1106 19.9078 20.265 19.9338 20.4161C20.0285 20.9681 19.9329 21.4199 19.6647 21.6881C19.0327 22.3201 17.3537 21.9945 15.8616 20.5025C15.3457 19.9866 14.8221 19.2958 14.3832 18.5838C14.0772 18.6946 13.7613 18.7847 13.4371 18.8523C13.6807 19.2635 13.9479 19.6618 14.2205 20.0275C13.7596 21.2175 12.9062 21.9736 12.0003 21.9736C11.0939 21.9736 10.2402 21.2174 9.77934 20.0271C10.0519 19.6615 10.3191 19.2634 10.5628 18.8523C10.2385 18.7847 9.9225 18.6946 9.61641 18.5837C9.17733 19.2957 8.65354 19.9865 8.13763 20.5024C7.44025 21.1998 6.63473 21.6957 5.86955 21.8987C5.47871 22.0023 4.75932 22.1129 4.33453 21.6881C4.06644 21.42 3.97125 20.9685 4.06644 20.4166C4.09255 20.2653 4.04354 20.1109 3.93503 20.0024C3.82651 19.8938 3.67199 19.8448 3.5208 19.8709C2.96871 19.9661 2.5173 19.8708 2.24921 19.6028C1.61722 18.9708 1.94288 17.2917 3.43495 15.7996C3.95882 15.2757 4.66308 14.7437 5.38669 14.3006C5.2795 13.9924 5.19324 13.6744 5.12961 13.3483C4.70287 13.599 4.28916 13.8756 3.91036 14.1579ZM5.01166 12.4097C5.00384 12.2741 4.99987 12.1375 4.99987 12C4.99987 11.82 5.00666 11.6417 5.02 11.4651H3.97542C3.7146 11.4651 3.50312 11.6766 3.50312 11.9374C3.50312 12.1982 3.7146 12.4097 3.97542 12.4097H5.01166ZM6.06546 15.7143L3.63037 17.5275C3.42117 17.6833 3.37783 17.9792 3.53363 18.1884C3.62631 18.3129 3.76861 18.3787 3.9128 18.3787C4.01082 18.3787 4.10978 18.3482 4.19446 18.2851L6.62012 16.4789C6.41872 16.2373 6.23329 15.9818 6.06546 15.7143ZM7.45387 17.3231L5.65213 19.7428C5.49633 19.952 5.53961 20.2478 5.74887 20.4036C5.83355 20.4667 5.93245 20.4972 6.03052 20.4972C6.17471 20.4972 6.31696 20.4314 6.40969 20.3069L8.21146 17.8873C7.94607 17.7161 7.693 17.5275 7.45387 17.3231ZM11.5281 18.9844V19.9622C11.5281 20.223 11.7395 20.4345 12.0004 20.4345C12.2612 20.4345 12.4727 20.223 12.4727 19.9622V18.9843C12.3164 18.9947 12.1588 19 11.9999 19C11.8413 19 11.684 18.9947 11.5281 18.9844ZM15.7882 17.8873L17.59 20.307C17.6827 20.4315 17.825 20.4972 17.9692 20.4972C18.0673 20.4972 18.1662 20.4668 18.2509 20.4037C18.4601 20.2479 18.5034 19.952 18.3476 19.7428L16.5459 17.3231C16.3067 17.5276 16.0536 17.7162 15.7882 17.8873ZM17.3796 16.4789L19.8054 18.2851C19.8901 18.3482 19.989 18.3787 20.0871 18.3787C20.2313 18.3787 20.3736 18.3129 20.4662 18.1884C20.622 17.9792 20.5787 17.6833 20.3695 17.5275L17.9343 15.7142C17.7665 15.9818 17.5811 16.2372 17.3796 16.4789ZM18.9881 12.4097H20.0251C20.2859 12.4097 20.4974 12.1982 20.4974 11.9374C20.4974 11.6766 20.2859 11.4651 20.0251 11.4651H18.9797C18.9931 11.6417 18.9999 11.82 18.9999 12C18.9999 12.1375 18.9959 12.2741 18.9881 12.4097ZM17.8802 8.20082L20.3694 6.34726C20.5786 6.19146 20.6219 5.89558 20.4661 5.68638C20.3104 5.47713 20.0146 5.43384 19.8053 5.58964L17.3147 7.44427C17.5195 7.68303 17.7086 7.93576 17.8802 8.20082ZM16.4888 6.62857L18.3477 4.13203C18.5035 3.92277 18.4602 3.62695 18.251 3.47114C18.0417 3.31534 17.7458 3.35868 17.5901 3.56788L15.7251 6.0725C15.9924 6.24082 16.2475 6.42671 16.4888 6.62857ZM12.4725 5.01571V3.91266C12.4725 3.65184 12.2611 3.44036 12.0002 3.44036C11.7394 3.44036 11.5279 3.65184 11.5279 3.91266V5.01566C11.6839 5.00527 11.8413 5 11.9999 5C12.1587 5 12.3163 5.00529 12.4725 5.01571ZM8.27475 6.07241L6.40981 3.56788C6.25406 3.35868 5.95818 3.31529 5.74892 3.47114C5.53972 3.62695 5.49638 3.92283 5.65219 4.13203L7.51111 6.62846C7.7524 6.42662 8.00748 6.24073 8.27475 6.07241ZM6.68508 7.44426L4.19451 5.5897C3.9852 5.4339 3.68943 5.47729 3.53363 5.68644C3.37783 5.89564 3.42111 6.19152 3.63037 6.34732L6.11956 8.20084C6.29117 7.93576 6.48022 7.68303 6.68508 7.44426Z" fill="black"/>
</svg>
