<svg width="24" height="24" viewBox="0 0 24 24" fill="none" xmlns="http://www.w3.org/2000/svg">
<path d="M22.2269 10.4461C21.5491 9.61181 20.626 9.00189 19.6014 8.70535C19.4835 5.53932 16.871 3 13.6767 3C12.3245 3 11.0017 3.46734 9.95208 4.31593C9.05066 5.04475 8.37982 6.02788 8.02881 7.12247C7.55655 6.93362 7.04945 6.83518 6.53814 6.83518C4.33364 6.83518 2.53834 8.6208 2.5228 10.8217C1.00233 11.5114 0 13.0473 0 14.7332C0 17.1003 1.92574 19.026 4.29278 19.026H18.1397C21.042 19.026 23.4032 16.6648 23.4032 13.7626C23.4032 12.5575 22.9854 11.3797 22.2269 10.4461ZM18.1397 18.2056H4.29278C2.37809 18.2056 0.820371 16.6479 0.820371 14.7332C0.820371 13.2883 1.73033 11.9798 3.08459 11.477C3.25479 11.4138 3.36319 11.2464 3.35116 11.0653C3.34564 10.9821 3.34307 10.9138 3.34307 10.8506C3.34307 9.08879 4.77636 7.6555 6.53814 7.6555C7.08259 7.6555 7.62081 7.79572 8.09465 8.06098C8.20748 8.1242 8.34361 8.13044 8.46174 8.07782C8.57993 8.02521 8.6664 7.91998 8.695 7.79381C8.94697 6.68308 9.57657 5.67457 10.4679 4.95396C11.372 4.22295 12.5116 3.82043 13.6767 3.82043C16.4936 3.82043 18.7852 6.11205 18.7852 8.92888C18.7852 8.95316 18.7847 8.97733 18.7843 9.00151L18.784 9.01769C18.7808 9.21256 18.9151 9.38287 19.1054 9.42504C20.0765 9.64019 20.9589 10.1866 21.5902 10.9634C22.2303 11.7512 22.5828 12.7453 22.5828 13.7626C22.5828 16.2125 20.5896 18.2056 18.1397 18.2056Z" fill="black"/>
</svg>
