<svg width="24" height="24" viewBox="0 0 24 24" fill="none" xmlns="http://www.w3.org/2000/svg">
<path d="M6.19922 11.9985C6.19922 15.1971 8.80145 17.7993 12 17.7993C15.1986 17.7993 17.8008 15.1971 17.8008 11.9985C17.8008 8.79998 15.1986 6.19775 12 6.19775C8.80145 6.19775 6.19922 8.79998 6.19922 11.9985ZM12 7.48682C14.4878 7.48682 16.5117 9.51077 16.5117 11.9985C16.5117 14.4863 14.4878 16.5103 12 16.5103C9.51224 16.5103 7.48828 14.4863 7.48828 11.9985C7.48828 9.51077 9.51224 7.48682 12 7.48682Z" fill="black"/>
<path d="M17.013 17.0116C16.7613 17.2633 16.7613 17.6714 17.013 17.9231L20.1251 21.0351C20.3767 21.2868 20.7848 21.2869 21.0366 21.0351C21.2883 20.7834 21.2883 20.3753 21.0366 20.1236L17.9245 17.0116C17.6728 16.7598 17.2647 16.7598 17.013 17.0116Z" fill="black"/>
<path d="M3.87762 2.96466C3.62596 2.71295 3.21784 2.71295 2.96613 2.96466C2.71442 3.21637 2.71442 3.62445 2.96613 3.87616L6.07818 6.98821C6.32985 7.23993 6.73797 7.23997 6.98968 6.98821C7.24139 6.7365 7.24139 6.32843 6.98968 6.07672L3.87762 2.96466Z" fill="black"/>
<path d="M2.96613 21.037C3.21779 21.2888 3.62591 21.2888 3.87762 21.037L6.98968 17.925C7.24139 17.6733 7.24139 17.2652 6.98968 17.0135C6.73801 16.7618 6.32989 16.7618 6.07818 17.0135L2.96613 20.1255C2.71442 20.3773 2.71442 20.7853 2.96613 21.037Z" fill="black"/>
<path d="M21.0366 2.96466C20.7849 2.71295 20.3768 2.71295 20.1251 2.96466L17.013 6.07672C16.7613 6.32843 16.7613 6.7365 17.013 6.98821C17.2647 7.23993 17.6728 7.23997 17.9245 6.98821L21.0366 3.87616C21.2883 3.62445 21.2883 3.21637 21.0366 2.96466Z" fill="black"/>
<path d="M14.7145 18.5517C14.3856 18.6879 14.2294 19.0649 14.3656 19.3938L14.8589 20.5847C14.995 20.9131 15.3717 21.07 15.7011 20.9335C16.0299 20.7973 16.1861 20.4203 16.0499 20.0914L15.5566 18.9005C15.4203 18.5716 15.0433 18.4155 14.7145 18.5517Z" fill="black"/>
<path d="M9.287 5.45063C9.61588 5.31442 9.77203 4.93737 9.63582 4.60848L9.14254 3.41756C9.00628 3.08868 8.62927 2.93257 8.30039 3.06874C7.97151 3.20495 7.81536 3.582 7.95157 3.91089L8.44485 5.10181C8.58093 5.43017 8.95764 5.58705 9.287 5.45063Z" fill="black"/>
<path d="M4.6085 14.3641L3.41758 14.8574C3.0887 14.9936 2.93255 15.3707 3.06876 15.6996C3.2048 16.0279 3.58155 16.1848 3.9109 16.0484L5.10183 15.5551C5.43071 15.4189 5.58686 15.0418 5.45065 14.7129C5.31444 14.3841 4.93743 14.228 4.6085 14.3641Z" fill="black"/>
<path d="M19.3953 9.63629L20.5862 9.14301C20.9151 9.0068 21.0712 8.62974 20.935 8.30086C20.7988 7.97198 20.4218 7.81587 20.0929 7.95204L18.902 8.44532C18.5731 8.58153 18.4169 8.95858 18.5531 9.28747C18.6892 9.61583 19.0659 9.77267 19.3953 9.63629Z" fill="black"/>
<path d="M8.44485 18.9005L7.95157 20.0914C7.81536 20.4203 7.97151 20.7973 8.30039 20.9335C8.63061 21.0703 9.00684 20.9123 9.14254 20.5847L9.63582 19.3938C9.77203 19.0649 9.61588 18.6879 9.287 18.5517C8.95807 18.4155 8.58106 18.5716 8.44485 18.9005Z" fill="black"/>
<path d="M15.5527 5.10181L16.046 3.91089C16.1822 3.582 16.026 3.20499 15.6972 3.06874C15.3683 2.93257 14.9913 3.08868 14.855 3.41756L14.3617 4.60848C14.2255 4.93737 14.3817 5.31437 14.7105 5.45063C15.0408 5.58735 15.417 5.42936 15.5527 5.10181Z" fill="black"/>
<path d="M5.10183 8.44485L3.9109 7.95157C3.58202 7.81536 3.20501 7.97151 3.06876 8.30039C2.93255 8.62927 3.0887 9.00628 3.41758 9.14254L4.6085 9.63582C4.93872 9.77254 5.31495 9.61455 5.45065 9.287C5.58686 8.95811 5.43071 8.58106 5.10183 8.44485Z" fill="black"/>
<path d="M20.5862 14.8579L19.3953 14.3646C19.0664 14.2285 18.6894 14.3846 18.5531 14.7135C18.4169 15.0423 18.5731 15.4194 18.902 15.5556L20.0929 16.0489C20.4231 16.1856 20.7993 16.0276 20.935 15.7001C21.0712 15.3712 20.9151 14.9941 20.5862 14.8579Z" fill="black"/>
<path d="M11.3555 19.7329V22.354C11.3555 22.71 11.644 22.9985 12 22.9985C12.356 22.9985 12.6445 22.71 12.6445 22.354V19.7329C12.6445 19.377 12.356 19.0884 12 19.0884C11.644 19.0884 11.3555 19.377 11.3555 19.7329Z" fill="black"/>
<path d="M12.6445 4.26562V1.64453C12.6445 1.28858 12.356 1 12 1C11.644 1 11.3555 1.28858 11.3555 1.64453V4.26562C11.3555 4.62158 11.644 4.91016 12 4.91016C12.356 4.91016 12.6445 4.62158 12.6445 4.26562Z" fill="black"/>
<path d="M1 11.9985C1 12.3545 1.28858 12.6431 1.64453 12.6431H4.26562C4.62158 12.6431 4.91016 12.3545 4.91016 11.9985C4.91016 11.6426 4.62158 11.354 4.26562 11.354H1.64453C1.28858 11.354 1 11.6426 1 11.9985Z" fill="black"/>
<path d="M22.3555 11.354H19.7344C19.3784 11.354 19.0898 11.6426 19.0898 11.9985C19.0898 12.3545 19.3784 12.6431 19.7344 12.6431H22.3555C22.7114 12.6431 23 12.3545 23 11.9985C23 11.6426 22.7114 11.354 22.3555 11.354Z" fill="black"/>
</svg>
