<svg width="24" height="25" viewBox="0 0 24 25" fill="none" xmlns="http://www.w3.org/2000/svg">
<path d="M22.3088 5.29696C22.3088 3.89243 21.1659 2.7498 19.7611 2.7498C19.7608 2.7498 19.7605 2.7498 19.7601 2.7498C19.6482 2.04268 19.0346 1.50036 18.2966 1.50036C18.223 1.50036 18.1495 1.50595 18.0767 1.51693C17.8257 1.04664 17.3331 0.737891 16.7717 0.737891C16.5388 0.737891 16.3117 0.792738 16.107 0.895976C15.7625 0.641362 15.3415 0.5 14.9083 0.5C14.2613 0.5 13.6685 0.808343 13.2951 1.30674C12.8614 0.985948 12.3337 0.809055 11.7821 0.809055C10.555 0.809055 9.52422 1.68615 9.28653 2.84632C8.71549 2.83321 8.18054 3.09682 7.83982 3.53118C7.4409 3.28347 6.98001 3.1508 6.50082 3.1508C5.65397 3.1508 4.87615 3.56879 4.40637 4.24754C4.17549 4.14029 3.92235 4.08356 3.66291 4.08356C2.68893 4.08356 1.89652 4.87597 1.89652 5.84995C1.89652 5.94439 1.90424 6.03889 1.91939 6.13211C0.796782 6.50593 0 7.57262 0 8.79004C0 9.46375 0.242669 10.1149 0.683326 10.6236C1.01251 11.0035 1.43563 11.2859 1.90516 11.4445C1.89942 11.4979 1.89652 11.5518 1.89652 11.6061C1.89652 12.4329 2.56922 13.1056 3.39604 13.1056C3.8276 13.1056 4.2247 12.9242 4.50274 12.6187C4.78216 12.772 5.09701 12.8535 5.4232 12.8535C5.76494 12.8535 6.09275 12.7648 6.38081 12.5983C6.86025 13.1677 7.57153 13.5067 8.33075 13.5067C8.68657 13.5067 9.03105 13.431 9.34585 13.2934C10.5969 14.2239 11.245 14.6895 11.604 14.9211C11.5576 15.0724 11.5017 15.2216 11.4353 15.3679C11.1078 16.0899 10.5682 16.6748 9.87511 17.0596C7.79606 18.2136 6.96115 20.8027 7.97442 22.9538L8.06485 23.1459H5.37638C5.13778 23.1459 4.94431 23.3393 4.94431 23.5779C4.94431 23.8165 5.13778 24.01 5.37638 24.01H16.6609C16.8995 24.01 17.093 23.8165 17.093 23.5779C17.093 23.3393 16.8995 23.1459 16.6609 23.1459H12.8363C11.6562 21.5196 11.7209 19.281 13.0279 17.7194C13.8226 16.7703 14.2602 15.5655 14.2602 14.3271C14.2602 14.2733 14.2589 14.2195 14.2573 14.1658L16.1473 12.7923C16.9929 12.7355 17.7342 12.1943 18.0546 11.4237C18.0813 11.4247 18.108 11.4252 18.1346 11.4252C19.349 11.4252 20.3392 10.4465 20.3582 9.23628C21.103 9.02 21.6379 8.33728 21.6379 7.52337C21.6379 7.37148 21.6191 7.2226 21.5818 7.07819C22.0472 6.60434 22.3088 5.97052 22.3088 5.29696ZM10.1071 12.7818C10.3119 12.5829 10.4844 12.3489 10.6139 12.0872C10.6885 12.0679 10.7621 12.043 10.8342 12.0119C10.9017 11.9828 10.967 11.9485 11.0293 11.9097C11.1656 12.0182 11.3189 12.1001 11.4814 12.1542L11.6808 13.0798C11.7453 13.3795 11.7718 13.6816 11.7616 13.9812C11.3435 13.6875 10.7273 13.24 10.1071 12.7818ZM12.3653 17.1648C10.9347 18.874 10.7483 21.2623 11.8099 23.1459H9.02002L8.75611 22.5856C7.93605 20.8446 8.61175 18.7491 10.2944 17.8151C11.1509 17.3398 11.8175 16.617 12.2222 15.725C12.6269 14.833 12.7318 13.8554 12.5256 12.8978L12.3683 12.168C12.4249 12.1512 12.481 12.1312 12.5363 12.1073C12.6054 12.0776 12.6712 12.0422 12.7342 12.0028C13.1672 12.7019 13.396 13.5029 13.396 14.3271C13.396 15.3631 13.03 16.3708 12.3653 17.1648ZM13.5887 11.7506C13.751 11.7469 13.9128 11.7238 14.0704 11.6812C14.2885 12.0624 14.6123 12.3661 14.9971 12.56L14.1359 13.1858C14.0251 12.6847 13.8412 12.2017 13.5887 11.7506ZM20.8094 6.61313C20.6531 6.73767 20.6027 6.95309 20.6873 7.1341C20.7446 7.25661 20.7737 7.38755 20.7737 7.52337C20.7737 8.0234 20.3824 8.4274 19.8828 8.44311C19.757 8.44708 19.6393 8.50558 19.5602 8.60348C19.4812 8.70133 19.4487 8.82882 19.4713 8.95259C19.4866 9.03596 19.4943 9.11947 19.4943 9.2008C19.4943 9.95082 18.8843 10.561 18.1345 10.561C18.038 10.561 17.94 10.5504 17.8433 10.5293C17.7311 10.5048 17.6138 10.526 17.5172 10.5882C17.4207 10.6505 17.3529 10.7485 17.3288 10.8608C17.1955 11.4824 16.6365 11.9335 15.9996 11.9335C15.5161 11.9335 15.0803 11.6805 14.8378 11.2808C15.1687 11.0032 15.402 10.6262 15.5026 10.207C16.0279 10.3295 16.5825 10.2826 17.0888 10.0641C17.3079 9.96947 17.4088 9.71517 17.3142 9.49613C17.2196 9.2771 16.9653 9.1761 16.7462 9.27075C16.2858 9.4696 15.7646 9.45323 15.3166 9.22596C15.1772 9.15526 15.0105 9.16537 14.8806 9.25235C14.7507 9.33932 14.678 9.48968 14.6904 9.64548C14.7294 10.1369 14.4515 10.5984 13.999 10.7938C13.7013 10.9223 13.3737 10.9207 13.0766 10.7894C12.8606 10.6939 12.6078 10.7896 12.5092 11.0044C12.4452 11.1439 12.3332 11.2539 12.1938 11.3141C11.914 11.4349 11.5922 11.3357 11.4288 11.0783C11.3541 10.9607 11.2273 10.8863 11.0881 10.8785C10.9494 10.8708 10.8147 10.9305 10.7273 11.0391C10.6638 11.1181 10.5845 11.1785 10.4916 11.2186C10.1788 11.3538 9.81447 11.209 9.67941 10.8963C9.66085 10.8534 9.64754 10.8074 9.63864 10.7557C9.61338 10.6094 9.51471 10.4862 9.37737 10.4297C9.24002 10.373 9.08321 10.391 8.96223 10.4772C8.86489 10.5465 8.76043 10.6054 8.65165 10.6523C8.2389 10.8306 7.78142 10.8374 7.36353 10.6716C6.94565 10.5057 6.61733 10.187 6.43911 9.77428C6.34457 9.5552 6.09021 9.4543 5.87117 9.5489C5.65214 9.64349 5.55119 9.89775 5.64579 10.1168C5.91555 10.7415 6.41238 11.2237 7.04482 11.4747C7.67726 11.7257 8.36964 11.7154 8.9943 11.4457C8.99451 11.4456 8.99476 11.4455 8.99496 11.4454C9.15102 11.6926 9.37655 11.886 9.64759 12.0056C9.33345 12.3993 8.8503 12.6426 8.3307 12.6426C7.71879 12.6426 7.15385 12.3091 6.85634 11.7723C6.79046 11.6534 6.67243 11.5724 6.53778 11.5538C6.40317 11.5351 6.26756 11.5809 6.17174 11.6774C5.97207 11.8786 5.70623 11.9894 5.42315 11.9894C5.14754 11.9894 4.88657 11.8833 4.68828 11.6907C4.58484 11.5902 4.43793 11.548 4.29703 11.5781C4.15597 11.6082 4.03926 11.7067 3.98584 11.8406C3.8887 12.0842 3.65721 12.2416 3.39599 12.2416C3.04561 12.2416 2.7606 11.9566 2.7606 11.6062C2.7606 11.5086 2.78312 11.4138 2.8276 11.3246C2.88915 11.201 2.88798 11.0555 2.82434 10.9329C2.76075 10.8103 2.64242 10.7255 2.50593 10.7048C1.56993 10.5622 0.864082 9.73906 0.864082 8.79014C0.864082 7.83059 1.57984 7.00646 2.52891 6.87318C2.66661 6.85382 2.78663 6.76939 2.85128 6.64627C2.91594 6.52316 2.91747 6.37646 2.85525 6.25208C2.79242 6.12642 2.76055 5.99121 2.76055 5.8501C2.76055 5.35262 3.16527 4.94785 3.66281 4.94785C3.88687 4.94785 4.10178 5.0307 4.26795 5.18121C4.37134 5.27479 4.51342 5.31276 4.64965 5.28318C4.78587 5.2536 4.89948 5.16012 4.95468 5.03207C5.22119 4.41427 5.82802 4.01509 6.50072 4.01509C6.93904 4.01509 7.35423 4.18329 7.66979 4.48874C7.77537 4.59091 7.92562 4.63244 8.06882 4.59894C8.21191 4.56544 8.32816 4.46149 8.37741 4.32303C8.50774 3.95643 8.8565 3.7101 9.24516 3.7101C9.34296 3.7101 9.43938 3.72555 9.53179 3.756C9.66309 3.79926 9.80715 3.77715 9.91938 3.69638C10.0316 3.61566 10.0984 3.48614 10.0991 3.34793C10.104 2.42453 10.8589 1.67329 11.7821 1.67329C12.2839 1.67329 12.7558 1.89491 13.077 2.28138C13.1769 2.4016 13.3339 2.45843 13.4878 2.43012C13.6415 2.4017 13.7679 2.29247 13.8183 2.14445C13.9771 1.67766 14.4152 1.36413 14.9083 1.36413C15.2325 1.36413 15.5326 1.49543 15.7532 1.73383C15.9138 1.90732 16.184 1.91967 16.3597 1.76128C16.4736 1.6586 16.6199 1.60202 16.7718 1.60202C17.0765 1.60202 17.3325 1.8207 17.3806 2.12193C17.4025 2.25953 17.4894 2.37807 17.6141 2.44039C17.7387 2.5027 17.8857 2.50108 18.0089 2.43601C18.0989 2.38854 18.1957 2.36449 18.2967 2.36449C18.6373 2.36449 18.9143 2.64178 18.9143 2.9826C18.9143 3.02942 18.9083 3.07745 18.896 3.1294C18.8618 3.27377 18.904 3.42565 19.0079 3.53163C19.1118 3.63762 19.2628 3.68291 19.4078 3.65144C19.5228 3.62654 19.6418 3.61393 19.7612 3.61393C20.6896 3.61393 21.4448 4.36893 21.4448 5.29696C21.4447 5.81162 21.2131 6.29132 20.8094 6.61313Z" fill="black"/>
<path d="M17.3326 5.86447C17.2887 5.88343 17.2452 5.90335 17.2021 5.92425C16.7486 5.07399 15.7078 4.69875 14.8076 5.08746C14.6866 5.13971 14.5715 5.20483 14.4643 5.28123C13.9324 4.80067 13.1602 4.65915 12.4716 4.95647C12.1708 5.08639 11.9121 5.29185 11.718 5.55099C11.1504 5.3954 10.5398 5.43504 9.99443 5.67055C8.97049 6.11268 8.34186 7.15675 8.4301 8.26854C8.44804 8.49479 8.63724 8.66644 8.86033 8.66644C8.87182 8.66644 8.88336 8.66599 8.895 8.66507C9.13289 8.64621 9.3104 8.43806 9.29149 8.20017C9.23252 7.45712 9.65264 6.7594 10.337 6.46387C10.787 6.26954 11.2823 6.27188 11.7315 6.47043C11.9476 6.56594 12.2004 6.47017 12.2989 6.25546C12.4034 6.02774 12.5864 5.84815 12.8142 5.74979C13.2712 5.55246 13.7967 5.71436 14.0637 6.13484C14.1384 6.25246 14.2652 6.32688 14.4044 6.33461C14.5433 6.34223 14.6778 6.28256 14.7652 6.17398C14.869 6.04497 14.9985 5.94631 15.1502 5.88078C15.6609 5.66028 16.2558 5.89634 16.4763 6.40704C16.5068 6.47775 16.5287 6.55278 16.5431 6.63639C16.5683 6.78279 16.667 6.9059 16.8044 6.96248C16.9418 7.0191 17.0985 7.00106 17.2194 6.91495C17.3622 6.81329 17.5155 6.72682 17.6752 6.65789C17.8942 6.5633 17.9951 6.30904 17.9006 6.08996C17.8059 5.87077 17.5516 5.76992 17.3326 5.86447Z" fill="black"/>
</svg>
