<svg width="24" height="23" viewBox="0 0 24 23" fill="none" xmlns="http://www.w3.org/2000/svg">
<path d="M10.025 9.84531C10.0588 9.82742 10.0913 9.8103 10.1222 9.794L10.1673 9.97431C10.1399 10.0004 10.1094 10.0295 10.0761 10.0617C9.91598 10.2166 9.69049 10.4412 9.42672 10.7226C8.90005 11.2844 8.21653 12.0769 7.59558 12.995C7.56454 13.0409 7.53374 13.0865 7.50316 13.1317C6.59102 14.4812 5.87137 15.546 4.79269 16.3304C4.48808 16.5519 4.23579 16.6749 4.00512 16.7385C3.77642 16.8017 3.54922 16.812 3.2861 16.7826C3.01634 16.7525 2.71862 16.6822 2.34322 16.5864C2.28775 16.5723 2.23079 16.5577 2.17228 16.5426C1.84094 16.4575 1.45984 16.3595 1.01899 16.2667C0.793864 16.2193 0.7326 16.1586 0.723616 16.1478C0.723567 16.1473 0.723522 16.1465 0.723491 16.1456C0.723134 16.1353 0.725086 16.1063 0.745331 16.054C0.787768 15.9443 0.886721 15.7919 1.05733 15.6001C1.22404 15.4127 1.44162 15.207 1.69728 14.9898C2.72589 14.116 4.263 13.1463 5.21063 12.5596C6.32678 11.8687 7.6589 11.1226 8.7149 10.5478C9.24229 10.2608 9.69959 10.0172 10.025 9.84531Z" stroke="black" stroke-width="0.75"/>
<path d="M13.6821 9.84531C13.6482 9.82742 13.6158 9.8103 13.5848 9.794L13.5397 9.97431C13.5672 10.0004 13.5976 10.0295 13.6309 10.0617C13.7911 10.2166 14.0165 10.4412 14.2803 10.7226C14.807 11.2844 15.4905 12.0769 16.1115 12.995C16.1425 13.0409 16.1733 13.0865 16.2039 13.1317C17.116 14.4812 17.8357 15.546 18.9143 16.3304C19.219 16.5519 19.4712 16.6749 19.7019 16.7385C19.9306 16.8017 20.1578 16.812 20.4209 16.7826C20.6907 16.7525 20.9884 16.6822 21.3638 16.5864C21.4193 16.5723 21.4762 16.5577 21.5348 16.5426C21.8661 16.4575 22.2472 16.3595 22.688 16.2667C22.9132 16.2193 22.9744 16.1586 22.9834 16.1478C22.9835 16.1473 22.9835 16.1465 22.9835 16.1456C22.9839 16.1353 22.9819 16.1063 22.9617 16.054C22.9193 15.9443 22.8203 15.7919 22.6497 15.6001C22.483 15.4127 22.2654 15.207 22.0098 14.9898C20.9811 14.116 19.444 13.1463 18.4964 12.5596C17.3803 11.8687 16.0481 11.1226 14.9921 10.5478C14.4647 10.2608 14.0074 10.0172 13.6821 9.84531Z" stroke="black" stroke-width="0.75"/>
<path d="M13.7656 15.0354C13.7656 16.353 13.4797 18.056 13.0482 19.4256C12.8321 20.1113 12.5859 20.6929 12.3335 21.0949C12.2071 21.2962 12.0885 21.4372 11.9843 21.5242C11.8801 21.6111 11.8146 21.6247 11.7835 21.6247C11.7541 21.6247 11.6937 21.6126 11.5977 21.5292C11.5005 21.4446 11.3902 21.3061 11.2734 21.1056C11.0403 20.7053 10.8197 20.1248 10.6297 19.4383C10.2505 18.0685 10.0156 16.3611 10.0156 15.0354C10.0156 13.6933 10.2576 13.1058 10.5318 12.8351C10.7989 12.5713 11.1837 12.5176 11.7835 12.5176C12.3797 12.5176 12.8347 12.5692 13.1601 12.8515C13.4773 13.1268 13.7656 13.7112 13.7656 15.0354Z" stroke="black" stroke-width="0.75"/>
<path d="M9.75 14.2861H13.9286M9.75 16.2147H14.0357M10.0714 18.2504H13.6071M10.5 20.0718H13.0714" stroke="black" stroke-width="0.75"/>
<path d="M11.9833 11.9929L11.8893 11.9694L11.7957 11.9944C11.4977 12.0739 11.3309 12.0096 11.212 11.9042C11.0678 11.7764 10.9419 11.5394 10.8486 11.1863C10.6626 10.4827 10.6602 9.54435 10.6602 8.82101C10.6602 8.18596 10.8437 7.91815 11.0221 7.78722C11.2255 7.63795 11.5221 7.58887 11.8923 7.58887C12.264 7.58887 12.5239 7.63886 12.6957 7.77709C12.8503 7.9014 13.0173 8.16884 13.0173 8.82101C13.0173 8.96839 13.0193 9.12274 13.0213 9.28103C13.0296 9.92546 13.0387 10.635 12.9183 11.2046C12.8436 11.5576 12.7315 11.7859 12.598 11.907C12.4899 12.005 12.3193 12.0769 11.9833 11.9929Z" stroke="black" stroke-width="0.75"/>
<path d="M13.3387 6.24986C13.3387 6.36912 13.3176 6.4461 13.2896 6.49878C13.2632 6.54831 13.2185 6.59943 13.1302 6.64889C12.9339 6.75879 12.5618 6.83915 11.8923 6.83915C11.2258 6.83915 10.8183 6.75989 10.5885 6.64228C10.481 6.58727 10.4247 6.52999 10.393 6.47846C10.3614 6.42723 10.3387 6.35666 10.3387 6.24986C10.3387 6.0348 10.4321 5.79045 10.6614 5.59433C10.8906 5.39826 11.2795 5.232 11.8923 5.232C12.5053 5.232 12.8593 5.39801 13.0572 5.58318C13.2555 5.76874 13.3387 6.01194 13.3387 6.24986Z" stroke="black" stroke-width="0.75"/>
<path d="M11.4637 4.85714V4.85714C10.9733 3.66603 10.1634 2.63352 9.12333 1.8735L7.92801 1M10.7137 7.96429L8.35618 7.15134C7.90762 6.99666 7.60658 6.57443 7.60658 6.09995V6.09995C7.60658 5.72549 7.41814 5.37617 7.10521 5.17052L3.85658 3.03571M10.6066 9.25L8.58724 9.32212C7.97184 9.3441 7.38374 9.06744 7.00829 8.57936V8.57936C6.70495 8.18502 6.25947 7.9249 5.76696 7.85454L2.78516 7.42857M9.85658 14.9286L9.57905 15.129C8.51776 15.8955 7.78535 17.0348 7.5286 18.3185V18.3185C7.43814 18.7708 7.28777 19.2091 7.08148 19.6216L7.02857 19.7275C6.843 20.0986 6.61875 20.4491 6.35954 20.7731L6.22696 20.9388C6.00474 21.2166 5.7483 21.4651 5.46373 21.6786V21.6786" stroke="black" stroke-width="0.75"/>
<path d="M12.4269 5.07199V5.07199C12.9174 3.88087 13.7273 2.84837 14.7673 2.08834L15.9626 1.21484M13.1769 8.17913L15.5344 7.36618C15.983 7.2115 16.284 6.78928 16.284 6.31479V6.31479C16.284 5.94033 16.4725 5.59101 16.7854 5.38537L20.034 3.25056M13.284 9.46484L15.3034 9.53696C15.9188 9.55894 16.5069 9.28229 16.8823 8.7942V8.7942C17.1857 8.39987 17.6312 8.13975 18.1237 8.06939L21.1055 7.64342M14.034 15.1434L14.3116 15.3439C15.3729 16.1103 16.1053 17.2496 16.362 18.5333V18.5333C16.4525 18.9857 16.6029 19.4239 16.8091 19.8365L16.8621 19.9423C17.0476 20.3134 17.2719 20.6639 17.5311 20.9879L17.6637 21.1537C17.8859 21.4314 18.1423 21.68 18.4269 21.8934V21.8934" stroke="black" stroke-width="0.75"/>
</svg>
