<svg width="24" height="24" viewBox="0 0 24 24" fill="none" xmlns="http://www.w3.org/2000/svg">
<path d="M19.2642 15C19.2642 18.539 16.0391 21.5 11.9407 21.5C7.84229 21.5 4.61719 18.539 4.61719 15C4.61719 14.1173 4.87528 12.9782 5.33808 11.7038C5.79819 10.4367 6.44891 9.06759 7.20631 7.73479C8.63648 5.21812 10.4114 2.89281 11.943 1.63355C12.5279 2.11767 13.2194 2.86485 13.9482 3.79581C14.7969 4.87988 15.6748 6.18553 16.4679 7.55133C17.2613 8.9176 17.9646 10.3352 18.4682 11.6425C18.9755 12.9597 19.2642 14.125 19.2642 15Z" stroke="black"/>
<path d="M21.5002 9.66667C21.5002 11.7165 19.5448 13.5 16.9708 13.5C14.3968 13.5 12.4414 11.7165 12.4414 9.66667C12.4414 9.15533 12.5981 8.47632 12.892 7.69692C13.183 6.92527 13.596 6.0879 14.0784 5.27035C14.959 3.77821 16.037 2.40886 16.9715 1.63199C17.3098 1.91962 17.7056 2.33766 18.1265 2.85534C18.6659 3.51887 19.2252 4.31972 19.7309 5.15836C20.237 5.99751 20.6839 6.86551 21.0027 7.66265C21.3257 8.47017 21.5002 9.16337 21.5002 9.66667Z" fill="#FFFAFA" stroke="black"/>
<path d="M10.3235 19.6667C10.3235 21.1594 8.87405 22.5 6.91176 22.5C4.94948 22.5 3.5 21.1594 3.5 19.6667C3.5 19.2944 3.61623 18.7877 3.84265 18.1939C4.06607 17.608 4.38403 16.97 4.75658 16.3456C5.41646 15.2397 6.21544 14.2297 6.9113 13.6352C7.15127 13.8468 7.42921 14.1409 7.7261 14.5021C8.14189 15.0079 8.57383 15.6194 8.96464 16.2604C9.35578 16.9019 9.70021 17.5639 9.94525 18.1697C10.1946 18.7862 10.3235 19.3025 10.3235 19.6667Z" fill="#FFFAFA" stroke="black"/>
<path d="M19.264 20.6667C19.264 21.5986 18.3251 22.5 16.9699 22.5C15.6147 22.5 14.6758 21.5986 14.6758 20.6667C14.6758 20.4342 14.7511 20.1005 14.9099 19.6923C15.0656 19.2923 15.2883 18.8538 15.5509 18.4226C15.9893 17.7024 16.5099 17.0495 16.9678 16.6404C17.1101 16.7729 17.2714 16.9443 17.4444 17.1505C17.7364 17.4987 18.0408 17.9209 18.3166 18.3642C18.5928 18.8081 18.8345 19.2639 19.0056 19.6783C19.1811 20.1036 19.264 20.4425 19.264 20.6667Z" fill="#FFFAFA" stroke="black"/>
</svg>
