<?xml version="1.0" encoding="iso-8859-1"?>
<!-- Generator: Adobe Illustrator 17.1.0, SVG Export Plug-In . SVG Version: 6.00 Build 0)  -->
<!DOCTYPE svg PUBLIC "-//W3C//DTD SVG 1.1//EN" "http://www.w3.org/Graphics/SVG/1.1/DTD/svg11.dtd">
<svg version="1.1" id="Capa_1" xmlns="http://www.w3.org/2000/svg" xmlns:xlink="http://www.w3.org/1999/xlink" x="0px" y="0px"
	 viewBox="0 0 442 442" style="enable-background:new 0 0 442 442;" xml:space="preserve">
<g>
	<path d="M432,70.438h-43.642v-4.774c0-16.114-13.11-29.224-29.224-29.224s-29.224,13.11-29.224,29.224v4.774h-33.641v-4.774
		c0-16.114-13.11-29.224-29.224-29.224s-29.224,13.11-29.224,29.224v4.774h-33.642v-4.774c0-16.114-13.11-29.224-29.224-29.224
		s-29.224,13.11-29.224,29.224v4.774h-33.642v-4.774c0-16.114-13.11-29.224-29.224-29.224c-16.114,0-29.224,13.11-29.224,29.224
		v4.774H10c-5.523,0-10,4.477-10,10v315.124c0,5.523,4.477,10,10,10h422c5.523,0,10-4.477,10-10V80.438
		C442,74.915,437.523,70.438,432,70.438z M359.134,56.439c5.086,0,9.224,4.138,9.224,9.224v29.548c0,5.086-4.138,9.224-9.224,9.224
		s-9.224-4.138-9.224-9.224V80.447c0-0.003,0-0.006,0-0.01s0-0.006,0-0.01V65.663C349.91,60.577,354.048,56.439,359.134,56.439z
		 M267.045,56.439c5.086,0,9.224,4.138,9.224,9.224v29.548c0,5.086-4.138,9.224-9.224,9.224s-9.224-4.138-9.224-9.224V80.447
		c0-0.003,0-0.006,0-0.01s0-0.006,0-0.01V65.663C257.821,60.577,261.958,56.439,267.045,56.439z M165.731,65.663
		c0-5.086,4.138-9.224,9.224-9.224s9.224,4.138,9.224,9.224v14.765c0,0.003,0,0.006,0,0.01s0,0.006,0,0.01v14.764
		c0,5.086-4.138,9.224-9.224,9.224s-9.224-4.138-9.224-9.224V65.663z M82.866,56.439c5.086,0,9.224,4.138,9.224,9.224v29.548
		c0,5.086-4.138,9.224-9.224,9.224c-5.086,0-9.224-4.138-9.224-9.224V80.447c0-0.003,0-0.006,0-0.01s0-0.006,0-0.01V65.663
		C73.642,60.577,77.779,56.439,82.866,56.439z M53.642,90.438v4.774c0,16.114,13.11,29.224,29.224,29.224
		c16.114,0,29.224-13.11,29.224-29.224v-4.774h33.642v4.774c0,16.114,13.11,29.224,29.224,29.224s29.224-13.11,29.224-29.224v-4.774
		h33.642v4.774c0,16.114,13.11,29.224,29.224,29.224s29.224-13.11,29.224-29.224v-4.774h33.641v4.774
		c0,16.114,13.11,29.224,29.224,29.224s29.224-13.11,29.224-29.224v-4.774H422v47.738H20V90.438H53.642z M20,385.561V158.175h402
		v227.386H20z"/>
	<path d="M96.485,204.926H63.974c-5.523,0-10,4.477-10,10s4.477,10,10,10h32.511c5.523,0,10-4.477,10-10
		S102.008,204.926,96.485,204.926z"/>
	<path d="M190.312,204.926h-32.511c-5.523,0-10,4.477-10,10s4.477,10,10,10h32.511c5.523,0,10-4.477,10-10
		S195.835,204.926,190.312,204.926z"/>
	<path d="M284.14,204.926h-32.511c-5.523,0-10,4.477-10,10s4.477,10,10,10h32.511c5.523,0,10-4.477,10-10
		S289.663,204.926,284.14,204.926z"/>
	<path d="M377.967,204.926h-32.511c-5.523,0-10,4.477-10,10s4.477,10,10,10h32.511c5.523,0,10-4.477,10-10
		S383.49,204.926,377.967,204.926z"/>
	<path d="M96.485,261.375H63.974c-5.523,0-10,4.477-10,10s4.477,10,10,10h32.511c5.523,0,10-4.477,10-10
		S102.008,261.375,96.485,261.375z"/>
	<path d="M190.312,261.375h-32.511c-5.523,0-10,4.477-10,10s4.477,10,10,10h32.511c5.523,0,10-4.477,10-10
		S195.835,261.375,190.312,261.375z"/>
	<path d="M284.14,261.375h-32.511c-5.523,0-10,4.477-10,10s4.477,10,10,10h32.511c5.523,0,10-4.477,10-10
		S289.663,261.375,284.14,261.375z"/>
	<path d="M377.967,261.375h-32.511c-5.523,0-10,4.477-10,10s4.477,10,10,10h32.511c5.523,0,10-4.477,10-10
		S383.49,261.375,377.967,261.375z"/>
	<path d="M96.485,317.823H63.974c-5.523,0-10,4.477-10,10s4.477,10,10,10h32.511c5.523,0,10-4.477,10-10
		S102.008,317.823,96.485,317.823z"/>
	<path d="M190.312,317.823h-32.511c-5.523,0-10,4.477-10,10s4.477,10,10,10h32.511c5.523,0,10-4.477,10-10
		S195.835,317.823,190.312,317.823z"/>
	<path d="M284.14,317.823h-32.511c-5.523,0-10,4.477-10,10s4.477,10,10,10h32.511c5.523,0,10-4.477,10-10
		S289.663,317.823,284.14,317.823z"/>
	<path d="M377.967,317.823h-32.511c-5.523,0-10,4.477-10,10s4.477,10,10,10h32.511c5.523,0,10-4.477,10-10
		S383.49,317.823,377.967,317.823z"/>
</g>
<g>
</g>
<g>
</g>
<g>
</g>
<g>
</g>
<g>
</g>
<g>
</g>
<g>
</g>
<g>
</g>
<g>
</g>
<g>
</g>
<g>
</g>
<g>
</g>
<g>
</g>
<g>
</g>
<g>
</g>
</svg>
