<?xml version="1.0" encoding="iso-8859-1"?>
<!-- Generator: Adobe Illustrator 18.1.1, SVG Export Plug-In . SVG Version: 6.00 Build 0)  -->
<svg version="1.1" id="Capa_1" xmlns="http://www.w3.org/2000/svg" xmlns:xlink="http://www.w3.org/1999/xlink" x="0px" y="0px"
	 viewBox="0 0 201.712 201.712" style="enable-background:new 0 0 201.712 201.712;" xml:space="preserve">
<g>
	<g>
		<path style="fill:#010002;" d="M168.738,78.689c-6.199-11.366-22.006-15.919-30.417-18.148
			c6.428-7.329,19.362-22.715,16.466-36.272c-1.378-6.413-6.023-11.459-13.804-14.995c-0.705-0.322-2.97-1.557-5.043-2.684
			c-6.936-3.769-10.067-5.397-11.481-5.748c-4.105-1.02-8.052-1.117-11.61-0.268c-14.434,3.4-20.013,20.79-22.726,29.429
			c-6.31-5.186-18.589-14.981-30.596-14.981c-1.575,0-3.11,0.172-4.563,0.515c-5.601,1.317-10.214,5.089-13.736,11.213
			c-0.14,0.254-0.744,1.26-1.553,2.602l-0.19,0.315c-3.837,6.352-5.601,9.319-5.952,10.078c-3.686,8.128-4.098,15.5-1.213,21.899
			c5.35,11.875,20.371,16.917,28.473,19.415c-5.851,7.158-17.382,22.021-14.251,35.316c1.557,6.571,6.399,11.717,14.412,15.31
			c0.469,0.211,2.892,1.578,4.846,2.677l0.419,0.236c6.098,3.45,8.292,4.645,9.276,4.96c5.071,1.6,9.91,1.897,14.244,0.877
			c12.776-3.01,18.764-16.921,21.405-24.082c7.347,12.834,20.131,43.243,5.712,82.092l-0.34,0.898l6.399,2.369l0.329-0.902
			c13.374-36.032,4.613-65.582-2.96-81.591c7.816,4.688,14.888,7.057,21.079,7.057c1.743,0,3.439-0.19,5.043-0.565
			c6.807-1.603,12.122-6.506,15.786-14.57c0.211-0.469,2.154-3.847,2.881-5.132c3.343-5.823,4.499-7.909,4.785-8.775
			C172.074,90.352,171.709,84.118,168.738,78.689z M164.2,95.302c-0.258,0.651-2.799,5.107-4.173,7.505l-0.132,0.233
			c-1.872,3.264-2.859,4.996-3.149,5.633c-2.859,6.292-6.803,10.064-11.717,11.22c-1.177,0.272-2.434,0.419-3.74,0.419
			c-10.873,0-23.209-9.513-27.972-13.217l-0.748-0.859l-0.179,0.14l-3.228-2.512l-2.831,8.239
			c-2.122,5.97-7.079,19.956-17.969,22.525c-3.267,0.773-7.047,0.508-11.012-0.744c-0.709-0.258-5.451-2.928-8.192-4.484
			c-3.099-1.75-5.032-2.834-5.751-3.16c-6.238-2.791-9.946-6.567-11.041-11.234c-2.609-11.08,9.359-25.671,13.872-31.165
			c0.966-1.192,1.675-2.047,2.083-2.656l2.015-3.049l-3.389-1.364c-0.755-0.308-1.882-0.659-3.318-1.099
			c-6.936-2.119-21.369-6.531-25.864-16.488c-2.144-4.767-1.743-10.475,1.206-16.957c0.329-0.684,3.987-6.753,5.63-9.484
			c0.948-1.564,1.664-2.759,1.814-3.031c2.663-4.624,6.002-7.44,9.917-8.367c1.027-0.24,2.112-0.361,3.25-0.361
			c10.207,0,22.225,9.899,27.367,14.129c1.335,1.102,2.301,1.9,3.01,2.373l3.021,1.99l1.385-3.328
			c0.408-0.977,0.837-2.33,1.385-4.083c2.512-8.045,7.193-23.026,18.467-25.682c2.641-0.619,5.651-0.53,8.793,0.243
			c0.956,0.258,7.176,3.636,9.835,5.078l0.24,0.132c2.82,1.528,4.581,2.48,5.422,2.867c5.97,2.716,9.488,6.349,10.436,10.812
			c2.401,11.216-10.425,25.778-16.008,32.117c-1.177,1.335-1.954,2.212-2.373,2.842l-2.072,3.078l3.45,1.364
			c0.82,0.326,2.04,0.651,3.865,1.134c7.297,1.922,22.475,5.923,27.697,15.5C165.675,85.539,165.897,90.051,164.2,95.302z"/>
		<path style="fill:#010002;" d="M100.822,52.459c-1.396,0-2.799,0.165-4.166,0.487c-9.738,2.298-15.797,12.089-13.503,21.827
			c1.943,8.231,9.208,13.983,17.662,13.983h0.007c1.385,0,2.792-0.161,4.159-0.487c4.713-1.109,8.711-3.99,11.259-8.12
			c2.562-4.126,3.35-8.997,2.244-13.707C116.544,58.21,109.276,52.459,100.822,52.459z M110.6,76.659
			c-1.625,2.616-4.155,4.445-7.147,5.15c-0.866,0.204-1.754,0.304-2.641,0.304c-5.365,0-9.967-3.647-11.191-8.865
			c-1.457-6.177,2.384-12.383,8.561-13.839c0.866-0.204,1.754-0.308,2.641-0.308c5.365,0,9.967,3.647,11.191,8.865
			C112.726,70.955,112.217,74.04,110.6,76.659z"/>
	</g>
</g>
<g>
</g>
<g>
</g>
<g>
</g>
<g>
</g>
<g>
</g>
<g>
</g>
<g>
</g>
<g>
</g>
<g>
</g>
<g>
</g>
<g>
</g>
<g>
</g>
<g>
</g>
<g>
</g>
<g>
</g>
</svg>
