<svg width="25" height="24" viewBox="0 0 25 24" fill="none" xmlns="http://www.w3.org/2000/svg">
<path fill-rule="evenodd" clip-rule="evenodd" d="M3.21191 14.826C3.09201 14.9297 2.9795 15.032 2.87582 15.1317C1.0326 16.9049 0.491184 19.1623 1.64333 20.2708C2.03233 20.645 2.57485 20.8435 3.20764 20.8512C3.21555 21.4599 3.42198 21.9818 3.81092 22.356C4.21961 22.7491 4.77871 22.9374 5.41208 22.9374C6.56457 22.9374 7.96335 22.3147 9.15287 21.1704C9.2566 21.0706 9.36287 20.9623 9.47065 20.847C10.1437 22.127 11.2633 22.9182 12.4736 22.9182C13.6834 22.9182 14.8027 22.1273 15.4758 20.8475C15.5834 20.9627 15.6895 21.0708 15.793 21.1704C16.9824 22.3146 18.3814 22.9374 19.5338 22.9374C20.1672 22.9374 20.7262 22.7492 21.1349 22.356C21.5239 21.9818 21.7305 21.4599 21.7388 20.851C22.3714 20.8433 22.9139 20.6446 23.303 20.2702C24.4552 19.1618 23.9139 16.9045 22.0706 15.1312C21.967 15.0316 21.8548 14.9296 21.7351 14.826C23.0654 14.1791 23.8878 13.102 23.8878 11.9374C23.8878 10.7731 23.0653 9.69601 21.7348 9.04852C21.8546 8.94495 21.967 8.84277 22.0705 8.74314C23.9138 6.96992 24.4552 4.71256 23.303 3.60417C22.9138 3.22977 22.3714 3.03113 21.7389 3.02357C21.731 2.41509 21.5246 1.89328 21.1354 1.51889C19.9832 0.410551 17.6368 0.931244 15.7935 2.70458C15.69 2.80415 15.584 2.91217 15.4764 3.0273C14.8039 1.74726 13.6842 0.955971 12.4736 0.955971C11.2633 0.955971 10.1436 1.74721 9.47053 3.02724C9.36299 2.91211 9.25689 2.8041 9.15339 2.70452C7.31011 0.931245 4.96376 0.41044 3.81144 1.51884C3.42233 1.89328 3.21578 2.41509 3.20776 3.02369C2.57485 3.03169 2.03233 3.2305 1.64339 3.60467C0.491182 4.71312 1.0326 6.97042 2.87582 8.7437C2.97927 8.84327 3.09155 8.94528 3.21116 9.04875C1.88083 9.69629 1.05859 10.7733 1.05859 11.9375C1.05859 13.1016 1.88118 14.1786 3.21191 14.826ZM4.0643 14.1579C2.82685 13.6971 2.04047 12.8436 2.04047 11.9374C2.04047 11.0312 2.82632 10.1775 4.06326 9.71663C4.46418 10.0041 4.90275 10.2856 5.35497 10.5398C5.42626 10.2166 5.52072 9.90164 5.63662 9.59663C4.87121 9.14933 4.12373 8.60845 3.57013 8.07587C2.0191 6.58375 1.68064 4.9047 2.33764 4.27266C2.61649 4.00445 3.08618 3.90899 3.65977 4.00362C3.81693 4.02962 3.97743 3.98045 4.09006 3.87193C4.2028 3.76341 4.25369 3.60894 4.22654 3.45781C4.12772 2.9065 4.22683 2.45515 4.50574 2.18683C5.16268 1.55484 6.90811 1.88045 8.45908 3.37252C9.02098 3.91308 9.59191 4.64579 10.0611 5.39365C10.3803 5.28579 10.7098 5.19873 11.0477 5.13419C10.7764 4.68344 10.4739 4.24587 10.1649 3.84704C10.644 2.65674 11.5314 1.90056 12.4736 1.90056C13.4161 1.90056 14.3035 2.65685 14.7819 3.84726C14.4729 4.24609 14.1704 4.68367 13.8992 5.13446C14.2371 5.19907 14.5665 5.28619 14.8858 5.39412C15.355 4.64595 15.926 3.91302 16.4879 3.37252C17.2129 2.67507 18.0501 2.17916 18.8455 1.97624C19.2519 1.87256 19.9996 1.76204 20.4412 2.18683C20.7201 2.45515 20.8191 2.90661 20.7199 3.45803C20.6927 3.60933 20.7436 3.76397 20.8565 3.87254C20.9693 3.98117 21.1302 4.03018 21.2873 4.00395C21.8605 3.90849 22.3298 4.00373 22.6087 4.27205C23.0503 4.69689 22.9354 5.41617 22.8276 5.80712C22.6166 6.5723 22.1012 7.37781 21.3762 8.07526C20.8226 8.6079 20.0747 9.14906 19.3089 9.59668C19.4248 9.9017 19.5192 10.2167 19.5905 10.5399C20.0428 10.2856 20.4815 10.004 20.8825 9.71646C22.1199 10.1773 22.9059 11.0311 22.9059 11.9374C22.9059 12.8441 22.1199 13.6977 20.8827 14.1579C20.4887 13.8754 20.0583 13.5985 19.6143 13.3477C19.5482 13.6738 19.4586 13.9918 19.3472 14.3C20.0995 14.7431 20.8317 15.2752 21.3763 15.7991C22.9273 17.2912 23.2657 18.9703 22.6087 19.6023C22.3298 19.8705 21.8607 19.9658 21.2876 19.8708C21.1304 19.8448 20.9699 19.8937 20.8571 20.0021C20.7443 20.1106 20.6932 20.265 20.7202 20.4161C20.8187 20.9681 20.7194 21.4199 20.4406 21.6881C19.7836 22.3201 18.0383 21.9945 16.4873 20.5025C15.951 19.9866 15.4067 19.2957 14.9505 18.5837C14.6324 18.6945 14.304 18.7846 13.967 18.8522C14.2203 19.2634 14.4981 19.6618 14.7814 20.0275C14.3023 21.2175 13.4152 21.9736 12.4736 21.9736C11.5314 21.9736 10.644 21.2174 10.165 20.0271C10.4482 19.6615 10.726 19.2634 10.9793 18.8524C10.6422 18.7848 10.3137 18.6947 9.99551 18.5839C9.53912 19.2958 8.99469 19.9866 8.45845 20.5024C7.73353 21.1998 6.89622 21.6957 6.10084 21.8987C5.69457 22.0023 4.94678 22.1129 4.50522 21.6881C4.22654 21.42 4.1276 20.9685 4.22654 20.4166C4.25369 20.2653 4.20275 20.1109 4.08995 20.0024C3.97715 19.8938 3.81652 19.8448 3.65936 19.8709C3.08548 19.9661 2.61626 19.8708 2.33758 19.6028C1.68064 18.9708 2.01916 17.2917 3.57013 15.7996C4.1146 15.2758 4.84651 14.7439 5.59858 14.3008C5.48714 13.9926 5.39746 13.6746 5.33132 13.3485C4.88786 13.5991 4.45795 13.8757 4.0643 14.1579ZM5.20867 12.4097C5.20054 12.2741 5.19641 12.1375 5.19641 12C5.19641 11.82 5.20347 11.6417 5.21734 11.4651H4.13194C3.86082 11.4651 3.641 11.6766 3.641 11.9374C3.641 12.1982 3.86082 12.4097 4.13194 12.4097H5.20867ZM6.30419 15.7145L3.77326 17.5275C3.5558 17.6833 3.51075 17.9792 3.6727 18.1884C3.76904 18.3129 3.91696 18.3787 4.06684 18.3787C4.16873 18.3787 4.2716 18.3482 4.35962 18.2851L6.88077 16.4791C6.67141 16.2375 6.47866 15.982 6.30419 15.7145ZM7.74753 17.3233L5.87483 19.7428C5.71288 19.952 5.75787 20.2478 5.97539 20.4036C6.06341 20.4667 6.16622 20.4972 6.26816 20.4972C6.41804 20.4972 6.5659 20.4314 6.6623 20.3069L8.53506 17.8874C8.25918 17.7163 7.99611 17.5277 7.74753 17.3233ZM11.9827 18.9844V19.9622C11.9827 20.223 12.2025 20.4345 12.4736 20.4345C12.7448 20.4345 12.9646 20.223 12.9646 19.9622V18.9843C12.802 18.9947 12.638 19 12.4727 19C12.3081 19 12.1447 18.9947 11.9827 18.9844ZM16.4109 17.8871L18.2839 20.307C18.3803 20.4315 18.5283 20.4972 18.6781 20.4972C18.78 20.4972 18.8828 20.4668 18.9709 20.4037C19.1884 20.2479 19.2334 19.952 19.0715 19.7428L17.1984 17.3229C16.9499 17.5274 16.6868 17.716 16.4109 17.8871ZM18.065 16.4787L20.5867 18.2851C20.6748 18.3482 20.7776 18.3787 20.8796 18.3787C21.0295 18.3787 21.1774 18.3129 21.2737 18.1884C21.4356 17.9792 21.3906 17.6833 21.1732 17.5275L18.6416 15.714C18.4671 15.9816 18.2744 16.2371 18.065 16.4787ZM19.7368 12.4097H20.8151C21.0862 12.4097 21.3061 12.1982 21.3061 11.9374C21.3061 11.6766 21.0862 11.4651 20.8151 11.4651H19.7281C19.742 11.6417 19.749 11.82 19.749 12C19.749 12.1375 19.7449 12.2741 19.7368 12.4097ZM18.5853 8.20102L21.173 6.34726C21.3905 6.19146 21.4355 5.89558 21.2736 5.68638C21.1117 5.47713 20.8042 5.43384 20.5866 5.58964L17.9975 7.44445C18.2104 7.68322 18.4069 7.93595 18.5853 8.20102ZM17.1391 6.62877L19.0716 4.13203C19.2335 3.92277 19.1885 3.62695 18.971 3.47114C18.7535 3.31534 18.4459 3.35868 18.2841 3.56788L16.3453 6.07267C16.6231 6.241 16.8883 6.42691 17.1391 6.62877ZM12.9645 5.01573V3.91266C12.9645 3.65184 12.7446 3.44036 12.4735 3.44036C12.2024 3.44036 11.9826 3.65184 11.9826 3.91266V5.01563C12.1446 5.00527 12.308 5 12.4727 5C12.638 5 12.802 5.0053 12.9645 5.01573ZM8.60084 6.07224L6.66241 3.56788C6.50052 3.35868 6.19296 3.31529 5.97544 3.47114C5.75799 3.62695 5.71293 3.92283 5.87489 4.13203L7.80704 6.62826C8.05785 6.42642 8.32301 6.24055 8.60084 6.07224ZM6.9483 7.44408L4.35967 5.5897C4.1421 5.4339 3.83466 5.47729 3.6727 5.68644C3.51075 5.89564 3.55575 6.19152 3.77326 6.34732L6.36044 8.20064C6.53883 7.93557 6.73535 7.68284 6.9483 7.44408Z" fill="black"/>
<path d="M14.875 14.0312H10.1094L9.03906 17H7.49219L11.8359 5.625H13.1484L17.5 17H15.9609L14.875 14.0312ZM10.5625 12.7969H14.4297L12.4922 7.47656L10.5625 12.7969Z" fill="black"/>
</svg>
