<svg width="24" height="24" viewBox="0 0 24 24" fill="none" xmlns="http://www.w3.org/2000/svg">
<path d="M20.2135 13.9267L18.757 13.2053L17.5974 11.577C17.5738 11.5438 17.5437 11.5158 17.509 11.4946C17.4742 11.4734 17.4356 11.4595 17.3953 11.4537L16.3895 11.3068V10.5755C16.3895 9.96086 16.1499 9.37042 15.7215 8.92965C15.701 8.54331 15.6241 8.16205 15.4932 7.79799L16.3636 7.60676C16.4109 7.59638 16.4551 7.57476 16.4922 7.54373C16.5294 7.51269 16.5586 7.47316 16.5773 7.42847L17.4272 5.39378L18.3076 4.72371C18.3713 4.67524 18.4131 4.60345 18.4239 4.52415C18.4346 4.44484 18.4134 4.36451 18.365 4.30083C18.3409 4.2693 18.311 4.2428 18.2767 4.22285C18.2425 4.20291 18.2046 4.1899 18.1654 4.18458C18.0861 4.17383 18.0057 4.19502 17.9421 4.24349L16.9973 4.96253C16.955 4.99461 16.9219 5.03733 16.9014 5.08634L16.0802 7.05102L15.2408 7.23552C14.8365 6.49433 14.2135 5.89587 13.4566 5.52173L13.6878 4.26763C13.7332 4.01998 13.831 3.7849 13.9748 3.57819C14.1185 3.37149 14.3048 3.19795 14.5212 3.06924L15.359 2.57022C15.3957 2.55139 15.4282 2.52524 15.4544 2.49338C15.4806 2.46153 15.4999 2.42464 15.5113 2.38499C15.5227 2.34535 15.5258 2.3038 15.5205 2.2629C15.5152 2.222 15.5016 2.18262 15.4804 2.1472C15.4593 2.11178 15.4312 2.08106 15.3977 2.05695C15.3642 2.03284 15.3262 2.01584 15.2859 2.007C15.2456 1.99817 15.204 1.99769 15.1635 2.00559C15.123 2.01349 15.0846 2.0296 15.0506 2.05293L14.2124 2.55074C13.922 2.72348 13.672 2.95636 13.4792 3.23372C13.2863 3.51109 13.155 3.82652 13.0942 4.15883L12.8852 5.29205C12.1077 5.0471 11.2738 5.0471 10.4963 5.29205L10.2875 4.15952C10.2267 3.82705 10.0954 3.51145 9.90243 3.23393C9.7095 2.95641 9.4594 2.72341 9.16894 2.55057L8.33093 2.05293C8.29692 2.0296 8.25849 2.01349 8.21801 2.00559C8.17754 1.99769 8.13587 1.99817 8.09558 2.007C8.0553 2.01584 8.01725 2.03284 7.98379 2.05695C7.95033 2.08106 7.92217 2.11178 7.90105 2.1472C7.87993 2.18262 7.86629 2.222 7.86098 2.2629C7.85567 2.3038 7.8588 2.34535 7.87017 2.38499C7.88155 2.42464 7.90093 2.46153 7.92712 2.49338C7.95331 2.52524 7.98576 2.55139 8.02245 2.57022L8.86012 3.06838C9.07663 3.19719 9.26305 3.37086 9.40686 3.57771C9.55066 3.78457 9.64851 4.01981 9.69382 4.26763L9.92488 5.52104C9.16804 5.89518 8.54501 6.49364 8.14074 7.23483L7.30134 7.05033L6.48075 5.08772C6.46028 5.03871 6.4272 4.99599 6.38487 4.96391L5.44012 4.24487C5.37644 4.1964 5.29611 4.17521 5.21681 4.18596C5.1375 4.19671 5.06571 4.23853 5.01724 4.30221C4.96876 4.36589 4.94757 4.44622 4.95832 4.52552C4.96907 4.60483 5.01089 4.67662 5.07457 4.72509L5.955 5.39516L6.80492 7.42985C6.8237 7.4742 6.85284 7.5134 6.88989 7.54418C6.92694 7.57496 6.97082 7.59642 7.01787 7.60676L7.88761 7.79799C7.75669 8.16205 7.67978 8.54331 7.65931 8.92965C7.23092 9.37042 6.99128 9.96086 6.99131 10.5755V11.3068L5.98552 11.4537C5.94525 11.4595 5.90658 11.4734 5.87185 11.4946C5.83711 11.5158 5.80703 11.5438 5.78343 11.577L4.62453 13.2053L3.168 13.9267C3.09622 13.9622 3.0415 14.0248 3.01588 14.1007C2.99025 14.1766 2.99582 14.2595 3.03135 14.3313C3.06688 14.4031 3.12947 14.4578 3.20535 14.4834C3.28123 14.5091 3.36418 14.5035 3.43596 14.468L4.96025 13.7127C5.00478 13.6906 5.04317 13.6579 5.07198 13.6174L6.20089 12.0325L6.992 11.917V15.5798C6.99153 16.2651 7.14188 16.9421 7.43239 17.5628L6.55541 17.9471C6.51361 17.9653 6.47651 17.9928 6.4469 18.0275C6.4173 18.0622 6.39597 18.1032 6.38453 18.1473L5.72222 20.6898L4.82799 21.9687C4.78208 22.0343 4.76409 22.1154 4.77798 22.1942C4.79186 22.273 4.8365 22.3431 4.90205 22.389C4.96761 22.4349 5.04872 22.4529 5.12754 22.439C5.20636 22.4251 5.27644 22.3805 5.32235 22.315L6.24848 20.9924C6.26903 20.963 6.28415 20.9301 6.29314 20.8953L6.93165 18.4413L7.72484 18.0938C8.1483 18.7627 8.73402 19.3136 9.42753 19.6953C10.121 20.0771 10.8998 20.2772 11.6914 20.2772C12.4831 20.2772 13.2618 20.0771 13.9554 19.6953C14.6489 19.3136 15.2346 18.7627 15.658 18.0938L16.4512 18.4413L17.0903 20.8946C17.0992 20.9294 17.1144 20.9623 17.1349 20.9917L18.061 22.3143C18.0822 22.3501 18.1105 22.3813 18.1443 22.4057C18.178 22.4301 18.2165 22.4472 18.2572 22.456C18.2979 22.4648 18.34 22.4651 18.3808 22.4569C18.4216 22.4486 18.4603 22.432 18.4944 22.4081C18.5285 22.3842 18.5572 22.3535 18.5789 22.3179C18.6005 22.2823 18.6145 22.2426 18.6201 22.2014C18.6256 22.1601 18.6226 22.1181 18.6111 22.0781C18.5997 22.038 18.5801 22.0008 18.5535 21.9687L17.6586 20.6907L16.997 18.1475C16.9855 18.1033 16.9642 18.0624 16.9346 18.0277C16.905 17.993 16.8679 17.9655 16.8261 17.9473L15.9498 17.5629C16.2403 16.9423 16.3907 16.2653 16.3902 15.58V11.916L17.1813 12.0315L18.3102 13.6163C18.339 13.6568 18.3774 13.6896 18.4219 13.7117L19.9462 14.4669C20.018 14.5025 20.1009 14.508 20.1767 14.4825C20.2526 14.4569 20.3151 14.4022 20.3507 14.3305C20.3862 14.2587 20.3918 14.1758 20.3662 14.1C20.3406 14.0241 20.2859 13.9615 20.2142 13.926L20.2135 13.9267ZM11.6907 5.71192C12.478 5.71668 13.2401 5.99005 13.8509 6.48681C14.4617 6.98357 14.8846 7.67395 15.0497 8.44374C14.7286 8.28678 14.376 8.20499 14.0186 8.20458H9.36293C9.00552 8.20499 8.65289 8.28678 8.33179 8.44374C8.49688 7.67395 8.9198 6.98357 9.5306 6.48681C10.1414 5.99005 10.9035 5.71668 11.6907 5.71192ZM10.4789 8.80809H12.9026C12.8347 9.07804 12.6786 9.31759 12.459 9.48873C12.2395 9.65988 11.9691 9.75282 11.6907 9.75282C11.4124 9.75282 11.142 9.65988 10.9225 9.48873C10.7029 9.31759 10.5468 9.07804 10.4789 8.80809ZM11.6907 19.6754C10.605 19.6741 9.56408 19.2423 8.79634 18.4746C8.0286 17.7068 7.59674 16.6659 7.59551 15.5801V10.5755C7.59601 10.1069 7.78238 9.65765 8.11373 9.32631C8.44508 8.99496 8.89434 8.80859 9.36293 8.80809H9.86384C9.92742 9.18952 10.1086 9.54156 10.382 9.81498C10.6555 10.0884 11.0076 10.2695 11.389 10.3331V17.1279C11.389 17.2079 11.4208 17.2847 11.4774 17.3413C11.534 17.3978 11.6107 17.4296 11.6907 17.4296C11.7708 17.4296 11.8475 17.3978 11.9041 17.3413C11.9607 17.2847 11.9925 17.2079 11.9925 17.1279V10.3331C12.3741 10.2697 12.7263 10.0886 13 9.8152C13.2736 9.54177 13.4549 9.18964 13.5185 8.80809H14.0186C14.4872 8.80859 14.9364 8.99496 15.2678 9.32631C15.5991 9.65765 15.7855 10.1069 15.786 10.5755V15.5798C15.7848 16.6656 15.353 17.7066 14.5853 18.4744C13.8175 19.2422 12.7766 19.6741 11.6907 19.6754Z" fill="black"/>
<path d="M15.0518 12.708C14.9717 12.708 14.895 12.7398 14.8384 12.7964C14.7818 12.853 14.75 12.9297 14.75 13.0098V14.0443C14.75 14.1244 14.7818 14.2011 14.8384 14.2577C14.895 14.3143 14.9717 14.3461 15.0518 14.3461C15.1318 14.3461 15.2085 14.3143 15.2651 14.2577C15.3217 14.2011 15.3535 14.1244 15.3535 14.0443V13.0098C15.3535 12.9297 15.3217 12.853 15.2651 12.7964C15.2085 12.7398 15.1318 12.708 15.0518 12.708Z" fill="black"/>
</svg>
