<svg width="24" height="24" viewBox="0 0 24 24" fill="none" xmlns="http://www.w3.org/2000/svg">
<path d="M23 9.28371C23 8.6112 22.7561 7.96259 22.3132 7.45741C22.1567 7.27896 21.8853 7.26117 21.7068 7.41757C21.5284 7.57402 21.5105 7.8455 21.667 8.02395C21.9724 8.37234 22.1406 8.81973 22.1406 9.28371C22.1406 10.338 21.2829 11.1957 20.2286 11.1957H15.0659L18.7207 7.9949C18.8992 7.83854 18.9172 7.56711 18.7608 7.38857C18.6045 7.21004 18.333 7.19207 18.1545 7.34839L15.4711 9.69853C15.4306 8.90343 14.9738 8.21666 14.315 7.85177C14.2696 7.14537 13.907 6.52417 13.3681 6.12941C13.4789 5.16747 14.2979 4.41797 15.289 4.41797C15.5264 4.41797 15.7187 4.2256 15.7187 3.98828C15.7187 3.75096 15.5264 3.55859 15.289 3.55859C13.9552 3.55859 12.8373 4.49854 12.5614 5.75069C12.3815 5.70583 12.1936 5.68164 12 5.68164C11.8065 5.68164 11.6186 5.70583 11.4387 5.75069C11.1628 4.49854 10.0449 3.55859 8.71104 3.55859C8.47373 3.55859 8.28136 3.75096 8.28136 3.98828C8.28136 4.2256 8.47373 4.41797 8.71104 4.41797C9.7022 4.41797 10.5211 5.16747 10.632 6.12941C10.0931 6.52417 9.73048 7.14537 9.6851 7.85177C9.02631 8.21671 8.56946 8.90348 8.52907 9.69853L5.73327 7.25C5.1901 6.77433 4.4934 6.51235 3.7714 6.51235C2.24321 6.51239 1 7.75561 1 9.28371C1 10.8118 2.24321 12.0551 3.77136 12.0551H4.0048C3.77191 12.3848 3.6345 12.7865 3.6345 13.22C3.6345 14.3153 4.52559 15.2064 5.6209 15.2064C6.15904 15.2064 6.68137 14.9837 7.05404 14.5955L7.81003 13.8078C7.71249 14.9065 8.04795 16.0276 8.79569 16.9067L11.6728 20.2893C11.7544 20.3853 11.8741 20.4406 12 20.4406C12.1261 20.4406 12.2457 20.3853 12.3273 20.2893L15.2044 16.9067C15.9521 16.0276 16.2876 14.9065 16.1901 13.8078L16.946 14.5955C17.3187 14.9837 17.841 15.2063 18.3791 15.2063C19.4745 15.2063 20.3655 14.3153 20.3655 13.2199C20.3655 12.7865 20.2281 12.3847 19.9952 12.055H20.2287C21.7568 12.0551 23 10.8118 23 9.28371V9.28371ZM14.1346 12.0551C14.4402 12.0551 14.7249 12.2144 14.8777 12.471C15.1591 12.944 15.3123 13.4658 15.342 13.9909H8.65802C8.68771 13.4658 8.84089 12.944 9.12238 12.471C9.27509 12.2145 9.5598 12.0551 9.86536 12.0551H14.1346V12.0551ZM10.6035 7.57226C10.7874 6.97573 11.3439 6.54101 12 6.54101C12.6561 6.54101 13.2126 6.97573 13.3964 7.57226H10.6035ZM10.7675 8.43164H13.2325C13.9946 8.43164 14.6145 9.05159 14.6145 9.81364C14.6145 10.5757 13.9946 11.1957 13.2325 11.1957H10.7675C10.0054 11.1957 9.38548 10.5757 9.38548 9.81364C9.38548 9.05163 10.0054 8.43164 10.7675 8.43164ZM1.85938 9.28371C1.85938 8.22943 2.71707 7.37173 3.77136 7.37173C4.28496 7.37173 4.78065 7.55808 5.16702 7.89646L8.93414 11.1956H3.77136C2.71707 11.1957 1.85938 10.338 1.85938 9.28371V9.28371ZM6.434 14.0004C6.22259 14.2207 5.9262 14.347 5.6209 14.347C4.99945 14.347 4.49387 13.8414 4.49387 13.22C4.49387 12.5776 5.01646 12.0551 5.6588 12.0551H8.30112L6.434 14.0004ZM12 19.3477L10.5521 17.6454H13.4479L12 19.3477ZM14.5498 16.3499L14.1788 16.786H9.82118L9.45023 16.3499C9.0752 15.9089 8.83037 15.3915 8.71994 14.8502H15.28C15.1696 15.3915 14.9248 15.9089 14.5498 16.3499ZM19.5062 13.22C19.5062 13.8414 19.0006 14.347 18.3791 14.347C18.0738 14.347 17.7774 14.2207 17.566 14.0004L15.6989 12.0551H18.3412C18.9836 12.0551 19.5062 12.5776 19.5062 13.22Z" fill="black"/>
<path d="M20.2266 7.37207C20.34 7.37207 20.4504 7.32609 20.5304 7.24617C20.6107 7.16625 20.6562 7.05539 20.6562 6.94238C20.6562 6.82937 20.6107 6.71852 20.5304 6.63859C20.4504 6.55867 20.34 6.5127 20.2266 6.5127C20.1136 6.5127 20.0027 6.55867 19.9228 6.63859C19.8429 6.71852 19.7969 6.82937 19.7969 6.94238C19.7969 7.05539 19.8429 7.16625 19.9228 7.24617C20.0027 7.32609 20.1136 7.37207 20.2266 7.37207Z" fill="black"/>
</svg>
