<svg width="24" height="24" viewBox="0 0 24 24" fill="none" xmlns="http://www.w3.org/2000/svg">
<g clip-path="url(#clip0_1282_5266)">
<path d="M23.9535 13.3941C23.9138 13.3278 23.8519 13.2776 23.7788 13.2524C23.7057 13.2272 23.6261 13.2287 23.5539 13.2565L21.9602 13.8705C19.6905 14.7527 17.7968 16.3944 16.6016 18.516C16.689 16.8528 17.1502 15.2306 17.951 13.7702C18.7518 12.3098 19.8716 11.0487 21.227 10.0808L21.5792 9.82992C21.6423 9.78473 21.6874 9.71861 21.7064 9.64331C21.7253 9.56802 21.717 9.48843 21.6829 9.4187C21.6487 9.34897 21.5909 9.29362 21.5198 9.26249C21.4486 9.23135 21.3688 9.22646 21.2943 9.24867C18.6914 10.0216 16.4391 11.6774 14.925 13.9313C15.2858 11.5245 16.2529 9.249 17.7354 7.31892L18.9002 5.79267C18.9474 5.73076 18.971 5.65409 18.9669 5.57635C18.9628 5.49861 18.9311 5.42487 18.8777 5.3683C18.8242 5.31173 18.7523 5.27602 18.6749 5.26754C18.5976 5.25907 18.5197 5.27839 18.4552 5.32204C16.188 6.85134 14.3641 8.95152 13.1677 11.4107C12.4909 8.14685 11.1658 5.05207 9.27072 2.30985C8.74204 1.54588 8.17076 0.812283 7.5596 0.112542C7.50799 0.0530881 7.43672 0.0141724 7.3588 0.0028958C7.28089 -0.00838079 7.20151 0.00873355 7.13517 0.0511158C7.06882 0.0934981 7.01992 0.158323 6.9974 0.233761C6.97487 0.309199 6.98022 0.390221 7.01247 0.462042L8.21247 3.14835C9.20589 5.36916 9.85673 7.72779 10.1428 10.1438C8.97469 8.22462 7.40633 6.58003 5.54472 5.32223C5.48027 5.27857 5.40239 5.25926 5.325 5.26773C5.24761 5.2762 5.17576 5.31191 5.12228 5.36848C5.0688 5.42505 5.03717 5.4988 5.03305 5.57654C5.02893 5.65427 5.05258 5.73095 5.09978 5.79285L6.26453 7.3191C7.74699 9.24913 8.71412 11.5245 9.07497 13.9313C7.56088 11.6772 5.30861 10.0213 2.7056 9.24829C2.63117 9.22599 2.55125 9.23083 2.48005 9.26193C2.40886 9.29304 2.35101 9.3484 2.31681 9.41816C2.2826 9.48791 2.27426 9.56755 2.29327 9.64288C2.31227 9.71821 2.35739 9.78436 2.4206 9.82954L2.77291 10.0804C4.1284 11.0484 5.24821 12.3095 6.04902 13.77C6.84984 15.2305 7.31105 16.8527 7.39835 18.516C6.20319 16.3944 4.30948 14.7527 2.03978 13.8705L0.446034 13.2563C0.373898 13.2285 0.294271 13.2271 0.221192 13.2523C0.148113 13.2775 0.0862738 13.3277 0.0465763 13.394C0.00687878 13.4603 -0.00812797 13.5385 0.00420166 13.6148C0.0165313 13.6911 0.0554056 13.7607 0.113971 13.8111L1.94997 15.3914C3.02498 16.3154 3.8876 17.4609 4.47875 18.7493C5.06991 20.0377 5.37565 21.4387 5.37503 22.8563V23.3438H3.26566C3.22257 23.3438 3.1799 23.3523 3.14009 23.3688C3.10028 23.3853 3.06411 23.4094 3.03364 23.4399C3.00317 23.4704 2.979 23.5065 2.96251 23.5463C2.94602 23.5862 2.93753 23.6288 2.93753 23.6719C2.93753 23.715 2.94602 23.7577 2.96251 23.7975C2.979 23.8373 3.00317 23.8735 3.03364 23.9039C3.06411 23.9344 3.10028 23.9586 3.14009 23.9751C3.1799 23.9916 3.22257 24 3.26566 24H20.7345C20.8215 24 20.905 23.9655 20.9665 23.9039C21.028 23.8424 21.0626 23.7589 21.0626 23.6719C21.0626 23.5849 21.028 23.5014 20.9665 23.4399C20.905 23.3784 20.8215 23.3438 20.7345 23.3438H18.6249C18.601 22.2643 18.7296 21.1869 19.0067 20.1434C19.5357 18.2963 20.5936 16.6444 22.05 15.3914L23.8863 13.8111C23.9448 13.7606 23.9836 13.6911 23.9959 13.6148C24.0082 13.5386 23.9932 13.4604 23.9535 13.3941ZM6.03128 23.3438V22.8563C6.032 21.3443 5.70597 19.8501 5.07552 18.4758C4.44508 17.1016 3.52511 15.8798 2.3786 14.8941L1.98353 14.5542C3.61363 15.2278 5.03461 16.3239 6.10004 17.7296C7.16546 19.1352 7.83679 20.7996 8.04485 22.551C8.07497 22.8145 8.09453 23.0789 8.10353 23.344L6.03128 23.3438ZM10.3923 23.3438H8.76222C8.75997 23.2675 8.75453 23.191 8.75041 23.1147C8.69362 22.0193 8.46463 20.9397 8.07185 19.9155V19.0875C8.07036 17.5255 7.75718 15.9794 7.15064 14.54C6.5441 13.1005 5.65639 11.7965 4.53953 10.7044C6.58385 11.7959 8.233 13.5029 9.25347 15.5835C10.0027 17.1039 10.3924 18.7762 10.3923 20.4711V23.3438ZM11.672 23.3438H11.0484V21.9839C11.0484 21.4789 11.0484 20.9739 11.0484 20.469V20.4677C11.0484 20.2427 11.04 20.0204 11.0276 19.7985V19.7969C10.9432 18.241 10.5495 16.7175 9.86941 15.3156C9.73573 12.5286 8.82318 9.83494 7.23541 7.54054C9.8684 10.0748 11.4461 13.5107 11.6523 17.1593C11.6648 17.4047 11.6711 17.6503 11.6711 17.8962L11.672 23.3438ZM10.9299 11.611C10.763 8.59598 10.0454 5.63704 8.81247 2.8806L8.70972 2.65017C9.31997 3.52875 9.87118 4.44689 10.3597 5.39854C11.01 6.66675 11.5471 7.98988 11.9647 9.35254C12.2788 10.3746 12.5249 11.4163 12.7014 12.4709C12.4053 13.2245 12.1708 14.0008 12 14.7923C11.7639 13.695 11.405 12.6279 10.9299 11.611ZM12.9515 23.3438H12.3281V17.8969C12.331 16.1685 12.6487 14.4551 13.2656 12.8406C14.0318 10.8402 15.2259 9.03137 16.7643 7.54073C15.1767 9.83505 14.2643 12.5286 14.1305 15.3154C13.4564 16.7052 13.0637 18.2146 12.975 19.7567C12.9015 20.9472 12.9515 22.1515 12.9515 23.3438ZM15.2377 23.3438H13.6078V20.4677C13.6082 20.0368 13.6333 19.6062 13.6828 19.1781C13.893 17.4051 14.5281 15.709 15.534 14.2339C16.5398 12.7588 17.8868 11.5482 19.4606 10.705C18.3438 11.797 17.4561 13.1008 16.8495 14.5402C16.2429 15.9796 15.9297 17.5256 15.9281 19.0875V19.9148C15.5353 20.939 15.3063 22.0186 15.2495 23.1141C15.2454 23.191 15.24 23.2675 15.2377 23.3438ZM21.6215 14.8941C19.596 16.6453 18.3109 19.1002 18.0258 21.7626C17.98 22.2884 17.9612 22.8162 17.9696 23.344H15.8964C15.9052 23.0786 15.9248 22.814 15.9553 22.5501C16.1635 20.7988 16.8349 19.1347 17.9003 17.7292C18.9657 16.3237 20.3866 15.2277 22.0166 14.5542L21.6215 14.8941Z" fill="black"/>
</g>
<defs>
<clipPath id="clip0_1282_5266">
<rect width="24" height="24" fill="white"/>
</clipPath>
</defs>
</svg>
