<svg width="24" height="24" viewBox="0 0 24 24" fill="none" xmlns="http://www.w3.org/2000/svg">
<path d="M15.3374 5.03421C15.4914 5.03421 15.6162 4.90938 15.6162 4.75539C15.6162 4.6014 15.4914 4.47656 15.3374 4.47656C15.1834 4.47656 15.0586 4.6014 15.0586 4.75539C15.0586 4.90938 15.1834 5.03421 15.3374 5.03421Z" fill="black"/>
<path d="M22.6223 5.0406H17.1988C17.057 4.4927 16.7504 3.96264 16.3098 3.52367C15.6761 2.89237 14.8382 2.53027 14.0108 2.53027C12.2516 2.53027 10.8204 3.96144 10.8204 5.72054C10.8204 6.21313 10.8161 6.52715 10.7844 6.73645C10.2171 6.3505 9.53666 6.01384 8.74908 5.73081C6.14861 4.79641 3.01446 4.65689 1.37778 4.65689C1.26838 4.65689 1.1644 4.70428 1.0926 4.78687C1.02088 4.86945 0.98844 4.97907 1.00369 5.08739C1.31311 7.27996 2.40538 9.29494 4.07945 10.7611C4.90436 11.4836 5.84366 12.0471 6.85051 12.4353C6.3415 13.7481 5.97721 15.1448 5.79291 16.4995C5.79223 16.5046 5.79167 16.5097 5.79115 16.5147C5.59118 17.9954 5.61446 19.3874 5.85866 20.5407C5.86373 20.5647 5.87116 20.5881 5.8807 20.6107C6.11054 21.1498 6.69345 21.4546 7.52215 21.4689C7.54183 21.4693 7.56164 21.4694 7.58153 21.4694C8.09922 21.4694 8.6766 21.3545 9.17564 21.1512C9.58809 20.9832 10.1262 20.6836 10.3476 20.2104C10.5228 19.8357 10.4569 19.4413 10.1618 19.1002C10.157 19.0946 10.1519 19.0891 10.1468 19.0838C9.4243 18.3412 9.00239 17.5714 8.93621 16.8883C13.0402 16.1662 16.1682 12.5755 16.1682 8.26773C16.1682 8.17268 16.1664 8.07476 16.1629 7.9688V7.96699C16.1629 7.82923 16.3689 7.56394 16.5506 7.32994C16.8665 6.92311 17.2556 6.42033 17.2853 5.79608H22.6222C22.8308 5.79608 23 5.62695 23 5.41834C23 5.20972 22.8309 5.0406 22.6223 5.0406ZM1.82461 5.4158C3.49039 5.44146 6.21809 5.62416 8.49363 6.44181C10.8938 7.30424 12.1108 8.62875 12.1108 10.3785C12.1108 10.4221 12.1087 10.4652 12.1059 10.5082C11.9496 9.84623 11.6315 9.24183 11.1533 8.70352C10.5421 8.01546 9.66419 7.43177 8.54382 6.9687C6.40268 6.08367 3.7937 5.79204 1.88726 5.70821C1.86488 5.61118 1.84369 5.51381 1.82461 5.4158ZM4.5772 10.1928C3.42894 9.18713 2.57893 7.90043 2.10352 6.47511C5.17322 6.63401 7.13406 7.20352 8.25533 7.66698C10.384 8.54686 11.4633 9.83549 11.4633 11.497C11.4633 11.6126 11.4525 11.7286 11.4323 11.8427C11.0967 12.1283 10.6624 12.3012 10.1883 12.3012C9.27141 12.3012 8.36902 12.1534 7.51309 11.8705C7.50604 11.8671 7.49912 11.8634 7.49177 11.8604C7.46745 11.8504 7.44262 11.8431 7.41769 11.8383C6.38111 11.4819 5.41496 10.9265 4.5772 10.1928ZM15.4128 8.26773C15.4128 8.90461 15.3375 9.52422 15.1962 10.1184C15.1502 10.0631 15.1037 10.0083 15.0574 9.95404C14.6427 9.46871 14.3964 9.14722 14.5498 8.67434C14.7099 8.18046 15.0313 7.97842 15.4203 7.81785C15.4132 7.86039 15.4087 7.90348 15.4077 7.94723C15.4071 7.95823 15.407 7.96927 15.4074 7.98035C15.411 8.08318 15.4128 8.1772 15.4128 8.26773ZM16.1378 6.62546C15.9985 6.79222 15.7395 6.88899 15.4395 7.00075C14.8918 7.2049 14.1415 7.48441 13.8311 8.44132C13.5395 9.34049 14.0626 9.9528 14.4829 10.4448C14.6561 10.6475 14.8202 10.8407 14.9192 11.0345C13.791 14.085 10.853 16.2654 7.41525 16.2654C7.35225 16.2654 7.28939 16.2647 7.22674 16.2632C7.01761 16.2568 6.84505 16.4234 6.84019 16.6319C6.83525 16.8405 7.00034 17.0136 7.20891 17.0185C7.27749 17.0201 7.34632 17.0209 7.41525 17.0209C7.67495 17.0209 7.93182 17.0088 8.18576 16.9866C8.25498 17.6462 8.58284 18.5564 9.59682 19.6019C9.71618 19.7436 9.69388 19.8251 9.66329 19.8904C9.48256 20.2768 8.49295 20.7299 7.53526 20.7136C7.30288 20.7095 6.75576 20.6649 6.58917 20.343C6.37011 19.2774 6.35366 17.9849 6.54186 16.6014C6.54251 16.5965 6.54311 16.5915 6.54358 16.5866C6.72203 15.284 7.07442 13.9405 7.56654 12.6784C8.41109 12.9271 9.29337 13.0566 10.1884 13.0566C11.665 13.0566 12.8664 11.8552 12.8664 10.3786C12.8664 9.25894 12.4589 8.27572 11.6553 7.45635C11.5828 7.3824 11.5062 7.31008 11.4272 7.23876C11.5757 6.884 11.576 6.41904 11.576 5.72054C11.576 4.37802 12.6683 3.28575 14.0109 3.28575C14.6399 3.28575 15.2835 3.56754 15.7766 4.05889C16.2572 4.53769 16.5328 5.14334 16.5328 5.72058C16.5327 6.03404 16.3525 6.33418 16.1378 6.62546Z" fill="black"/>
</svg>
