<svg width="452" height="611" viewBox="0 0 452 611" fill="none" xmlns="http://www.w3.org/2000/svg">
<path d="M226.74 293.011C225.973 291.662 226.966 290 228.517 290H234.877C235.574 290 236.169 290.277 236.526 290.876C243.316 302.272 313.224 422.266 295 502C285.552 543.339 247.375 595.905 238.058 608.298C237.141 609.518 235.269 609.271 234.674 607.866L230.943 599.046C230.668 598.397 230.73 597.686 231.142 597.114C236.335 589.896 271.534 540.044 281 502C299.813 426.389 238.025 312.854 226.74 293.011Z" fill="#0D740D"/>
<path d="M302 249C302 292.078 273.578 305.5 230.5 305.5C187.422 305.5 146 292.078 146 249C146 205.922 180.922 171 224 171C267.078 171 302 205.922 302 249Z" fill="#F0CF21"/>
<path d="M160.973 279.736L235.973 307.236L229.973 415.236L214.473 409.235L202.473 404.735L200.473 405.235L200 406.247L199.5 406.747L199 407.747L122.5 380.747L123 379.747L123 378.747L122 376.747L120.5 375.747L118 374.747L110 371.747L96.4996 366.247L160.973 279.736Z" fill="#FCF9F4"/>
<path d="M127 376.748L198.5 403.247L201.499 436.748L102 399.248L127 376.748Z" fill="#FCF9F4"/>
<path d="M237.802 305.492L161.198 277.502C160.783 277.351 160.319 277.488 160.054 277.841L93.7805 366.206C93.3864 366.732 93.5972 367.488 94.2063 367.734L120.011 378.146C120.698 378.423 120.856 379.324 120.304 379.818L98.7289 399.146C98.1695 399.647 98.3415 400.563 99.0445 400.827L202.51 439.688C203.2 439.947 203.924 439.396 203.858 438.662L201.141 408.325C201.076 407.593 201.796 407.042 202.485 407.298L230.732 417.777C231.362 418.01 232.039 417.568 232.078 416.897L238.457 306.489C238.483 306.049 238.216 305.643 237.802 305.492Z" stroke="#B74D15" stroke-width="7"/>
<path d="M245.718 306.059L300.946 248.343L397.509 297.082L385.805 308.883L376.877 318.078L376.535 320.111L377.272 320.949L377.53 321.607L378.246 322.466L322.876 381.757L322.16 380.898L321.244 380.498L319.01 380.613L317.494 381.587L315.576 383.478L309.624 389.608L299.179 399.776L245.718 306.059Z" fill="#FCF9F4"/>
<path d="M321.013 376.032L373.923 321.123L405.821 331.787L331.622 407.949L321.013 376.032Z" fill="#FCF9F4"/>
<path d="M300.08 245.969L243.761 304.959C243.456 305.278 243.397 305.758 243.614 306.142L298.053 402.252C298.377 402.823 299.154 402.933 299.623 402.473L319.496 382.996C320.025 382.478 320.914 382.694 321.146 383.397L330.219 410.906C330.454 411.619 331.362 411.828 331.885 411.289L408.921 332.037C409.434 331.509 409.219 330.625 408.521 330.392L379.633 320.735C378.936 320.502 378.72 319.622 379.23 319.092L400.142 297.404C400.608 296.92 400.474 296.122 399.874 295.818L301.256 245.768C300.863 245.568 300.385 245.65 300.08 245.969Z" stroke="#B74D15" stroke-width="7"/>
<path d="M303.734 241.798L258.258 176.123L325.362 91.2868L334.578 105.119L341.796 115.708L343.719 116.451L344.688 115.897L345.385 115.776L346.37 115.246L393.36 181.376L392.375 181.906L391.799 182.723L391.465 184.934L392.115 186.616L393.583 188.873L398.395 195.933L406.265 208.204L303.734 241.798Z" fill="#FCF9F4"/>
<path d="M387.378 182.054L344.187 119.213L361.029 90.0989L420.774 178.058L387.378 182.054Z" fill="#FCF9F4"/>
<path d="M255.759 176.494L302.265 243.494C302.516 243.856 302.975 244.011 303.395 243.875L408.465 209.803C409.09 209.601 409.353 208.861 408.996 208.309L393.897 184.936C393.495 184.314 393.885 183.486 394.621 183.4L423.39 180.025C424.136 179.937 424.522 179.089 424.1 178.469L361.895 87.1126C361.481 86.5035 360.572 86.5369 360.203 87.1747L344.952 113.541C344.584 114.177 343.679 114.212 343.262 113.606L326.205 88.7721C325.824 88.2178 325.016 88.1897 324.598 88.7161L255.798 175.302C255.523 175.647 255.508 176.132 255.759 176.494Z" stroke="#B74D15" stroke-width="7"/>
<path d="M169.74 196.489L155.41 275.076L47.9652 287.55L51.2389 271.255L53.6302 258.664L52.7971 256.778L51.7198 256.485L51.1419 256.077L50.0714 255.755L63.6536 175.775L64.7241 176.097L65.7095 175.927L67.5101 174.601L68.2401 172.953L68.7999 170.319L70.3941 161.925L73.5157 147.685L169.74 196.489Z" fill="#FCF9F4"/>
<path d="M68.3598 179.528L54.4203 254.496L21.9194 263.154L41.9323 158.724L68.3598 179.528Z" fill="#FCF9F4"/>
<path d="M157.439 276.582L171.979 196.33C172.058 195.896 171.843 195.462 171.45 195.262L73.0922 144.999C72.5074 144.7 71.7982 145.036 71.6597 145.678L65.7923 172.879C65.6362 173.603 64.7751 173.912 64.1945 173.453L41.4758 155.483C40.8868 155.017 40.0136 155.342 39.8731 156.08L19.1944 264.651C19.0566 265.375 19.7222 265.994 20.4342 265.805L49.8664 257.963C50.5766 257.774 51.2415 258.39 51.1069 259.112L45.5901 288.731C45.467 289.392 46.0182 289.983 46.6863 289.907L156.568 277.397C157.007 277.347 157.361 277.016 157.439 276.582Z" stroke="#B74D15" stroke-width="7"/>
<path d="M252.205 171.554L174.376 189.549L120.333 95.8506L136.591 92.3967L149.099 89.6012L150.499 88.0888L150.342 86.9834L150.487 86.2914L150.359 85.1807L229.171 65.9468L229.299 67.0574L229.846 67.8946L231.777 69.0221L233.58 69.0389L236.219 68.5088L244.558 66.6452L258.868 63.8665L252.205 171.554Z" fill="#FCF9F4"/>
<path d="M227.59 71.7556L153.239 88.6746L132.407 62.2682L236.215 39.2461L227.59 71.7556Z" fill="#FCF9F4"/>
<path d="M173.798 192.009L253.239 173.547C253.668 173.447 253.982 173.077 254.01 172.637L261.167 62.4129C261.209 61.7575 260.619 61.2397 259.975 61.3671L232.677 66.7626C231.951 66.9062 231.326 66.2381 231.517 65.5229L239.009 37.5423C239.203 36.8168 238.559 36.1441 237.826 36.3076L129.952 60.3598C129.232 60.5202 128.928 61.3768 129.384 61.9553L148.25 85.8679C148.706 86.4449 148.404 87.2995 147.687 87.4624L118.308 94.138C117.652 94.287 117.328 95.0277 117.662 95.6109L172.704 191.532C172.924 191.915 173.368 192.109 173.798 192.009Z" stroke="#B74D15" stroke-width="7"/>
<g clip-path="url(#clip0_703_3193)">
<path d="M251.782 203.43C249.866 201.432 244.232 200 241.002 200.5C240.029 200.416 235.77 202.713 235.685 203.686C235.638 204.231 237.727 203.227 240.002 203C241.789 202.822 243.574 202.963 244.002 203C245.902 203.165 247.907 204.5 249.229 205.878C252.233 209.01 252.129 214.002 248.997 217.006L233.659 231.717L235.502 212C235.502 211.443 235.853 208.44 236.502 206C237.076 203.842 238.932 202.038 238.502 202C237.529 201.916 234.131 203.514 233.502 209.5L230.597 226.114C228.212 223.868 224.898 223.129 221.901 223.922C219.753 221.953 216.906 221.141 214.18 221.503C211.769 218.33 212.066 213.77 215.01 210.946C215.715 210.27 215.739 209.15 215.063 208.445C214.386 207.74 213.267 207.717 212.562 208.393C208.599 212.193 207.956 218.171 210.704 222.677C210.042 223.056 209.415 223.52 208.84 224.071C208.265 224.623 207.776 225.23 207.369 225.876C202.982 222.942 196.983 223.335 193.02 227.136C192.315 227.812 192.292 228.931 192.968 229.636C193.644 230.341 194.764 230.365 195.469 229.689C198.413 226.864 202.982 226.758 206.052 229.299C205.576 232.008 206.268 234.886 208.146 237.114C207.229 240.075 207.829 243.417 209.974 245.894L194.692 246.587C191.723 246.721 188.907 247.928 186.762 249.985C182.222 254.34 182.071 261.575 186.425 266.115C190.779 270.655 198.015 270.806 202.555 266.451L203.248 265.786C203.496 267.429 204.232 269.014 205.467 270.302C208.588 273.556 213.774 273.664 217.028 270.543C218.627 269.01 219.544 266.86 219.545 264.645L219.547 260.151C222.388 263.693 226.578 266.067 231.305 266.548L249.49 268.4C250.006 268.452 250.519 268.276 250.893 267.917C251.268 267.558 251.465 267.052 251.434 266.535L250.343 248.288C250.06 243.546 247.862 239.26 244.442 236.273L248.932 236.459C251.145 236.551 253.331 235.724 254.93 234.191C258.184 231.07 258.292 225.884 255.171 222.63C253.936 221.342 252.383 220.54 250.752 220.224L251.445 219.559C255.985 215.205 256.136 207.969 251.782 203.43ZM233.342 236.923C234.249 236.052 235.549 235.714 236.734 236.042C238.918 236.645 240.86 237.758 242.444 239.234L222.588 258.279C221.18 256.634 220.148 254.648 219.637 252.44C219.359 251.243 219.751 249.958 220.659 249.088L233.342 236.923ZM210.078 233.667C208.925 231.371 209.34 228.494 211.289 226.624C213.238 224.755 216.13 224.461 218.375 225.709L210.078 233.667ZM213.014 235.753L220.337 228.729C222.601 226.558 226.209 226.633 228.381 228.897C230.552 231.161 230.477 234.769 228.213 236.94L220.89 243.964C218.626 246.135 215.018 246.06 212.846 243.796C210.675 241.532 210.75 237.924 213.014 235.753ZM188.978 263.666C185.974 260.534 186.078 255.542 189.21 252.538C190.736 251.075 192.74 250.216 194.852 250.12L215.443 249.188L200.106 263.898C196.974 266.902 191.982 266.798 188.978 263.666ZM216.008 264.644C216.007 265.901 215.487 267.12 214.58 267.99C212.734 269.761 209.791 269.7 208.02 267.853C206.19 265.945 206.254 262.904 208.162 261.073L216.011 253.545L216.008 264.644ZM247.779 264.67L238.627 263.738L247.23 255.488L247.779 264.67ZM246.812 248.499L246.953 250.852L234.007 263.268L231.663 263.029C229.292 262.788 227.09 261.948 225.22 260.655L244.708 241.963C245.923 243.886 246.67 246.121 246.812 248.499ZM252.618 225.078C254.389 226.925 254.328 229.867 252.481 231.638C251.574 232.508 250.334 232.977 249.078 232.925L237.989 232.466L245.838 224.937C247.747 223.107 250.788 223.17 252.618 225.078Z" fill="#B74D15"/>
</g>
<g clip-path="url(#clip1_703_3193)">
<path d="M185.901 265.184C184.032 263.142 182.967 257.428 183.674 254.237C183.653 253.26 186.22 249.159 187.197 249.137C187.744 249.125 186.607 251.144 186.234 253.401C185.941 255.173 185.966 256.963 185.976 257.392C186.017 259.299 187.22 261.386 188.51 262.794C191.441 265.994 196.43 266.212 199.63 263.281L215.299 248.925L195.506 249.491C194.949 249.455 191.93 249.611 189.454 250.102C187.262 250.535 185.342 252.271 185.333 251.839C185.311 250.863 187.126 247.575 193.14 247.334L209.907 245.508C207.819 242.982 207.296 239.627 208.281 236.688C206.454 234.418 205.828 231.524 206.366 228.827C203.354 226.216 198.785 226.218 195.776 228.974C195.056 229.634 193.937 229.585 193.277 228.865C192.617 228.144 192.666 227.026 193.387 226.366C197.435 222.657 203.442 222.401 207.761 225.435C208.182 224.798 208.685 224.202 209.273 223.664C209.86 223.126 210.498 222.677 211.169 222.313C208.524 217.745 209.304 211.784 213.352 208.075C214.073 207.415 215.191 207.464 215.851 208.184C216.511 208.905 216.462 210.024 215.742 210.683C212.733 213.439 212.332 217.991 214.67 221.219C217.403 220.919 220.231 221.796 222.333 223.814C225.348 223.09 228.644 223.904 230.977 226.205L232.655 210.999C232.981 208.045 234.367 205.313 236.558 203.305C241.197 199.056 248.427 199.373 252.676 204.011C256.925 208.649 256.609 215.879 251.97 220.128L251.262 220.777C252.885 221.131 254.42 221.968 255.625 223.284C258.671 226.608 258.444 231.79 255.119 234.836C253.486 236.332 251.281 237.109 249.071 236.967L244.586 236.678C247.937 239.742 250.036 244.077 250.211 248.825L250.884 267.091C250.903 267.61 250.694 268.11 250.311 268.461C249.929 268.811 249.412 268.976 248.897 268.912L230.759 266.644C226.045 266.055 221.91 263.586 219.151 259.979L219.046 264.472C218.995 266.687 218.028 268.815 216.395 270.311C213.071 273.357 207.888 273.13 204.843 269.806C203.637 268.49 202.937 266.888 202.727 265.24L202.019 265.889C197.381 270.138 190.151 269.822 185.901 265.184ZM220.516 248.944C219.588 249.794 219.167 251.069 219.417 252.273C219.878 254.491 220.864 256.501 222.234 258.177L242.521 239.592C240.971 238.08 239.055 236.923 236.886 236.27C235.709 235.916 234.401 236.224 233.474 237.073L220.516 248.944ZM218.769 225.519C216.552 224.22 213.654 224.448 211.662 226.272C209.671 228.097 209.191 230.964 210.291 233.285L218.769 225.519ZM220.66 228.584L213.179 235.438C210.866 237.557 210.708 241.162 212.827 243.475C214.946 245.788 218.551 245.946 220.864 243.827L228.346 236.973C230.659 234.854 230.817 231.249 228.698 228.936C226.579 226.623 222.973 226.465 220.66 228.584ZM250.068 206.4C247.136 203.2 242.148 202.982 238.948 205.913C237.389 207.342 236.403 209.285 236.171 211.387L233.911 231.875L249.581 217.52C252.781 214.588 252.999 209.6 250.068 206.4ZM249.298 233.436C250.552 233.517 251.803 233.077 252.73 232.228C254.616 230.5 254.745 227.559 253.017 225.673C251.23 223.724 248.191 223.59 246.242 225.377L238.222 232.724L249.298 233.436ZM247.273 265.143L246.934 255.951L238.145 264.003L247.273 265.143ZM231.198 263.134L233.536 263.427L246.763 251.31L246.676 248.955C246.588 246.573 245.892 244.322 244.723 242.372L224.811 260.613C226.651 261.949 228.833 262.839 231.198 263.134ZM207.451 267.416C209.179 269.302 212.12 269.431 214.006 267.703C214.932 266.854 215.481 265.647 215.51 264.39L215.768 253.294L207.748 260.641C205.798 262.427 205.665 265.466 207.451 267.416Z" fill="#B74D15"/>
</g>
<defs>
<clipPath id="clip0_703_3193">
<rect width="90.5592" height="90.5592" fill="white" transform="translate(162.822 241.506) rotate(-43.8047)"/>
</clipPath>
<clipPath id="clip1_703_3193">
<rect width="90.5592" height="90.5592" fill="white" transform="matrix(-0.737358 0.675502 0.675502 0.737358 229.643 178.868)"/>
</clipPath>
</defs>
</svg>
