<svg width="24" height="24" viewBox="0 0 24 24" fill="none" xmlns="http://www.w3.org/2000/svg">
<g clip-path="url(#clip0_1165_6755)">
<path d="M18.4451 14.7344C18.4451 14.9717 18.2528 15.1641 18.0155 15.1641C17.7783 15.1641 17.5859 14.9717 17.5859 14.7344C17.5859 14.497 17.7783 14.3047 18.0155 14.3047C18.2528 14.3047 18.4451 14.497 18.4451 14.7344Z" fill="black"/>
<path d="M6.41389 14.7344C6.41389 14.9717 6.22154 15.1641 5.98438 15.1641C5.74704 15.1641 5.55469 14.9717 5.55469 14.7344C5.55469 14.497 5.74704 14.3047 5.98438 14.3047C6.22154 14.3047 6.41389 14.497 6.41389 14.7344Z" fill="black"/>
<path d="M3.30165 19.448C4.34213 19.448 5.61658 19.1207 6.84169 18.4952C7.32458 19.1029 8.0574 19.4601 8.84191 19.4601C9.89313 19.4601 10.8247 18.8295 11.2153 17.8535L11.3628 17.4844C11.5555 17.6507 11.7732 17.7417 11.9999 17.7417C12.2269 17.7417 12.4446 17.6507 12.6372 17.4844L12.7848 17.8537C13.1754 18.8295 14.1069 19.4601 15.1581 19.4601C15.9428 19.4601 16.6756 19.1029 17.1583 18.4952C18.3836 19.1207 19.6579 19.448 20.6986 19.448C21.4957 19.448 22.1553 19.2565 22.5504 18.8612C22.9861 18.4255 23.3263 17.5319 22.4732 15.7487C21.8891 14.5281 20.8639 13.1521 19.5859 11.8741C18.2319 10.5201 16.7703 9.51607 15.5017 9.01656L18.1315 8.27367C18.3598 8.20922 18.4927 7.97189 18.4281 7.74345C18.3636 7.51518 18.1265 7.38241 17.8979 7.44687L13.6611 8.64361C13.6542 8.61054 13.647 8.57832 13.6396 8.54676L14.8815 7.30487C14.9621 7.2243 15.0072 7.11503 15.0072 7.00107V6.32884L16.5345 5.31052C16.732 5.17893 16.7852 4.91222 16.6536 4.71467C16.522 4.51728 16.2552 4.46407 16.0578 4.59567L14.3394 5.74138C14.2199 5.82111 14.148 5.95522 14.148 6.09889V6.82315L13.3163 7.65483C13.0188 7.06183 12.5704 6.57138 11.9999 6.57138C11.4294 6.57138 10.9813 7.06166 10.6835 7.65483L9.85184 6.82315V6.09889C9.85184 5.95522 9.78 5.82111 9.6605 5.74138L7.94209 4.59567C7.74453 4.46407 7.47783 4.51728 7.34624 4.71467C7.21464 4.91205 7.26802 5.17893 7.46541 5.31052L8.99264 6.32884V7.00107C8.99264 7.11503 9.03779 7.2243 9.11835 7.30487L10.3602 8.54676C10.3529 8.57832 10.3456 8.61071 10.3389 8.64377L6.10199 7.44687C5.87356 7.38224 5.63622 7.51518 5.57177 7.74345C5.50732 7.97189 5.64008 8.20922 5.86835 8.27367L8.49867 9.01673C7.22975 9.51607 5.76815 10.5201 4.41397 11.8741C3.13616 13.1521 2.11078 14.528 1.52685 15.7487C0.673687 17.5319 1.01391 18.4255 1.44947 18.8612C1.84475 19.2565 2.50438 19.448 3.30165 19.448ZM10.4175 17.5342C10.1582 18.1823 9.53981 18.6009 8.84191 18.6009C8.36708 18.6009 7.92111 18.4033 7.60304 18.0626C8.88958 17.2554 9.93409 16.1816 10.7112 14.9185V16.0231C10.7112 16.189 10.7438 16.3781 10.8035 16.569L10.4175 17.5342ZM12.0011 16.8825C11.873 16.8654 11.5704 16.3786 11.5704 16.0231V10.8127C11.7096 10.8486 11.8537 10.8677 12.0001 10.8677C12.1463 10.8677 12.2905 10.8486 12.4296 10.8127V16.0231C12.4296 16.3786 12.1268 16.8647 12.0011 16.8825ZM15.1581 18.6009C14.4604 18.6009 13.8419 18.1821 13.5826 17.5344L13.1965 16.569C13.2563 16.378 13.2888 16.1888 13.2888 16.0231V14.9185C14.0628 16.1764 15.1056 17.2523 16.397 18.0626C16.0789 18.4032 15.633 18.6009 15.1581 18.6009ZM21.6981 16.1195C22.1801 17.127 22.2716 17.9248 21.9426 18.2538C21.6697 18.5269 21.0044 18.6447 20.2063 18.5611C17.5063 18.2786 14.4936 16.1947 13.2888 12.9792V10.2843C13.2996 10.272 13.3106 10.2598 13.321 10.2472L14.2447 10.9402C14.7858 11.3461 15.185 11.8998 15.3988 12.5417C15.5866 13.1046 15.8854 13.611 16.2866 14.0467C16.3711 14.1387 16.4868 14.1854 16.6026 14.1854C16.7067 14.1854 16.8109 14.1478 16.8935 14.0717C17.068 13.9109 17.0793 13.6392 16.9187 13.4646C16.6003 13.1189 16.3631 12.7169 16.214 12.2699C15.9446 11.4616 15.442 10.7642 14.7603 10.2531L13.7914 9.52597C14.8605 9.45682 16.9106 10.414 18.9783 12.4819C20.1891 13.6926 21.1551 14.9845 21.6981 16.1195ZM12.0001 7.43058C12.1661 7.43058 12.5276 7.82603 12.748 8.54105C12.8022 8.71679 12.8685 8.99944 12.8588 9.17115C12.8239 9.70758 12.4127 10.0084 12.0001 10.0084C11.5118 10.0084 11.1409 9.6062 11.1409 9.14916C11.1409 8.96201 11.1961 8.72283 11.252 8.54105C11.4724 7.82603 11.8339 7.43058 12.0001 7.43058ZM2.30196 16.1195C2.84511 14.9845 3.8109 13.6926 5.02174 12.4817C7.08859 10.4149 9.13782 9.45766 10.2085 9.52597L9.23971 10.2529C8.55825 10.764 8.05555 11.4616 7.78599 12.2698C7.63695 12.7167 7.39995 13.1189 7.08154 13.4646C6.92075 13.6392 6.93199 13.9109 7.10655 14.0717C7.28078 14.232 7.55252 14.2215 7.71365 14.0466C8.1148 13.611 8.4134 13.1046 8.60122 12.5415C8.81522 11.8998 9.21419 11.3461 9.75533 10.9402L10.679 10.2472C10.6894 10.2598 10.7003 10.272 10.7112 10.2843V12.9792C9.51749 16.165 6.52077 18.276 3.79378 18.5611C2.9955 18.6445 2.33033 18.5269 2.05741 18.2536C1.72843 17.9248 1.81991 17.127 2.30196 16.1195Z" fill="black"/>
</g>
<defs>
<clipPath id="clip0_1165_6755">
<rect width="22" height="22" fill="white" transform="translate(1 1)"/>
</clipPath>
</defs>
</svg>
