<svg width="206" height="122" viewBox="0 0 206 122" fill="none" xmlns="http://www.w3.org/2000/svg">
<rect width="206" height="122" fill="white"/>
<path d="M160.714 59.0427C160.599 58.7894 160.804 58.5089 161.081 58.5345L162.216 58.6391C162.341 58.6506 162.443 58.7099 162.496 58.8228C163.521 60.969 174.026 83.5417 169.46 97.4764C167.093 104.701 159.412 113.457 157.545 115.516C157.361 115.719 157.031 115.644 156.948 115.383L156.427 113.747C156.388 113.627 156.411 113.501 156.494 113.406C157.54 112.202 164.645 103.882 166.961 97.2459C171.564 84.0571 162.402 62.7709 160.714 59.0427Z" fill="#0D740D"/>
<path d="M174.875 52.4246C174.166 60.1152 168.871 62.0435 161.18 61.3344C153.489 60.6253 146.315 57.5473 147.025 49.8567C147.734 42.1661 154.543 36.5065 162.234 37.2156C169.924 37.9247 175.584 44.7341 174.875 52.4246Z" fill="#F0CF21"/>
<path d="M149.19 55.5893L162.127 61.7334L159.278 80.9154L156.609 79.5891L154.541 78.5882L154.176 78.6446L154.075 78.8174L153.977 78.8984L153.871 79.0687L140.659 72.9892L140.764 72.8189L140.781 72.6404L140.635 72.2669L140.384 72.0637L139.954 71.844L138.575 71.1767L136.256 69.9726L149.19 55.5893Z" fill="#FCF9F4"/>
<path d="M141.525 72.3488L153.853 78.2565L153.837 84.2866L136.691 75.9541L141.525 72.3488Z" fill="#FCF9F4"/>
<path d="M162.484 61.4515L149.269 55.1935C149.197 55.1597 149.112 55.1766 149.059 55.2353L135.773 69.9198C135.694 70.0071 135.719 70.1456 135.823 70.1995L140.259 72.4832C140.377 72.5439 140.39 72.7074 140.284 72.7865L136.114 75.8819C136.006 75.9621 136.021 76.1285 136.142 76.1872L153.974 84.828C154.093 84.8856 154.231 84.7992 154.232 84.6671L154.246 79.2063C154.246 79.0745 154.384 78.9882 154.503 79.0451L159.373 81.3808C159.482 81.433 159.61 81.3651 159.628 81.2459L162.584 61.6402C162.596 61.562 162.555 61.4853 162.484 61.4515Z" stroke="#B74D15" stroke-width="1.25498"/>
<path d="M163.88 61.6864L174.69 52.2917L191.126 62.5824L188.843 64.4966L187.097 65.9911L187.003 66.3483L187.121 66.5101L187.156 66.6319L187.27 66.797L176.409 76.4704L176.295 76.3054L176.138 76.2188L175.737 76.2027L175.45 76.3516L175.077 76.6576L173.914 77.6539L171.881 79.2974L163.88 61.6864Z" fill="#FCF9F4"/>
<path d="M176.17 75.4183L186.52 66.4865L192.039 68.9155L177.539 81.291L176.17 75.4183Z" fill="#FCF9F4"/>
<path d="M174.577 51.8529L163.552 61.457C163.492 61.5089 163.474 61.5938 163.506 61.6659L171.643 79.7201C171.691 79.8274 171.828 79.8598 171.919 79.7854L175.788 76.6354C175.891 76.5516 176.046 76.6048 176.076 76.7341L177.243 81.7945C177.273 81.9257 177.432 81.978 177.534 81.8905L192.591 69.01C192.692 68.9241 192.668 68.7628 192.547 68.7096L187.549 66.5101C187.428 66.457 187.404 66.2963 187.504 66.2102L191.594 62.6825C191.685 62.6038 191.675 62.4592 191.573 62.395L174.791 51.8363C174.724 51.7942 174.637 51.8009 174.577 51.8529Z" stroke="#B74D15" stroke-width="1.25498"/>
<path d="M175.305 51.1694L168.268 38.6961L181.644 24.6553L183.061 27.2763L184.176 29.2857L184.507 29.45L184.689 29.3669L184.815 29.3568L185 29.2785L192.3 41.8579L192.116 41.9363L191.999 42.0727L191.903 42.4619L191.992 42.7728L192.217 43.2L192.96 44.5395L194.162 46.8599L175.305 51.1694Z" fill="#FCF9F4"/>
<path d="M191.218 41.8806L184.542 29.9509L188.028 25.0306L197.246 41.717L191.218 41.8806Z" fill="#FCF9F4"/>
<path d="M167.809 38.7206L175.008 51.4473C175.047 51.5161 175.126 51.5513 175.204 51.534L194.522 47.1809C194.637 47.155 194.696 47.0273 194.642 46.9229L192.331 42.5016C192.269 42.3839 192.353 42.2426 192.485 42.2393L197.677 42.1103C197.811 42.107 197.894 41.962 197.829 41.8442L188.228 24.5108C188.164 24.3952 188.001 24.3862 187.925 24.494L184.768 28.95C184.692 29.0575 184.53 29.0489 184.465 28.9339L181.829 24.2195C181.77 24.1143 181.626 24.096 181.543 24.1831L167.835 38.5084C167.78 38.5656 167.77 38.6518 167.809 38.7206Z" stroke="#B74D15" stroke-width="1.25498"/>
<path d="M152.13 40.874L148.278 54.6679L128.891 55.1262L129.744 52.2709L130.378 50.0625L130.26 49.7121L130.073 49.642L129.977 49.5597L129.791 49.4845L133.532 35.4296L133.718 35.5048L133.897 35.4906L134.24 35.2835L134.397 35.0013L134.541 34.5403L134.963 33.068L135.755 30.5772L152.13 40.874Z" fill="#FCF9F4"/>
<path d="M134.313 36.1784L130.59 49.3326L124.645 50.3433L129.937 32.0292L134.313 36.1784Z" fill="#FCF9F4"/>
<path d="M148.617 54.9706L152.534 40.883C152.555 40.8068 152.524 40.7257 152.457 40.6835L135.725 30.0911C135.626 30.0282 135.494 30.0766 135.458 30.1889L133.963 34.9483C133.923 35.075 133.765 35.116 133.668 35.0244L129.908 31.4424C129.811 31.3495 129.65 31.3932 129.612 31.5226L124.134 50.565C124.097 50.692 124.206 50.8135 124.336 50.7913L129.719 49.8758C129.849 49.8537 129.958 49.9747 129.922 50.1014L128.449 55.2983C128.417 55.4143 128.505 55.529 128.626 55.5264L148.449 55.1018C148.528 55.1001 148.596 55.0468 148.617 54.9706Z" stroke="#B74D15" stroke-width="1.25498"/>
<path d="M167.259 37.7786L153.068 39.71L144.963 22.0928L147.922 21.7438L150.201 21.4506L150.476 21.2037L150.466 21.0038L150.503 20.8826L150.499 20.6822L164.885 18.5458L164.89 18.7462L164.974 18.9046L165.3 19.1377L165.622 19.1704L166.102 19.1192L167.621 18.9238L170.221 18.6633L167.259 37.7786Z" fill="#FCF9F4"/>
<path d="M164.505 19.5558L150.953 21.3524L147.668 16.2952L166.58 13.894L164.505 19.5558Z" fill="#FCF9F4"/>
<path d="M152.924 40.1388L167.41 38.1505C167.488 38.1398 167.55 38.079 167.563 38.0009L170.655 18.4408C170.673 18.3245 170.576 18.2223 170.459 18.2344L165.497 18.7483C165.365 18.762 165.264 18.6324 165.31 18.5079L167.109 13.636C167.155 13.5096 167.051 13.3789 166.918 13.3961L147.263 15.9143C147.132 15.931 147.064 16.079 147.136 16.1897L150.11 20.7693C150.182 20.8798 150.114 21.0274 149.983 21.0447L144.629 21.7529C144.509 21.7687 144.439 21.8956 144.489 22.0052L152.736 40.0358C152.769 40.1077 152.846 40.1496 152.924 40.1388Z" stroke="#B74D15" stroke-width="1.25498"/>
<g clip-path="url(#clip0_2004_4172)">
<path d="M166.659 43.4637C166.35 43.0755 165.368 42.7273 164.783 42.7633C164.611 42.7323 163.812 43.0722 163.781 43.2445C163.764 43.341 164.153 43.1963 164.563 43.1932C164.885 43.1908 165.202 43.2454 165.277 43.259C165.614 43.3197 165.95 43.591 166.163 43.8588C166.648 44.4674 166.547 45.3569 165.938 45.8416L162.958 48.2154L163.612 44.7259C163.621 44.6263 163.733 44.096 163.889 43.6712C164.027 43.2952 164.388 43.0038 164.312 42.99C164.14 42.9588 163.507 43.1883 163.296 44.2466L162.504 47.1648C162.115 46.7244 161.535 46.538 160.987 46.6303C160.636 46.2434 160.141 46.0515 159.649 46.0714C159.271 45.4651 159.399 44.6559 159.971 44.2002C160.108 44.0911 160.13 43.8916 160.021 43.7546C159.912 43.6176 159.713 43.595 159.576 43.7042C158.806 44.3174 158.593 45.374 159.009 46.2237C158.885 46.2805 158.765 46.3529 158.653 46.4419C158.541 46.5309 158.444 46.6313 158.361 46.7399C157.626 46.1439 156.548 46.1153 155.778 46.7286C155.641 46.8377 155.619 47.0372 155.728 47.1742C155.837 47.3112 156.037 47.3338 156.174 47.2247C156.746 46.7689 157.563 46.8251 158.069 47.3294C157.94 47.805 158.016 48.3304 158.315 48.759C158.102 49.2726 158.154 49.8791 158.496 50.3566L155.757 50.2286C155.224 50.2037 154.702 50.3728 154.285 50.7048C153.403 51.4074 153.257 52.6967 153.959 53.5788C154.662 54.4609 155.951 54.607 156.833 53.9044L156.968 53.7971C156.985 54.0945 157.091 54.3896 157.29 54.6398C157.794 55.2721 158.718 55.3768 159.35 54.8732C159.661 54.6258 159.86 54.2571 159.896 53.8616L159.971 53.0593C160.42 53.7384 161.129 54.2313 161.964 54.395L165.181 55.0249C165.272 55.0427 165.366 55.0196 165.439 54.9617C165.512 54.9038 165.555 54.8168 165.558 54.7239L165.664 51.4484C165.691 50.5972 165.37 49.7958 164.808 49.2064L165.607 49.3135C166 49.3663 166.404 49.2546 166.715 49.0072C167.347 48.5036 167.452 47.5795 166.948 46.9472C166.749 46.697 166.485 46.5283 166.199 46.445L166.334 46.3377C167.216 45.6351 167.362 44.3459 166.659 43.4637ZM162.816 49.1396C162.992 48.9991 163.23 48.9602 163.436 49.0381C163.816 49.1817 164.144 49.4125 164.403 49.702L160.544 52.7751C160.32 52.4583 160.169 52.0867 160.114 51.6843C160.084 51.4659 160.175 51.243 160.351 51.1026L162.816 49.1396ZM158.716 48.1754C158.548 47.7465 158.67 47.2397 159.048 46.938C159.427 46.6364 159.948 46.6314 160.329 46.8913L158.716 48.1754ZM159.206 48.5961L160.629 47.4627C161.069 47.1123 161.712 47.1852 162.062 47.6251C162.413 48.065 162.34 48.7079 161.9 49.0583L160.477 50.1917C160.037 50.542 159.394 50.4692 159.044 50.0293C158.693 49.5894 158.766 48.9465 159.206 48.5961ZM154.456 53.1837C153.971 52.5751 154.072 51.6856 154.68 51.2009C154.977 50.9648 155.348 50.8444 155.727 50.8621L159.419 51.0346L156.438 53.4083C155.83 53.8931 154.94 53.7923 154.456 53.1837ZM159.265 53.8032C159.244 54.0275 159.131 54.2367 158.955 54.3771C158.596 54.6628 158.072 54.6034 157.786 54.2447C157.491 53.8739 157.552 53.3319 157.923 53.0366L159.448 51.8217L159.265 53.8032ZM164.937 54.3309L163.318 54.0139L164.99 52.6825L164.937 54.3309ZM165.03 51.428L165.016 51.8503L162.501 53.8538L162.086 53.7726C161.667 53.6905 161.288 53.5044 160.975 53.2427L164.762 50.2265C164.947 50.5897 165.044 51.001 165.03 51.428ZM166.452 47.3424C166.738 47.7011 166.678 48.2254 166.32 48.5112C166.144 48.6515 165.914 48.7149 165.691 48.6849L163.719 48.4204L165.244 47.2055C165.615 46.9102 166.157 46.9716 166.452 47.3424Z" fill="#B74D15"/>
</g>
<g clip-path="url(#clip1_2004_4172)">
<path d="M153.878 53.4043C153.578 53.0091 153.482 51.9715 153.661 51.4134C153.673 51.2387 154.199 50.5487 154.373 50.5609C154.471 50.5678 154.235 50.9096 154.131 51.3062C154.05 51.6177 154.025 51.9377 154.019 52.0146C153.996 52.3556 154.176 52.748 154.383 53.0206C154.854 53.6402 155.741 53.7613 156.36 53.2906L159.394 50.9857L155.851 50.7609C155.752 50.7453 155.211 50.7235 154.76 50.7702C154.362 50.8116 153.991 51.0898 153.996 51.0126C154.008 50.8379 154.386 50.2809 155.464 50.3368L158.487 50.2868C158.156 49.8015 158.118 49.194 158.342 48.6855C158.054 48.2501 157.989 47.7232 158.13 47.2506C157.635 46.7348 156.819 46.66 156.237 47.1025C156.097 47.2085 155.899 47.1813 155.793 47.0418C155.687 46.9024 155.714 46.7035 155.853 46.5975C156.637 46.002 157.714 46.0553 158.435 46.6679C158.52 46.5613 158.62 46.4632 158.734 46.3767C158.848 46.2903 158.969 46.2206 159.094 46.1667C158.698 45.3077 158.935 44.2563 159.719 43.6608C159.858 43.5549 160.057 43.582 160.163 43.7215C160.269 43.8609 160.242 44.0599 160.102 44.1658C159.52 44.6083 159.373 45.4144 159.738 46.0291C160.231 46.0205 160.721 46.2236 161.063 46.6185C161.613 46.5388 162.188 46.7384 162.567 47.1876L163.117 44.5006C163.223 43.9786 163.516 43.5136 163.94 43.1913C164.838 42.509 166.124 42.6846 166.806 43.5825C167.488 44.4805 167.313 45.7661 166.415 46.4483L166.277 46.5526C166.562 46.6423 166.822 46.8171 167.015 47.0718C167.504 47.7154 167.378 48.6369 166.735 49.1259C166.418 49.3661 166.012 49.4685 165.62 49.4067L164.824 49.2814C165.372 49.8835 165.675 50.692 165.628 51.5424L165.448 54.8146C165.443 54.9075 165.397 54.9934 165.323 55.0496C165.249 55.1059 165.154 55.1268 165.063 55.1068L161.862 54.4035C161.03 54.2207 160.333 53.7118 159.899 53.0226L159.807 53.8229C159.761 54.2174 159.554 54.5815 159.237 54.8217C158.594 55.3107 157.672 55.1849 157.183 54.5412C156.99 54.2865 156.891 53.9891 156.881 53.6914L156.744 53.7956C155.846 54.4778 154.56 54.3023 153.878 53.4043ZM160.325 51.075C160.145 51.2114 160.049 51.4322 160.074 51.6511C160.12 52.0547 160.263 52.4297 160.48 52.7516L164.407 49.7675C164.155 49.4722 163.832 49.234 163.456 49.0817C163.252 48.9991 163.013 49.0326 162.834 49.169L160.325 51.075ZM160.399 46.8643C160.024 46.5958 159.503 46.5888 159.117 46.8817C158.732 47.1746 158.599 47.6785 158.757 48.1111L160.399 46.8643ZM160.686 47.4425L159.237 48.543C158.789 48.8832 158.702 49.5243 159.042 49.9721C159.382 50.4199 160.023 50.5074 160.471 50.1672L161.92 49.0667C162.368 48.7265 162.455 48.0854 162.115 47.6376C161.775 47.1898 161.134 47.1023 160.686 47.4425ZM166.301 43.9662C165.83 43.3467 164.943 43.2256 164.324 43.6962C164.022 43.9255 163.814 44.2564 163.738 44.6277L162.997 48.2482L166.031 45.9433C166.651 45.4727 166.772 44.5857 166.301 43.9662ZM165.718 48.7802C165.941 48.8153 166.172 48.7572 166.351 48.6209C166.716 48.3435 166.788 47.8207 166.51 47.4555C166.223 47.078 165.683 47.0042 165.306 47.291L163.753 48.4706L165.718 48.7802ZM164.835 54.4074L164.926 52.7607L163.224 54.0535L164.835 54.4074ZM161.998 53.7841L162.411 53.8748L164.972 51.9293L164.995 51.5074C165.018 51.0809 164.931 50.6675 164.755 50.3001L160.9 53.2288C161.206 53.4976 161.581 53.6924 161.998 53.7841ZM157.688 54.1576C157.966 54.5228 158.489 54.5942 158.854 54.3167C159.033 54.1804 159.151 53.9739 159.177 53.7501L159.406 51.7733L157.853 52.953C157.475 53.2397 157.402 53.7801 157.688 54.1576Z" fill="#B74D15"/>
</g>
<path d="M24.8564 19.6533C24.2021 18.54 23.333 17.666 22.249 17.0312C21.1748 16.3965 19.9736 16.0791 18.6455 16.0791C17.5127 16.0791 16.4775 16.3184 15.54 16.7969C14.6025 17.2754 13.7969 17.9199 13.123 18.7305C12.459 19.5312 11.9414 20.4639 11.5703 21.5283C11.1992 22.583 11.0137 23.6963 11.0137 24.8682C11.0137 26.2549 11.2188 27.4854 11.6289 28.5596C12.0391 29.624 12.5713 30.5127 13.2256 31.2256C13.8896 31.9287 14.6758 32.5195 15.584 32.998C16.4922 33.4668 17.5127 33.7012 18.6455 33.7012C20.1885 33.7012 21.5312 33.3301 22.6738 32.5879C23.8164 31.8359 24.793 30.6055 25.6035 28.8965L28.1816 30.1123C27.8105 31.167 27.1807 32.1875 26.292 33.1738C25.4033 34.1504 24.3047 34.9414 22.9961 35.5469C21.6973 36.1426 20.2568 36.4404 18.6748 36.4404C17.1611 36.4404 15.7695 36.1572 14.5 35.5908C13.2305 35.0146 12.0977 34.1992 11.1016 33.1445C10.1152 32.0898 9.3584 30.8398 8.83105 29.3945C8.31348 27.9492 8.05469 26.4404 8.05469 24.8682C8.05469 23.2861 8.31348 21.792 8.83105 20.3857C9.3584 18.9795 10.0908 17.7588 11.0283 16.7236C11.9756 15.6787 13.0986 14.8584 14.3975 14.2627C15.7061 13.6572 17.1221 13.3545 18.6455 13.3545C20.0029 13.3545 21.1748 13.5498 22.1611 13.9404C23.1475 14.3213 23.9824 14.7803 24.666 15.3174C25.3594 15.8447 25.9551 16.4209 26.4531 17.0459H28.0059V19.6533H24.8564ZM30.7891 13.208H35.5938V22.4951H35.6816C35.9551 22.2217 36.2676 21.9678 36.6191 21.7334C36.9805 21.4893 37.3564 21.2793 37.7471 21.1035C38.1377 20.9277 38.543 20.791 38.9629 20.6934C39.3828 20.5957 39.8223 20.5469 40.2812 20.5469C41.0918 20.5469 41.8242 20.6592 42.4785 20.8838C43.1328 21.1084 43.6895 21.4502 44.1484 21.9092C44.6074 22.3682 44.959 22.959 45.2031 23.6816C45.457 24.3945 45.584 25.2393 45.584 26.2158V33.4814H47.8691V36.001H40.6621V33.4814H42.7422V26.5527C42.7422 25.3906 42.4443 24.5117 41.8486 23.916C41.2627 23.3105 40.418 23.0078 39.3145 23.0078C38.6895 23.0078 38.0547 23.1592 37.4102 23.4619C36.7656 23.7549 36.1602 24.126 35.5938 24.5752V33.4814H37.791V36.001H30.584V33.4814H32.8691V15.7275H30.7891V13.208ZM50.2129 28.4131C50.2227 27.2119 50.4131 26.1182 50.7842 25.1318C51.165 24.1455 51.6924 23.3008 52.3662 22.5977C53.04 21.8848 53.8408 21.3379 54.7686 20.957C55.6963 20.5762 56.7168 20.3857 57.8301 20.3857C58.9531 20.3857 59.9785 20.5762 60.9062 20.957C61.8438 21.3379 62.6445 21.8799 63.3086 22.583C63.9727 23.2764 64.4902 24.1162 64.8613 25.1025C65.2324 26.0889 65.418 27.1826 65.418 28.3838C65.418 29.5654 65.2324 30.6543 64.8613 31.6504C64.4902 32.6367 63.9727 33.4863 63.3086 34.1992C62.6445 34.9121 61.8438 35.4688 60.9062 35.8691C59.9785 36.2598 58.9531 36.4551 57.8301 36.4551C56.6875 36.4551 55.6523 36.2598 54.7246 35.8691C53.7969 35.4785 53.001 34.9316 52.3369 34.2285C51.6729 33.5156 51.1553 32.666 50.7842 31.6797C50.4131 30.6934 50.2227 29.6045 50.2129 28.4131ZM53.0986 28.4131C53.0986 29.2822 53.2207 30.0684 53.4648 30.7715C53.7188 31.4746 54.0605 32.0752 54.4902 32.5732C54.9297 33.0615 55.4326 33.4424 55.999 33.7158C56.5752 33.9795 57.1855 34.1113 57.8301 34.1113C58.5039 34.1113 59.1289 33.9795 59.7051 33.7158C60.291 33.4521 60.7988 33.0762 61.2285 32.5879C61.6582 32.0898 61.9951 31.4893 62.2393 30.7861C62.4834 30.083 62.6055 29.292 62.6055 28.4131C62.6055 27.4951 62.4834 26.6797 62.2393 25.9668C61.9951 25.2539 61.6582 24.6582 61.2285 24.1797C60.8086 23.7012 60.3057 23.3398 59.7197 23.0957C59.1338 22.8516 58.5039 22.7295 57.8301 22.7295C57.1855 22.7295 56.5752 22.8516 55.999 23.0957C55.4326 23.3398 54.9297 23.7012 54.4902 24.1797C54.0605 24.6582 53.7188 25.2539 53.4648 25.9668C53.2207 26.6797 53.0986 27.4951 53.0986 28.4131ZM68.1719 28.4131C68.1816 27.2119 68.3721 26.1182 68.7432 25.1318C69.124 24.1455 69.6514 23.3008 70.3252 22.5977C70.999 21.8848 71.7998 21.3379 72.7275 20.957C73.6553 20.5762 74.6758 20.3857 75.7891 20.3857C76.9121 20.3857 77.9375 20.5762 78.8652 20.957C79.8027 21.3379 80.6035 21.8799 81.2676 22.583C81.9316 23.2764 82.4492 24.1162 82.8203 25.1025C83.1914 26.0889 83.377 27.1826 83.377 28.3838C83.377 29.5654 83.1914 30.6543 82.8203 31.6504C82.4492 32.6367 81.9316 33.4863 81.2676 34.1992C80.6035 34.9121 79.8027 35.4688 78.8652 35.8691C77.9375 36.2598 76.9121 36.4551 75.7891 36.4551C74.6465 36.4551 73.6113 36.2598 72.6836 35.8691C71.7559 35.4785 70.96 34.9316 70.2959 34.2285C69.6318 33.5156 69.1143 32.666 68.7432 31.6797C68.3721 30.6934 68.1816 29.6045 68.1719 28.4131ZM71.0576 28.4131C71.0576 29.2822 71.1797 30.0684 71.4238 30.7715C71.6777 31.4746 72.0195 32.0752 72.4492 32.5732C72.8887 33.0615 73.3916 33.4424 73.958 33.7158C74.5342 33.9795 75.1445 34.1113 75.7891 34.1113C76.4629 34.1113 77.0879 33.9795 77.6641 33.7158C78.25 33.4521 78.7578 33.0762 79.1875 32.5879C79.6172 32.0898 79.9541 31.4893 80.1982 30.7861C80.4424 30.083 80.5645 29.292 80.5645 28.4131C80.5645 27.4951 80.4424 26.6797 80.1982 25.9668C79.9541 25.2539 79.6172 24.6582 79.1875 24.1797C78.7676 23.7012 78.2646 23.3398 77.6787 23.0957C77.0928 22.8516 76.4629 22.7295 75.7891 22.7295C75.1445 22.7295 74.5342 22.8516 73.958 23.0957C73.3916 23.3398 72.8887 23.7012 72.4492 24.1797C72.0195 24.6582 71.6777 25.2539 71.4238 25.9668C71.1797 26.6797 71.0576 27.4951 71.0576 28.4131ZM95.0957 24.8975C95.0957 24.4873 94.998 24.1406 94.8027 23.8574C94.6172 23.5645 94.373 23.3301 94.0703 23.1543C93.7676 22.9688 93.4307 22.8369 93.0596 22.7588C92.6885 22.6709 92.3271 22.627 91.9756 22.627C91.585 22.627 91.2236 22.6709 90.8916 22.7588C90.5693 22.8467 90.291 22.9736 90.0566 23.1396C89.8223 23.3057 89.6367 23.5107 89.5 23.7549C89.373 23.9893 89.3096 24.2529 89.3096 24.5459C89.3096 25.0537 89.4609 25.459 89.7637 25.7617C90.0762 26.0547 90.5938 26.3281 91.3164 26.582L94.2314 27.6074C95.4814 28.0273 96.3945 28.5986 96.9707 29.3213C97.5469 30.0439 97.835 30.9082 97.835 31.9141C97.835 32.5879 97.6982 33.208 97.4248 33.7744C97.1611 34.3311 96.7803 34.8096 96.2822 35.21C95.7939 35.6006 95.2031 35.9033 94.5098 36.1182C93.8164 36.3428 93.0449 36.4551 92.1953 36.4551C91.0137 36.4551 90.0518 36.2646 89.3096 35.8838C88.5674 35.5029 87.9961 35 87.5957 34.375H86.0723V31.8555H89.1045C89.1045 32.2754 89.1924 32.6367 89.3682 32.9395C89.5537 33.2324 89.793 33.4717 90.0859 33.6572C90.3887 33.8428 90.7256 33.9795 91.0967 34.0674C91.4775 34.1553 91.8633 34.1992 92.2539 34.1992C92.6348 34.1992 93.001 34.1553 93.3525 34.0674C93.7041 33.9697 94.0117 33.833 94.2754 33.6572C94.5488 33.4717 94.7637 33.252 94.9199 32.998C95.0762 32.7441 95.1543 32.4561 95.1543 32.1338C95.1543 31.6455 94.9932 31.2305 94.6709 30.8887C94.3584 30.5469 93.8213 30.2393 93.0596 29.9658L90.1592 28.8818C88.9775 28.4619 88.0986 27.9297 87.5225 27.2852C86.9561 26.6309 86.6729 25.8154 86.6729 24.8389C86.6729 24.1943 86.79 23.5986 87.0244 23.0518C87.2686 22.5049 87.6152 22.0361 88.0645 21.6455C88.5234 21.2451 89.0801 20.9326 89.7344 20.708C90.3887 20.4834 91.1357 20.3711 91.9756 20.3711C93.0596 20.3711 93.9678 20.5225 94.7002 20.8252C95.4326 21.1279 96.0918 21.6455 96.6777 22.3779H98.0986V24.8975H95.0957ZM103.475 28.7646C103.475 29.1943 103.504 29.5898 103.562 29.9512C103.631 30.3027 103.724 30.6396 103.841 30.9619C104.202 31.9385 104.778 32.6758 105.569 33.1738C106.37 33.6621 107.273 33.9062 108.279 33.9062C109.07 33.9062 109.837 33.7988 110.579 33.584C111.331 33.3594 112.117 33.0127 112.938 32.5439L114.036 34.4043C113.04 35.0879 112.039 35.5957 111.033 35.9277C110.027 36.2598 108.982 36.4258 107.898 36.4258C106.873 36.4258 105.921 36.2549 105.042 35.9131C104.173 35.5713 103.421 35.0635 102.786 34.3896C102.161 33.7158 101.668 32.876 101.307 31.8701C100.955 30.8643 100.779 29.6924 100.779 28.3545C100.779 27.2705 100.931 26.25 101.233 25.293C101.536 24.3262 101.985 23.4863 102.581 22.7734C103.187 22.0508 103.934 21.4795 104.822 21.0596C105.711 20.6396 106.746 20.4297 107.928 20.4297C109.07 20.4297 110.022 20.6055 110.784 20.957C111.556 21.2988 112.181 21.7578 112.659 22.334C113.147 22.9004 113.514 23.5498 113.758 24.2822C114.012 25.0146 114.188 25.7617 114.285 26.5234C114.334 26.8945 114.363 27.2705 114.373 27.6514C114.393 28.0322 114.402 28.4033 114.402 28.7646H103.475ZM107.737 22.7148C107.103 22.7148 106.546 22.8076 106.067 22.9932C105.599 23.1689 105.198 23.4277 104.866 23.7695C104.534 24.1016 104.266 24.5117 104.061 25C103.865 25.4883 103.719 26.0352 103.621 26.6406H111.487C111.448 26.0742 111.355 25.5518 111.209 25.0732C111.072 24.5947 110.857 24.1797 110.564 23.8281C110.271 23.4766 109.896 23.2031 109.437 23.0078C108.978 22.8125 108.411 22.7148 107.737 22.7148ZM22.835 50.7939H30.042V53.3281H28.1523V73.001H24.4023L14.0752 54.5879V70.4814H16.3604V73.001H9.15332V70.4814H11.2041V53.3281H9.09473V50.7646H15.0713L25.208 69.002L25.3252 68.2988V53.3281H22.835V50.7939ZM41.1748 71.5947C40.5986 72.1318 39.959 72.5713 39.2559 72.9131C38.5625 73.2549 37.7715 73.4258 36.8828 73.4258C36.1406 73.4258 35.457 73.3086 34.832 73.0742C34.2168 72.8398 33.6846 72.5225 33.2354 72.1221C32.7861 71.7119 32.4346 71.2383 32.1807 70.7012C31.9365 70.1641 31.8145 69.5928 31.8145 68.9873C31.8145 68.3428 31.9072 67.7715 32.0928 67.2734C32.2881 66.7754 32.542 66.3457 32.8545 65.9844C33.1768 65.6133 33.5479 65.3057 33.9678 65.0615C34.3975 64.8076 34.8418 64.6074 35.3008 64.4609C35.7695 64.3047 36.2432 64.1973 36.7217 64.1387C37.21 64.0703 37.6738 64.0361 38.1133 64.0361C38.8164 64.0361 39.4072 64.0605 39.8857 64.1094C40.3643 64.1484 40.7988 64.207 41.1895 64.2852L41.2041 63.04C41.2041 62.5029 41.126 62.0391 40.9697 61.6484C40.8135 61.248 40.5938 60.9209 40.3105 60.667C40.0273 60.4033 39.6855 60.208 39.2852 60.0811C38.8945 59.9541 38.4551 59.8906 37.9668 59.8906C37.5078 59.8906 37.0684 59.9248 36.6484 59.9932C36.2285 60.0518 35.833 60.1348 35.4619 60.2422C35.1006 60.3398 34.7637 60.457 34.4512 60.5938C34.1484 60.7207 33.8896 60.8574 33.6748 61.0039L32.7812 59.1143C33.1426 58.8799 33.5381 58.665 33.9678 58.4697C34.3975 58.2646 34.8467 58.0938 35.3154 57.957C35.7939 57.8105 36.2773 57.6982 36.7656 57.6201C37.2637 57.5322 37.752 57.4883 38.2305 57.4883C39.1094 57.4883 39.9004 57.5957 40.6035 57.8105C41.3066 58.0156 41.9023 58.3379 42.3906 58.7773C42.8789 59.2168 43.2549 59.7783 43.5186 60.4619C43.7822 61.1357 43.9141 61.9463 43.9141 62.8936L43.8994 70.4814H45.584V73.001H41.1748V71.5947ZM37.4834 71.1406C37.8447 71.1406 38.2061 71.0967 38.5674 71.0088C38.9287 70.9209 39.2705 70.8037 39.5928 70.6572C39.915 70.501 40.2129 70.3252 40.4863 70.1299C40.7598 69.9248 40.9893 69.7148 41.1748 69.5L41.1895 66.0723H38.0254C37.498 66.0723 37.0146 66.1309 36.5752 66.248C36.1455 66.3652 35.7695 66.5361 35.4473 66.7607C35.1348 66.9854 34.8906 67.2637 34.7148 67.5957C34.5391 67.9277 34.4512 68.3086 34.4512 68.7383C34.4512 69.1387 34.5244 69.4902 34.6709 69.793C34.8174 70.0859 35.0225 70.335 35.2861 70.54C35.5596 70.7354 35.8818 70.8867 36.2529 70.9941C36.624 71.0918 37.0342 71.1406 37.4834 71.1406ZM53.0547 57.8252H56.6143V60.0371H53.0254L52.9814 68.7969C52.9814 69.3926 53.0498 69.876 53.1865 70.2471C53.3232 70.6182 53.543 70.877 53.8457 71.0234C54.1484 71.1602 54.4902 71.2285 54.8711 71.2285C55.2812 71.2285 55.6426 71.1943 55.9551 71.126C56.2676 71.0479 56.6094 70.9209 56.9805 70.7451L57.6104 72.5762C57.1416 72.8203 56.6484 73.0107 56.1309 73.1475C55.6133 73.2939 55.0029 73.3672 54.2998 73.3672C53.6357 73.3672 53.0547 73.2842 52.5566 73.1182C52.0684 72.9619 51.6533 72.6934 51.3115 72.3125C50.9795 71.9316 50.7305 71.4238 50.5645 70.7891C50.3984 70.1445 50.3154 69.3438 50.3154 68.3867L50.3594 60.0371H47.9424V57.8252H50.3887V54.1924L53.0547 52.9326V57.8252ZM59.7051 57.8252H64.6562V70.4814H66.9414V73.001H59.7344V70.4814H61.9023V60.3447H59.7051V57.8252ZM61.3896 52.4492C61.3896 52.1953 61.4385 51.9561 61.5361 51.7314C61.6436 51.4971 61.7803 51.2969 61.9463 51.1309C62.1221 50.9551 62.3271 50.8184 62.5615 50.7207C62.7959 50.6133 63.0449 50.5596 63.3086 50.5596C63.5625 50.5596 63.8018 50.6133 64.0264 50.7207C64.2607 50.8184 64.4609 50.9551 64.627 51.1309C64.8027 51.2969 64.9395 51.4971 65.0371 51.7314C65.1445 51.9561 65.1982 52.1953 65.1982 52.4492C65.1982 52.7129 65.1445 52.9619 65.0371 53.1963C64.9395 53.4307 64.8027 53.6406 64.627 53.8262C64.4609 54.002 64.2607 54.1436 64.0264 54.251C63.8018 54.3486 63.5625 54.3975 63.3086 54.3975C63.0449 54.3975 62.7959 54.3486 62.5615 54.251C62.3271 54.1436 62.1221 54.002 61.9463 53.8262C61.7803 53.6406 61.6436 53.4307 61.5361 53.1963C61.4385 52.9619 61.3896 52.7129 61.3896 52.4492ZM68.2891 57.8252H73.5332V60.3447H72.1123L75.8623 70.8037L79.5244 60.3447H78.6016V57.8252H83.4062V60.3447H82.1025L77.1367 73.2354H74.4414L69.4902 60.3447H68.2891V57.8252ZM88.1523 65.7646C88.1523 66.1943 88.1816 66.5898 88.2402 66.9512C88.3086 67.3027 88.4014 67.6396 88.5186 67.9619C88.8799 68.9385 89.4561 69.6758 90.2471 70.1738C91.0479 70.6621 91.9512 70.9062 92.957 70.9062C93.748 70.9062 94.5146 70.7988 95.2568 70.584C96.0088 70.3594 96.7949 70.0127 97.6152 69.5439L98.7139 71.4043C97.7178 72.0879 96.7168 72.5957 95.7109 72.9277C94.7051 73.2598 93.6602 73.4258 92.5762 73.4258C91.5508 73.4258 90.5986 73.2549 89.7197 72.9131C88.8506 72.5713 88.0986 72.0635 87.4639 71.3896C86.8389 70.7158 86.3457 69.876 85.9844 68.8701C85.6328 67.8643 85.457 66.6924 85.457 65.3545C85.457 64.2705 85.6084 63.25 85.9111 62.293C86.2139 61.3262 86.6631 60.4863 87.2588 59.7734C87.8643 59.0508 88.6113 58.4795 89.5 58.0596C90.3887 57.6396 91.4238 57.4297 92.6055 57.4297C93.748 57.4297 94.7002 57.6055 95.4619 57.957C96.2334 58.2988 96.8584 58.7578 97.3369 59.334C97.8252 59.9004 98.1914 60.5498 98.4355 61.2822C98.6895 62.0146 98.8652 62.7617 98.9629 63.5234C99.0117 63.8945 99.041 64.2705 99.0508 64.6514C99.0703 65.0322 99.0801 65.4033 99.0801 65.7646H88.1523ZM92.415 59.7148C91.7803 59.7148 91.2236 59.8076 90.7451 59.9932C90.2764 60.1689 89.876 60.4277 89.5439 60.7695C89.2119 61.1016 88.9434 61.5117 88.7383 62C88.543 62.4883 88.3965 63.0352 88.2988 63.6406H96.165C96.126 63.0742 96.0332 62.5518 95.8867 62.0732C95.75 61.5947 95.5352 61.1797 95.2422 60.8281C94.9492 60.4766 94.5732 60.2031 94.1143 60.0078C93.6553 59.8125 93.0889 59.7148 92.415 59.7148ZM9.09473 87.7939H18.0742C19.0703 87.7939 19.9834 87.9258 20.8135 88.1895C21.6533 88.4434 22.376 88.8242 22.9814 89.332C23.5967 89.8301 24.0703 90.4551 24.4023 91.207C24.7441 91.959 24.915 92.8232 24.915 93.7998C24.915 94.6104 24.749 95.377 24.417 96.0996C24.085 96.8125 23.6162 97.4375 23.0107 97.9746C22.4053 98.5117 21.6777 98.9365 20.8281 99.249C19.9883 99.5615 19.0508 99.7178 18.0156 99.7178H14.0752V107.481H16.3018V110.001H9.09473V107.481H11.2041V90.3281H9.09473V87.7939ZM14.0752 90.3281V97.3154H18.0742C18.6309 97.3154 19.1387 97.2422 19.5977 97.0957C20.0664 96.9395 20.4668 96.7148 20.7988 96.4219C21.1406 96.1289 21.4043 95.7627 21.5898 95.3232C21.7852 94.8838 21.8828 94.376 21.8828 93.7998C21.8828 92.7061 21.5508 91.8564 20.8867 91.251C20.2227 90.6357 19.1631 90.3281 17.708 90.3281H14.0752ZM26.9805 87.208H31.9023V107.481H34.1875V110.001H26.9805V107.481H29.1777V89.7275H26.9805V87.208ZM45.7744 108.595C45.1982 109.132 44.5586 109.571 43.8555 109.913C43.1621 110.255 42.3711 110.426 41.4824 110.426C40.7402 110.426 40.0566 110.309 39.4316 110.074C38.8164 109.84 38.2842 109.522 37.835 109.122C37.3857 108.712 37.0342 108.238 36.7803 107.701C36.5361 107.164 36.4141 106.593 36.4141 105.987C36.4141 105.343 36.5068 104.771 36.6924 104.273C36.8877 103.775 37.1416 103.346 37.4541 102.984C37.7764 102.613 38.1475 102.306 38.5674 102.062C38.9971 101.808 39.4414 101.607 39.9004 101.461C40.3691 101.305 40.8428 101.197 41.3213 101.139C41.8096 101.07 42.2734 101.036 42.7129 101.036C43.416 101.036 44.0068 101.061 44.4854 101.109C44.9639 101.148 45.3984 101.207 45.7891 101.285L45.8037 100.04C45.8037 99.5029 45.7256 99.0391 45.5693 98.6484C45.4131 98.248 45.1934 97.9209 44.9102 97.667C44.627 97.4033 44.2852 97.208 43.8848 97.0811C43.4941 96.9541 43.0547 96.8906 42.5664 96.8906C42.1074 96.8906 41.668 96.9248 41.248 96.9932C40.8281 97.0518 40.4326 97.1348 40.0615 97.2422C39.7002 97.3398 39.3633 97.457 39.0508 97.5938C38.748 97.7207 38.4893 97.8574 38.2744 98.0039L37.3809 96.1143C37.7422 95.8799 38.1377 95.665 38.5674 95.4697C38.9971 95.2646 39.4463 95.0938 39.915 94.957C40.3936 94.8105 40.877 94.6982 41.3652 94.6201C41.8633 94.5322 42.3516 94.4883 42.8301 94.4883C43.709 94.4883 44.5 94.5957 45.2031 94.8105C45.9062 95.0156 46.502 95.3379 46.9902 95.7773C47.4785 96.2168 47.8545 96.7783 48.1182 97.4619C48.3818 98.1357 48.5137 98.9463 48.5137 99.8936L48.499 107.481H50.1836V110.001H45.7744V108.595ZM42.083 108.141C42.4443 108.141 42.8057 108.097 43.167 108.009C43.5283 107.921 43.8701 107.804 44.1924 107.657C44.5146 107.501 44.8125 107.325 45.0859 107.13C45.3594 106.925 45.5889 106.715 45.7744 106.5L45.7891 103.072H42.625C42.0977 103.072 41.6143 103.131 41.1748 103.248C40.7451 103.365 40.3691 103.536 40.0469 103.761C39.7344 103.985 39.4902 104.264 39.3145 104.596C39.1387 104.928 39.0508 105.309 39.0508 105.738C39.0508 106.139 39.124 106.49 39.2705 106.793C39.417 107.086 39.6221 107.335 39.8857 107.54C40.1592 107.735 40.4814 107.887 40.8525 107.994C41.2236 108.092 41.6338 108.141 42.083 108.141ZM63.25 107.481H65.3887V100.553C65.3887 99.3906 65.0908 98.5117 64.4951 97.916C63.9092 97.3105 63.0645 97.0078 61.9609 97.0078C61.3262 97.0078 60.6865 97.1592 60.042 97.4619C59.3975 97.7646 58.7871 98.1406 58.2109 98.5898V107.481H60.3496V110.001H53.2598V107.481H55.3691V97.3447H53.2598V94.8252H58.0938V96.6123H58.123C58.4453 96.3291 58.7871 96.0605 59.1484 95.8066C59.5195 95.5527 59.9053 95.333 60.3057 95.1475C60.7061 94.9619 61.1211 94.8154 61.5508 94.708C61.9902 94.6006 62.4492 94.5469 62.9277 94.5469C63.7383 94.5469 64.4707 94.6592 65.125 94.8838C65.7793 95.1084 66.3359 95.4502 66.7949 95.9092C67.2539 96.3682 67.6055 96.959 67.8496 97.6816C68.1035 98.3945 68.2305 99.2393 68.2305 100.216V107.481H70.3398V110.001H63.25V107.481ZM77.6641 94.8252H81.2236V97.0371H77.6348L77.5908 105.797C77.5908 106.393 77.6592 106.876 77.7959 107.247C77.9326 107.618 78.1523 107.877 78.4551 108.023C78.7578 108.16 79.0996 108.229 79.4805 108.229C79.8906 108.229 80.252 108.194 80.5645 108.126C80.877 108.048 81.2188 107.921 81.5898 107.745L82.2197 109.576C81.751 109.82 81.2578 110.011 80.7402 110.147C80.2227 110.294 79.6123 110.367 78.9092 110.367C78.2451 110.367 77.6641 110.284 77.166 110.118C76.6777 109.962 76.2627 109.693 75.9209 109.312C75.5889 108.932 75.3398 108.424 75.1738 107.789C75.0078 107.145 74.9248 106.344 74.9248 105.387L74.9688 97.0371H72.5518V94.8252H74.998V91.1924L77.6641 89.9326V94.8252ZM93.1914 98.8975C93.1914 98.4873 93.0938 98.1406 92.8984 97.8574C92.7129 97.5645 92.4688 97.3301 92.166 97.1543C91.8633 96.9688 91.5264 96.8369 91.1553 96.7588C90.7842 96.6709 90.4229 96.627 90.0713 96.627C89.6807 96.627 89.3193 96.6709 88.9873 96.7588C88.665 96.8467 88.3867 96.9736 88.1523 97.1396C87.918 97.3057 87.7324 97.5107 87.5957 97.7549C87.4688 97.9893 87.4053 98.2529 87.4053 98.5459C87.4053 99.0537 87.5566 99.459 87.8594 99.7617C88.1719 100.055 88.6895 100.328 89.4121 100.582L92.3271 101.607C93.5771 102.027 94.4902 102.599 95.0664 103.321C95.6426 104.044 95.9307 104.908 95.9307 105.914C95.9307 106.588 95.7939 107.208 95.5205 107.774C95.2568 108.331 94.876 108.81 94.3779 109.21C93.8896 109.601 93.2988 109.903 92.6055 110.118C91.9121 110.343 91.1406 110.455 90.291 110.455C89.1094 110.455 88.1475 110.265 87.4053 109.884C86.6631 109.503 86.0918 109 85.6914 108.375H84.168V105.855H87.2002C87.2002 106.275 87.2881 106.637 87.4639 106.939C87.6494 107.232 87.8887 107.472 88.1816 107.657C88.4844 107.843 88.8213 107.979 89.1924 108.067C89.5732 108.155 89.959 108.199 90.3496 108.199C90.7305 108.199 91.0967 108.155 91.4482 108.067C91.7998 107.97 92.1074 107.833 92.3711 107.657C92.6445 107.472 92.8594 107.252 93.0156 106.998C93.1719 106.744 93.25 106.456 93.25 106.134C93.25 105.646 93.0889 105.23 92.7666 104.889C92.4541 104.547 91.917 104.239 91.1553 103.966L88.2549 102.882C87.0732 102.462 86.1943 101.93 85.6182 101.285C85.0518 100.631 84.7686 99.8154 84.7686 98.8389C84.7686 98.1943 84.8857 97.5986 85.1201 97.0518C85.3643 96.5049 85.7109 96.0361 86.1602 95.6455C86.6191 95.2451 87.1758 94.9326 87.8301 94.708C88.4844 94.4834 89.2314 94.3711 90.0713 94.3711C91.1553 94.3711 92.0635 94.5225 92.7959 94.8252C93.5283 95.1279 94.1875 95.6455 94.7734 96.3779H96.1943V98.8975H93.1914ZM106.185 87.7939H115.164C116.16 87.7939 117.073 87.9258 117.903 88.1895C118.743 88.4434 119.466 88.8242 120.071 89.332C120.687 89.8301 121.16 90.4551 121.492 91.207C121.834 91.959 122.005 92.8232 122.005 93.7998C122.005 94.6104 121.839 95.377 121.507 96.0996C121.175 96.8125 120.706 97.4375 120.101 97.9746C119.495 98.5117 118.768 98.9365 117.918 99.249C117.078 99.5615 116.141 99.7178 115.105 99.7178H111.165V107.481H113.392V110.001H106.185V107.481H108.294V90.3281H106.185V87.7939ZM111.165 90.3281V97.3154H115.164C115.721 97.3154 116.229 97.2422 116.688 97.0957C117.156 96.9395 117.557 96.7148 117.889 96.4219C118.23 96.1289 118.494 95.7627 118.68 95.3232C118.875 94.8838 118.973 94.376 118.973 93.7998C118.973 92.7061 118.641 91.8564 117.977 91.251C117.312 90.6357 116.253 90.3281 114.798 90.3281H111.165ZM136.111 107.481H137.957L136.199 102.442H127.659L125.945 107.481H128.23V110.001H121.023V107.481H122.957L129.871 87.7939H134.192L141.092 107.481H143.318V110.001H136.111V107.481ZM128.494 100.011H135.35L131.893 90.0791L128.494 100.011Z" fill="#1D2E26"/>
<defs>
<clipPath id="clip0_2004_4172">
<rect width="16.2358" height="16.2358" fill="white" transform="translate(150.148 48.7969) rotate(-38.5366)"/>
</clipPath>
<clipPath id="clip1_2004_4172">
<rect width="16.2358" height="16.2358" fill="white" transform="matrix(-0.796266 0.604946 0.604946 0.796266 163.109 38.7148)"/>
</clipPath>
</defs>
</svg>
