<svg width="24" height="24" viewBox="0 0 24 24" fill="none" xmlns="http://www.w3.org/2000/svg">
<path d="M19.7782 4.2218C17.7005 2.14421 14.9382 1 12 1C9.0618 1 6.29947 2.14421 4.2218 4.2218C2.14421 6.29942 1 9.0618 1 12C1 14.9382 2.14421 17.7006 4.2218 19.7782C6.29947 21.8558 9.0618 23 12 23C14.9382 23 17.7005 21.8558 19.7782 19.7782C21.8558 17.7006 23 14.9382 23 12C23 9.0618 21.8558 6.29942 19.7782 4.2218ZM12 22.3555C6.28997 22.3555 1.64453 17.71 1.64453 12C1.64453 6.28997 6.28997 1.64453 12 1.64453C17.71 1.64453 22.3555 6.28997 22.3555 12C22.3555 17.71 17.71 22.3555 12 22.3555Z" fill="black"/>
<path d="M18.8667 5.13334C17.0325 3.29917 14.5939 2.28906 12 2.28906C9.40611 2.28906 6.9675 3.29917 5.13334 5.13334C3.29917 6.9675 2.28906 9.40615 2.28906 12C2.28906 13.2048 2.50764 14.3817 2.93879 15.4977C3.0029 15.6637 3.18943 15.7465 3.35555 15.6823C3.52158 15.6181 3.60416 15.4315 3.54001 15.2655C3.17615 14.3235 2.97506 13.3349 2.93978 12.3223H6.3414C6.37217 14.4068 6.70109 16.3954 7.27189 18.0829C6.8352 18.2914 6.41084 18.5294 6.00135 18.7966C5.2359 18.1216 4.57831 17.313 4.06762 16.3928C3.98126 16.2371 3.78506 16.181 3.62947 16.2674C3.47384 16.3538 3.41772 16.5499 3.50409 16.7056C4.08988 17.761 4.85593 18.6797 5.75131 19.4319C5.7621 19.4424 5.77361 19.4517 5.78556 19.4604C6.71304 20.2324 7.77772 20.8264 8.92378 21.2098C8.949 21.2221 8.97573 21.2306 9.00302 21.236C9.95744 21.5462 10.967 21.7109 12 21.7109C14.5939 21.7109 17.0325 20.7008 18.8667 18.8667C20.7008 17.0325 21.7109 14.5939 21.7109 12C21.7109 9.40615 20.7008 6.9675 18.8667 5.13334ZM8.23465 3.75331C7.96055 4.22627 7.71292 4.74778 7.49357 5.30878C7.16395 5.14902 6.84207 4.97096 6.52887 4.77545C7.05563 4.37558 7.62711 4.03179 8.23465 3.75331ZM2.93995 11.6777C3.03032 9.10481 4.19769 6.80147 6.00436 5.20539C6.41295 5.47171 6.83627 5.70916 7.27189 5.91713C6.70109 7.6046 6.37221 9.59319 6.3414 11.6777H2.93995ZM6.52634 19.2261C6.84036 19.03 7.16309 18.8514 7.49357 18.6912C7.71275 19.2519 7.96025 19.7731 8.23413 20.2458C7.62956 19.9694 7.05666 19.6275 6.52634 19.2261ZM11.6777 21.0606C10.8467 21.031 10.0346 20.8875 9.26057 20.6417C8.80566 20.0232 8.40949 19.2748 8.08078 18.4292C9.21756 17.9636 10.432 17.7046 11.6777 17.6665V21.0606ZM11.6777 17.0217C10.3565 17.0598 9.0682 17.3317 7.86159 17.8225C7.32539 16.2161 7.01601 14.3182 6.98589 12.3223H11.6777V17.0217ZM11.6777 11.6777H6.98589C7.01601 9.68179 7.32539 7.78391 7.86159 6.17748C9.0682 6.66827 10.3565 6.94021 11.6777 6.97828V11.6777ZM11.6777 6.33354C10.4319 6.29543 9.21756 6.03645 8.08078 5.5708C8.40979 4.7244 8.80639 3.9755 9.26182 3.35658C10.0284 3.1132 10.8387 2.96943 11.6777 2.93995V6.33354ZM21.06 11.6777H17.6586C17.6278 9.59319 17.2989 7.6046 16.7281 5.91713C17.1637 5.70916 17.5871 5.47171 17.9956 5.20539C19.8023 6.80147 20.9697 9.10481 21.06 11.6777ZM17.4711 4.77545C17.1579 4.97096 16.836 5.14898 16.5064 5.30878C16.2871 4.74778 16.0394 4.22627 15.7654 3.75335C16.3728 4.03183 16.9444 4.37558 17.4711 4.77545ZM12.3223 2.93995C13.1613 2.96939 13.9716 3.11316 14.7382 3.35658C15.1936 3.9755 15.5902 4.7244 15.9193 5.5708C14.7825 6.03645 13.5681 6.29543 12.3223 6.33354V2.93995ZM12.3223 6.97828C13.6435 6.94021 14.9318 6.66827 16.1384 6.17748C16.6747 7.78391 16.984 9.68179 17.0141 11.6777H12.3223V6.97828ZM12.3223 12.3223H17.0141C16.984 14.3182 16.6746 16.2161 16.1384 17.8225C14.9318 17.3317 13.6435 17.0598 12.3223 17.0217V12.3223ZM12.3223 21.06V17.6665C13.5681 17.7046 14.7824 17.9635 15.9192 18.4292C15.5902 19.2756 15.1936 20.0245 14.7382 20.6434C13.9716 20.8868 13.1613 21.0306 12.3223 21.06ZM15.7654 20.2467C16.0394 19.7737 16.2871 19.2522 16.5064 18.6912C16.836 18.851 17.1579 19.029 17.4711 19.2246C16.9444 19.6244 16.3729 19.9682 15.7654 20.2467ZM17.9956 18.7946C17.5871 18.5283 17.1637 18.2908 16.7281 18.0829C17.2989 16.3954 17.6278 14.4068 17.6586 12.3223H21.06C20.9697 14.8952 19.8023 17.1985 17.9956 18.7946Z" fill="black"/>
</svg>
