<svg width="24" height="24" viewBox="0 0 24 24" fill="none" xmlns="http://www.w3.org/2000/svg">
<path d="M12.0001 12.5156C12.0001 15.7142 12.0001 15.7812 12 17.8008C15.1986 17.8008 17.8008 15.1986 17.8008 12C17.8008 8.80145 15.1986 6.19922 12 6.19922C12 8.66992 12.0001 9.31707 12.0001 12.5156Z" fill="black"/>
<path d="M17.013 17.015C16.7613 17.2667 16.7613 17.6748 17.013 17.9265L20.125 21.0385C20.3767 21.2903 20.7848 21.2903 21.0365 21.0385C21.2882 20.7868 21.2882 20.3788 21.0365 20.127L17.9245 17.015C17.6728 16.7632 17.2647 16.7632 17.013 17.015Z" fill="black"/>
<path d="M21.0365 2.96515C20.7849 2.71344 20.3768 2.71344 20.125 2.96515L17.013 6.07721C16.7613 6.32892 16.7613 6.737 17.013 6.98871C17.2647 7.24042 17.6728 7.24046 17.9245 6.98871L21.0365 3.87665C21.2882 3.62494 21.2882 3.21686 21.0365 2.96515Z" fill="black"/>
<path d="M14.7145 18.5521C14.3856 18.6883 14.2294 19.0654 14.3656 19.3943L14.8589 20.5852C14.995 20.9136 15.3717 21.0704 15.7011 20.934C16.03 20.7978 16.1861 20.4208 16.0499 20.0919L15.5566 18.901C15.4204 18.5721 15.0433 18.416 14.7145 18.5521Z" fill="black"/>
<path d="M19.3953 9.63677L20.5862 9.14349C20.9151 9.00728 21.0712 8.63023 20.935 8.30135C20.7988 7.97247 20.4218 7.81636 20.0929 7.95253L18.902 8.44581C18.5731 8.58202 18.4169 8.95907 18.5531 9.28795C18.6892 9.61632 19.0659 9.77315 19.3953 9.63677Z" fill="black"/>
<path d="M15.5566 5.1023L16.0499 3.91138C16.1861 3.58249 16.0299 3.20548 15.7011 3.06923C15.3722 2.93306 14.9952 3.08917 14.8589 3.41805L14.3656 4.60897C14.2294 4.93786 14.3856 5.31487 14.7145 5.45112C15.0447 5.58785 15.4209 5.42985 15.5566 5.1023Z" fill="black"/>
<path d="M20.5862 14.8584L19.3953 14.3651C19.0664 14.229 18.6894 14.3851 18.5531 14.7139C18.4169 15.0428 18.5731 15.4198 18.902 15.5561L20.0929 16.0494C20.4231 16.1861 20.7993 16.0281 20.935 15.7006C21.0712 15.3717 20.9151 14.9946 20.5862 14.8584Z" fill="black"/>
<path d="M11.3555 19.7344V22.3555C11.3555 22.7114 11.644 23 12 23C12.356 23 12.6445 22.7114 12.6445 22.3555V19.7344C12.6445 19.3784 12.356 19.0898 12 19.0898C11.644 19.0898 11.3555 19.3784 11.3555 19.7344Z" fill="black"/>
<path d="M12.6445 4.26562V1.64453C12.6445 1.28858 12.356 1 12 1C11.644 1 11.3555 1.28858 11.3555 1.64453V4.26562C11.3555 4.62158 11.644 4.91016 12 4.91016C12.356 4.91016 12.6445 4.62158 12.6445 4.26562Z" fill="black"/>
<path d="M22.3555 11.3555H19.7344C19.3784 11.3555 19.0898 11.644 19.0898 12C19.0898 12.356 19.3784 12.6445 19.7344 12.6445H22.3555C22.7114 12.6445 23 12.356 23 12C23 11.644 22.7114 11.3555 22.3555 11.3555Z" fill="black"/>
<path fill-rule="evenodd" clip-rule="evenodd" d="M12 6.19989C11.9731 6.19944 11.9461 6.19922 11.9191 6.19922C10.882 6.19922 9.86744 6.53756 9.06246 7.15193C8.37111 7.67958 7.85661 8.39136 7.5874 9.18382C7.2252 9.0471 6.83628 8.97583 6.44413 8.97583C4.75338 8.97583 3.37647 10.2686 3.36456 11.862C2.19843 12.3613 1.42969 13.4733 1.42969 14.6939C1.42969 16.4076 2.90664 17.8018 4.72205 17.8018H12V17.2079H4.72205C3.25357 17.2079 2.05887 16.0801 2.05887 14.6939C2.05887 13.6478 2.75677 12.7004 3.79542 12.3364C3.92596 12.2907 4.0091 12.1695 3.99987 12.0384C3.99563 11.9781 3.99366 11.9287 3.99366 11.8829C3.99366 10.6074 5.09293 9.56972 6.44413 9.56972C6.86169 9.56972 7.27448 9.67125 7.6379 9.86329C7.72443 9.90906 7.82884 9.91357 7.91944 9.87548C8.01008 9.83739 8.0764 9.76121 8.09834 9.66986C8.29158 8.86571 8.77446 8.13557 9.45805 7.61385C10.1515 7.08462 11.0255 6.79319 11.9191 6.79319C11.9461 6.79319 11.9731 6.79345 12 6.79397V6.19989Z" fill="black"/>
</svg>
