<svg width="24" height="25" viewBox="0 0 24 25" fill="none" xmlns="http://www.w3.org/2000/svg">
<g clip-path="url(#clip0_1165_6320)">
<path d="M20.6282 20.0446C20.1111 20.5317 19.3793 20.8 18.5676 20.8H5.43244C3.37965 20.8 1.87248 18.7892 3.27412 17.1701C3.42305 16.9981 3.35129 16.7293 3.13602 16.6547C2.03636 16.2736 1.64453 15.3211 1.64453 14.5569C1.64453 13.7917 2.03636 12.8381 3.13602 12.4569C3.35095 12.3824 3.42327 12.1137 3.27412 11.9415C2.91537 11.5271 2.72575 11.0315 2.72575 10.5084C2.72575 9.24062 3.83607 8.00986 5.37147 8.3057C5.3719 8.30579 5.37229 8.30579 5.37271 8.30587C5.59585 8.34816 5.79209 8.15153 5.74882 7.92796C5.61317 7.22757 5.79441 6.56564 6.24885 6.05504C6.36718 5.92205 6.35532 5.71838 6.22238 5.60005C6.08948 5.48184 5.88576 5.49357 5.76738 5.62652C5.27088 6.18438 5.02725 6.88039 5.06381 7.62087C4.23185 7.58039 3.45163 7.89853 2.8807 8.50697C2.37264 9.04846 2.08122 9.7779 2.08122 10.5083C2.08122 11.0476 2.23458 11.5625 2.5281 12.0184C1.58747 12.5072 1 13.4632 1 14.5569C1 15.6488 1.58682 16.6037 2.52655 17.0924C1.23177 19.0726 2.95044 21.4445 5.43244 21.4445H18.5675C19.5442 21.4445 20.433 21.114 21.0701 20.5137C21.1997 20.3916 21.2058 20.1877 21.0837 20.0581C20.9617 19.9286 20.7577 19.9226 20.6282 20.0446Z" fill="black"/>
<path d="M23.0016 14.5544C23.0016 13.4619 22.4142 12.5067 21.4736 12.0182C22.7104 10.0978 21.2284 7.5093 18.9377 7.62072C19.048 5.33998 16.4664 3.84179 14.5392 5.08419C14.0507 4.14326 13.0944 3.55566 12.0003 3.55566C10.9074 3.55566 9.95233 4.14382 9.46404 5.08505C8.69099 4.5876 7.77575 4.51473 6.95251 4.81998C6.78562 4.88181 6.7005 5.06726 6.76238 5.23415C6.82421 5.40109 7.00966 5.48616 7.17655 5.42433C7.90599 5.15393 8.6759 5.24846 9.39439 5.83602C9.56729 5.97755 9.8297 5.90339 9.90262 5.6922C10.2836 4.59216 11.2361 4.20024 12.0003 4.20024C12.7659 4.20024 13.7197 4.5922 14.1008 5.69224C14.1754 5.90795 14.4445 5.9791 14.6161 5.83052C16.2175 4.44495 18.6483 5.88663 18.2528 7.92791C18.2095 8.1516 18.4063 8.34883 18.6302 8.30564C20.7177 7.90294 22.0967 10.3595 20.7275 11.9414C20.5786 12.1134 20.6504 12.3821 20.8656 12.4568C21.9653 12.8378 22.3571 13.7902 22.3571 14.5544C22.3571 15.3197 21.9653 16.2733 20.8656 16.6545C20.6507 16.729 20.5784 16.9977 20.7275 17.1699C21.2104 17.7277 21.4283 18.414 21.2208 19.1086C21.1591 19.3153 21.3142 19.5232 21.5297 19.5232C21.6685 19.5232 21.7966 19.4329 21.8384 19.2932C22.0488 18.5891 21.9514 17.8091 21.4761 17.0916C22.4152 16.6025 23.0016 15.6471 23.0016 14.5544Z" fill="black"/>
<path d="M16.8417 14.1867C16.6413 14.4842 16.6413 14.8686 16.8417 15.1662C17.8488 16.6606 20.0476 16.6604 21.0545 15.1662C21.2549 14.8686 21.2549 14.4842 21.0545 14.1867C20.0473 12.6918 17.8482 12.6928 16.8417 14.1867ZM20.52 14.5468C20.573 14.6256 20.573 14.7273 20.52 14.806C19.8241 15.8388 18.3431 15.9304 17.525 14.9987H18.9481C19.1261 14.9987 19.2704 14.8544 19.2704 14.6764C19.2704 14.4984 19.1261 14.3541 18.9481 14.3541H17.525C18.3414 13.4243 19.8229 13.5123 20.52 14.5468Z" fill="black"/>
<path d="M16.8307 7.55515C16.5332 7.35466 16.1487 7.35466 15.8512 7.55515C14.3568 8.56195 14.357 10.7611 15.8512 11.7679C16.1493 11.9687 16.5337 11.968 16.8307 11.7679C18.3256 10.7608 18.3245 8.56157 16.8307 7.55515ZM16.6632 11.0846V9.76396C16.6632 9.58594 16.519 9.4417 16.3409 9.4417C16.1629 9.4417 16.0187 9.58594 16.0187 9.76396V11.0846C15.0888 10.2682 15.1767 8.78668 16.2113 8.08969C16.29 8.03666 16.3917 8.03662 16.4705 8.08969C17.5033 8.78552 17.5949 10.2665 16.6632 11.0846Z" fill="black"/>
<path d="M12.9857 19.659C13.0544 20.0112 13.3263 20.283 13.6784 20.3515C15.4519 20.6975 17.001 19.1359 16.6572 17.3728C16.5886 17.0207 16.3168 16.7488 15.9646 16.6801C14.1956 16.3352 12.6411 17.8909 12.9857 19.659ZM15.5996 17.282L14.5936 18.288C14.4678 18.4139 14.4678 18.6179 14.5936 18.7437C14.7195 18.8696 14.9236 18.8696 15.0494 18.7437L16.0556 17.7375C16.1359 18.9724 15.0261 19.9574 13.8016 19.719C13.7084 19.7008 13.6365 19.6289 13.6183 19.5357C13.3811 18.318 14.357 17.2019 15.5996 17.282Z" fill="black"/>
<path d="M8.84565 16.3073C8.6452 16.6048 8.6452 16.9892 8.84565 17.2868C9.85288 18.7816 12.0519 18.7806 13.0584 17.2868C13.2589 16.9892 13.2589 16.6048 13.0584 16.3073C12.0516 14.8128 9.85245 14.813 8.84565 16.3073ZM12.5239 16.9266C11.8281 17.9594 10.3471 18.051 9.52902 17.1193H10.9521C11.13 17.1193 11.2743 16.975 11.2743 16.797C11.2743 16.619 11.13 16.4747 10.9521 16.4747H9.52898C10.3469 15.5431 11.8281 15.6346 12.5239 16.6674C12.5769 16.7461 12.5769 16.8479 12.5239 16.9266Z" fill="black"/>
<path d="M9.38139 6.36711C9.0293 6.43573 8.75744 6.70759 8.68878 7.05972C8.34494 8.82393 9.89491 10.3844 11.6676 10.0385C12.0197 9.9699 12.2916 9.69804 12.3602 9.34596C12.705 7.57689 11.1495 6.02242 9.38139 6.36711ZM11.7276 9.22264C11.7094 9.31583 11.6375 9.38776 11.5443 9.40594C10.3217 9.64403 9.21003 8.66159 9.29038 7.42448L10.2967 8.43072C10.4226 8.55658 10.6266 8.55654 10.7524 8.43072C10.8782 8.30482 10.8782 8.10081 10.7524 7.97495L9.74637 6.96897C10.9884 6.88832 11.9649 8.00503 11.7276 9.22264Z" fill="black"/>
<path d="M7.11303 14.789C5.3441 14.4441 3.78954 15.9998 4.13419 17.7679C4.20281 18.12 4.47467 18.3918 4.8268 18.4604C6.59595 18.8055 8.15025 17.2497 7.80565 15.4816C7.73702 15.1295 7.46516 14.8576 7.11303 14.789ZM4.95012 17.8279C4.85692 17.8097 4.78499 17.7378 4.76681 17.6446C4.53775 16.4691 5.43906 15.3864 6.62517 15.3864C6.64373 15.3864 6.66233 15.3872 6.68094 15.3877L5.8143 16.2543C5.68845 16.3802 5.68845 16.5843 5.8143 16.7101C5.9402 16.836 6.14422 16.8359 6.27003 16.7101L7.19811 15.782C7.32336 17.0463 6.19591 18.0706 4.95012 17.8279Z" fill="black"/>
<path d="M8.23523 12.1819C8.58006 10.4126 7.02433 8.85846 5.25639 9.20302C4.9043 9.27164 4.63244 9.54351 4.56378 9.89564C4.21994 11.6599 5.76991 13.2203 7.54262 12.8745C7.89475 12.8058 8.16661 12.534 8.23523 12.1819ZM5.1964 10.0189C5.21458 9.92576 5.28651 9.85379 5.37971 9.83561C6.60187 9.59744 7.71402 10.5797 7.63367 11.8171L6.62743 10.8108C6.50158 10.685 6.29752 10.685 6.17171 10.8108C6.04585 10.9367 6.04585 11.1407 6.17171 11.2666L7.1779 12.2728C5.94032 12.3532 4.95827 11.2409 5.1964 10.0189Z" fill="black"/>
<path d="M11.4126 14.7794C13.2115 14.8944 14.5532 13.1521 13.9847 11.443C13.8715 11.1026 13.567 10.8679 13.2089 10.8449C11.4152 10.7303 10.0665 12.4676 10.6369 14.1813C10.7501 14.5218 11.0546 14.7565 11.4126 14.7794ZM13.1678 11.4882C13.2626 11.4942 13.3432 11.5563 13.3732 11.6464C13.7662 12.8279 12.9347 14.0569 11.6972 14.136L12.5661 13.009C12.6747 12.868 12.6485 12.6656 12.5076 12.557C12.3666 12.4483 12.1643 12.4745 12.0556 12.6155L11.1868 13.7424C10.9483 12.5254 11.9254 11.4088 13.1678 11.4882Z" fill="black"/>
</g>
<defs>
<clipPath id="clip0_1165_6320">
<rect width="22" height="22" fill="white" transform="translate(1 1.5)"/>
</clipPath>
</defs>
</svg>
