<svg width="24" height="25" viewBox="0 0 24 25" fill="none" xmlns="http://www.w3.org/2000/svg">
<path d="M18.9457 22.8796C18.44 21.9868 17.495 21.4322 16.4794 21.4322C15.8733 21.4322 15.2981 21.6224 14.8175 21.9753C14.1309 21.0424 13.0852 20.4367 11.9427 20.3111L11.3222 18.0999C11.218 17.7286 11.1504 17.3518 11.1186 16.9743L11.9935 16.2785L12.8243 16.5381C12.8645 16.5507 12.9052 16.5567 12.9453 16.5567C13.1201 16.5567 13.2821 16.4424 13.3364 16.2645C13.4031 16.0459 13.2821 15.8138 13.066 15.7463L12.7764 15.6558L13.2734 15.2604C13.4512 15.119 13.4821 14.8585 13.3423 14.6786C13.2026 14.4987 12.9451 14.4674 12.7673 14.6089L11.1234 15.9164C11.2143 14.9338 11.5466 13.9785 12.1072 13.1389C13.1375 11.5959 13.4945 9.68678 13.0977 7.87343L14.9108 5.05768C15.3155 5.92748 16.1897 6.5312 17.2011 6.5312C17.4272 6.5312 17.6106 6.34566 17.6106 6.11682C17.6106 4.8563 16.7054 3.80637 15.5184 3.59573C16.0028 2.63394 15.8485 1.42489 15.0544 0.621351C14.8945 0.45955 14.6352 0.45955 14.4752 0.621351C13.4921 1.61614 13.489 3.23244 14.4652 4.23152L14.0423 4.88838L13.7554 4.2072C13.6668 3.99664 13.4262 3.89875 13.2181 3.98841C13.0101 4.07811 12.9133 4.32151 13.0019 4.53206L13.504 5.72429L12.8284 6.77339L12.4239 5.13612C12.5716 4.47332 12.4571 3.7916 12.1007 3.21523C11.7421 2.6355 11.182 2.23175 10.5234 2.07839C10.3032 2.02681 10.0832 2.16623 10.0324 2.38926C9.74271 3.66315 10.4517 4.93737 11.6377 5.37056L12.2616 7.89615C12.6153 9.32768 12.4279 10.8385 11.7514 12.1305L10.8891 10.8112L11.1795 9.27333C11.2219 9.04854 11.0762 8.83151 10.8541 8.78856C10.632 8.74561 10.4175 8.89308 10.375 9.11782L10.2422 9.82142L9.91755 9.32471C9.89418 8.67673 9.63432 8.07082 9.17875 7.60989C8.70084 7.12629 8.06544 6.85997 7.38961 6.86002C7.16347 6.86002 6.98011 7.04556 6.98011 7.27439C6.98011 8.60087 7.98228 9.69482 9.2607 9.82211L11.2791 12.9101C10.2909 14.5289 10.0181 16.4866 10.5344 18.3261L11.0904 20.3075C9.93518 20.4248 8.87582 21.0332 8.18222 21.9751C7.70189 21.6222 7.12681 21.432 6.52055 21.432C5.50498 21.432 4.55994 21.9867 4.05428 22.8795C3.94183 23.078 4.00972 23.3312 4.20594 23.445C4.40216 23.5588 4.6524 23.4901 4.76484 23.2915C5.12496 22.6558 5.7977 22.2608 6.52055 22.2608C7.07256 22.2608 7.58849 22.4825 7.97323 22.8853C8.06269 22.9789 8.19026 23.0244 8.31817 23.0085C8.44589 22.9924 8.55872 22.9165 8.62279 22.8035C9.21359 21.762 10.316 21.115 11.4998 21.115C12.684 21.115 13.7863 21.762 14.3767 22.8034C14.4407 22.9164 14.5535 22.9923 14.6812 23.0085C14.8088 23.0246 14.9367 22.979 15.0262 22.8855C15.4114 22.4826 15.9276 22.2608 16.4795 22.2608C17.2024 22.2608 17.8751 22.6558 18.2352 23.2916C18.3109 23.4252 18.4489 23.5 18.5909 23.5C18.66 23.5 18.7299 23.4823 18.7941 23.4451C18.9903 23.3314 19.0582 23.0782 18.9457 22.8796ZM16.7238 5.63401C16.1633 5.46904 15.7205 5.02103 15.5576 4.45387C16.1181 4.61884 16.5608 5.06685 16.7238 5.63401ZM14.7648 1.59606C14.9029 1.84907 14.9764 2.13474 14.9764 2.43182C14.9764 2.7289 14.9029 3.01463 14.7648 3.26764C14.6266 3.01463 14.5531 2.72895 14.5531 2.43182C14.5531 2.13474 14.6266 1.84907 14.7648 1.59606ZM11.0477 3.88218C10.8921 3.63058 10.8046 3.3492 10.789 3.06084C11.2993 3.34886 11.6317 3.88642 11.6646 4.47673C11.4151 4.33648 11.2032 4.13383 11.0477 3.88218ZM7.8668 7.75735C8.42729 7.92232 8.87009 8.37038 9.03312 8.93754C8.47263 8.77257 8.02983 8.32451 7.8668 7.75735Z" fill="black"/>
</svg>
